
o 
v -0.760349754248258 -0.149599280251709 0.025662535072838055
v -0.8928187526804174 -0.21776327960803843 0.04077454024699806
v -0.8928187526804174 -0.149599280251709 0.025662535072838055
v -0.8928187526804174 -0.21776327960803843 0.04077454024699806
v -0.760349754248258 -0.149599280251709 0.025662535072838055
v -0.760349754248258 -0.21776327960803843 0.04077454024699806
v -0.760349754248258 -0.149599280251709 0.025662535072838055
v -0.8623047545593943 -0.1349192792983327 0.09188153708127617
v -0.8422127533745731 -0.1305702785463605 0.11149653626379846
v -0.8623047545593943 -0.1349192792983327 0.09188153708127617
v -0.760349754248258 -0.149599280251709 0.025662535072838055
v -0.8928187526804174 -0.149599280251709 0.025662535072838055
v -0.8928187526804174 -0.1381072802902732 0.07750153654960273
v -0.8623047545593943 -0.1349192792983327 0.09188153708127617
v -0.8928187526804174 -0.149599280251709 0.025662535072838055
v -0.8623047545593943 -0.1349192792983327 0.09188153708127617
v -0.8928187526804174 -0.1381072802902732 0.07750153654960273
v -0.8780897557777132 -0.1349192792983327 0.09188153708127617
v -0.8422127533745731 -0.1305702785463605 0.11149653626379846
v -0.760349754248258 -0.11284327977016306 0.19146254027036308
v -0.760349754248258 -0.149599280251709 0.025662535072838055
v -0.8422127533745731 -0.11284327977016306 0.19146254027036308
v -0.760349754248258 -0.11284327977016306 0.19146254027036308
v -0.8422127533745731 -0.1305702785463605 0.11149653626379846
v -0.760349754248258 -0.11284327977016306 0.19146254027036308
v -0.8422127533745731 -0.11284327977016306 0.19146254027036308
v -0.779600754384395 -0.10867627807572222 0.21025753879693626
v -0.779600754384395 -0.10867627807572222 0.21025753879693626
v -0.8422127533745731 -0.11284327977016306 0.19146254027036308
v -0.8229617541697587 -0.10867627807572222 0.21025753879693626
v -0.760349754248258 -0.21776327960803843 0.04077454024699806
v -0.760349754248258 -0.18100728005781508 0.2065735396161425
v -0.8422127533745731 -0.19873428069665766 0.12660853666493027
v -0.760349754248258 -0.18100728005781508 0.2065735396161425
v -0.8422127533745731 -0.18100728005781508 0.2065735396161425
v -0.8422127533745731 -0.19873428069665766 0.12660853666493027
v -0.8422127533745731 -0.18100728005781508 0.2065735396161425
v -0.760349754248258 -0.18100728005781508 0.2065735396161425
v -0.8229617541697587 -0.1768402802260194 0.22536853814271568
v -0.8229617541697587 -0.1768402802260194 0.22536853814271568
v -0.760349754248258 -0.18100728005781508 0.2065735396161425
v -0.779600754384395 -0.1768402802260194 0.22536853814271568
v -0.8623047545593943 -0.20308328144862986 0.10699353666750072
v -0.760349754248258 -0.21776327960803843 0.04077454024699806
v -0.8422127533745731 -0.19873428069665766 0.12660853666493027
v -0.8623047545593943 -0.20308328144862986 0.10699353666750072
v -0.8928187526804174 -0.21776327960803843 0.04077454024699806
v -0.760349754248258 -0.21776327960803843 0.04077454024699806
v -0.8928187526804174 -0.21776327960803843 0.04077454024699806
v -0.8623047545593943 -0.20308328144862986 0.10699353666750072
v -0.8928187526804174 -0.2062712805779252 0.09261253589538215
v -0.8928187526804174 -0.2062712805779252 0.09261253589538215
v -0.8623047545593943 -0.20308328144862986 0.10699353666750072
v -0.8780897557777132 -0.20308328144862986 0.10699353666750072
v -0.8928187526804174 -0.21776327960803843 0.04077454024699806
v -0.8928187526804174 -0.1381072802902732 0.07750153654960273
v -0.8928187526804174 -0.149599280251709 0.025662535072838055
v -0.8928187526804174 -0.1381072802902732 0.07750153654960273
v -0.8928187526804174 -0.21776327960803843 0.04077454024699806
v -0.8928187526804174 -0.2062712805779252 0.09261253589538215
v -0.8928187526804174 -0.2062712805779252 0.09261253589538215
v -0.8780897557777132 -0.1349192792983327 0.09188153708127617
v -0.8928187526804174 -0.1381072802902732 0.07750153654960273
v -0.8780897557777132 -0.1349192792983327 0.09188153708127617
v -0.8928187526804174 -0.2062712805779252 0.09261253589538215
v -0.8780897557777132 -0.20308328144862986 0.10699353666750072
v -0.8780897557777132 -0.1349192792983327 0.09188153708127617
v -0.8780897557777132 -0.20308328144862986 0.10699353666750072
v -0.8623047545593943 -0.20308328144862986 0.10699353666750072
v -0.8623047545593943 -0.20308328144862986 0.10699353666750072
v -0.8623047545593943 -0.1349192792983327 0.09188153708127617
v -0.8780897557777132 -0.1349192792983327 0.09188153708127617
v -0.8422127533745731 -0.19873428069665766 0.12660853666493027
v -0.8623047545593943 -0.1349192792983327 0.09188153708127617
v -0.8623047545593943 -0.20308328144862986 0.10699353666750072
v -0.8623047545593943 -0.1349192792983327 0.09188153708127617
v -0.8422127533745731 -0.19873428069665766 0.12660853666493027
v -0.8422127533745731 -0.1305702785463605 0.11149653626379846
v -0.8422127533745731 -0.18100728005781508 0.2065735396161425
v -0.8422127533745731 -0.1305702785463605 0.11149653626379846
v -0.8422127533745731 -0.19873428069665766 0.12660853666493027
v -0.8422127533745731 -0.1305702785463605 0.11149653626379846
v -0.8422127533745731 -0.18100728005781508 0.2065735396161425
v -0.8422127533745731 -0.11284327977016306 0.19146254027036308
v -0.8422127533745731 -0.18100728005781508 0.2065735396161425
v -0.8229617541697587 -0.10867627807572222 0.21025753879693626
v -0.8422127533745731 -0.11284327977016306 0.19146254027036308
v -0.8229617541697587 -0.10867627807572222 0.21025753879693626
v -0.8422127533745731 -0.18100728005781508 0.2065735396161425
v -0.8229617541697587 -0.1768402802260194 0.22536853814271568
v -0.8229617541697587 -0.1768402802260194 0.22536853814271568
v -0.779600754384395 -0.1768402802260194 0.22536853814271568
v -0.8229617541697587 -0.10867627807572222 0.21025753879693626
v -0.779600754384395 -0.1768402802260194 0.22536853814271568
v -0.779600754384395 -0.10867627807572222 0.21025753879693626
v -0.8229617541697587 -0.10867627807572222 0.21025753879693626
v -0.760349754248258 -0.18100728005781508 0.2065735396161425
v -0.779600754384395 -0.10867627807572222 0.21025753879693626
v -0.779600754384395 -0.1768402802260194 0.22536853814271568
v -0.760349754248258 -0.18100728005781508 0.2065735396161425
v -0.760349754248258 -0.11284327977016306 0.19146254027036308
v -0.779600754384395 -0.10867627807572222 0.21025753879693626
v -0.760349754248258 -0.149599280251709 0.025662535072838055
v -0.760349754248258 -0.11284327977016306 0.19146254027036308
v -0.760349754248258 -0.18100728005781508 0.2065735396161425
v -0.760349754248258 -0.18100728005781508 0.2065735396161425
v -0.760349754248258 -0.21776327960803843 0.04077454024699806
v -0.760349754248258 -0.149599280251709 0.025662535072838055
vt 0 0
vt 0 0
vt 0 0
vt 0 0
vt 0 0
vt 0 0
vt 0 0
vt 0 0
vt 0 0
vt 0 0
vt 0 0
vt 0 0
vt 0 0
vt 0 0
vt 0 0
vt 0 0
vt 0 0
vt 0 0
vt 0 0
vt 0 0
vt 0 0
vt 0 0
vt 0 0
vt 0 0
vt 0 0
vt 0 0
vt 0 0
vt 0 0
vt 0 0
vt 0 0
vt 0 0
vt 0 0
vt 0 0
vt 0 0
vt 0 0
vt 0 0
vt 0 0
vt 0 0
vt 0 0
vt 0 0
vt 0 0
vt 0 0
vt 0 0
vt 0 0
vt 0 0
vt 0 0
vt 0 0
vt 0 0
vt 0 0
vt 0 0
vt 0 0
vt 0 0
vt 0 0
vt 0 0
vt 0 0
vt 0 0
vt 0 0
vt 0 0
vt 0 0
vt 0 0
vt 0 0
vt 0 0
vt 0 0
vt 0 0
vt 0 0
vt 0 0
vt 0 0
vt 0 0
vt 0 0
vt 0 0
vt 0 0
vt 0 0
vt 0 0
vt 0 0
vt 0 0
vt 0 0
vt 0 0
vt 0 0
vt 0 0
vt 0 0
vt 0 0
vt 0 0
vt 0 0
vt 0 0
vt 0 0
vt 0 0
vt 0 0
vt 0 0
vt 0 0
vt 0 0
vt 0 0
vt 0 0
vt 0 0
vt 0 0
vt 0 0
vt 0 0
vt 0 0
vt 0 0
vt 0 0
vt 0 0
vt 0 0
vt 0 0
vt 0 0
vt 0 0
vt 0 0
vt 0 0
vt 0 0
vt 0 0
vn 0 -0.21640090284978078 -0.9763045883564205
vn 0 -0.21640090284978078 -0.9763045883564205
vn 0 -0.21640090284978078 -0.9763045883564205
vn 0 -0.21640090284978078 -0.9763045883564205
vn 0 -0.21640090284978078 -0.9763045883564205
vn 0 -0.21640090284978078 -0.9763045883564205
vn 0 0.9763045883564205 -0.21640090284978078
vn 0 0.9763045883564205 -0.21640090284978078
vn 0 0.9763045883564205 -0.21640090284978078
vn 0 0.9763045883564205 -0.21640090284978078
vn 0 0.9763045883564205 -0.21640090284978078
vn 0 0.9763045883564205 -0.21640090284978078
vn 0 0.9763045883564205 -0.21640090284978078
vn 0 0.9763045883564205 -0.21640090284978078
vn 0 0.9763045883564205 -0.21640090284978078
vn 0 0.9763045883564205 -0.21640090284978078
vn 0 0.9763045883564205 -0.21640090284978078
vn 0 0.9763045883564205 -0.21640090284978078
vn 0 0.9763045883564205 -0.21640090284978078
vn 0 0.9763045883564205 -0.21640090284978078
vn 0 0.9763045883564205 -0.21640090284978078
vn 0 0.9763045883564205 -0.21640090284978078
vn 0 0.9763045883564205 -0.21640090284978078
vn 0 0.9763045883564205 -0.21640090284978078
vn 0 0.9763045883564205 -0.21640090284978078
vn 0 0.9763045883564205 -0.21640090284978078
vn 0 0.9763045883564205 -0.21640090284978078
vn 0 0.9763045883564205 -0.21640090284978078
vn 0 0.9763045883564205 -0.21640090284978078
vn 0 0.9763045883564205 -0.21640090284978078
vn 0 -0.9763045883564205 0.21640090284978078
vn 0 -0.9763045883564205 0.21640090284978078
vn 0 -0.9763045883564205 0.21640090284978078
vn 0 -0.9763045883564205 0.21640090284978078
vn 0 -0.9763045883564205 0.21640090284978078
vn 0 -0.9763045883564205 0.21640090284978078
vn 0 -0.9763045883564205 0.21640090284978078
vn 0 -0.9763045883564205 0.21640090284978078
vn 0 -0.9763045883564205 0.21640090284978078
vn 0 -0.9763045883564205 0.21640090284978078
vn 0 -0.9763045883564205 0.21640090284978078
vn 0 -0.9763045883564205 0.21640090284978078
vn 0 -0.9763045883564205 0.21640090284978078
vn 0 -0.9763045883564205 0.21640090284978078
vn 0 -0.9763045883564205 0.21640090284978078
vn 0 -0.9763045883564205 0.21640090284978078
vn 0 -0.9763045883564205 0.21640090284978078
vn 0 -0.9763045883564205 0.21640090284978078
vn 0 -0.9763045883564205 0.21640090284978078
vn 0 -0.9763045883564205 0.21640090284978078
vn 0 -0.9763045883564205 0.21640090284978078
vn 0 -0.9763045883564205 0.21640090284978078
vn 0 -0.9763045883564205 0.21640090284978078
vn 0 -0.9763045883564205 0.21640090284978078
vn -1 0 0
vn -0.9238887479263418 0.08279898160943285 0.373595918205134
vn -1 0 0
vn -0.9238887479263418 0.08279898160943285 0.373595918205134
vn -1 0 0
vn -0.9238887479263418 0.08279898160943285 0.373595918205134
vn -0.9238887479263418 0.08279898160943285 0.373595918205134
vn -0.38268811083022225 0.19999406310274967 0.9019712770109971
vn -0.9238887479263418 0.08279898160943285 0.373595918205134
vn -0.38268811083022225 0.19999406310274967 0.9019712770109971
vn -0.9238887479263418 0.08279898160943285 0.373595918205134
vn -0.38268811083022225 0.19999406310274967 0.9019712770109971
vn -0.38268811083022225 0.19999406310274967 0.9019712770109971
vn -0.38268811083022225 0.19999406310274967 0.9019712770109971
vn -0.38268811083022225 0.19999406310274967 0.9019712770109971
vn -0.38268811083022225 0.19999406310274967 0.9019712770109971
vn -0.38268811083022225 0.19999406310274967 0.9019712770109971
vn -0.38268811083022225 0.19999406310274967 0.9019712770109971
vn -0.9238887479263418 0.08279898160943285 0.373595918205134
vn -0.38268811083022225 0.19999406310274967 0.9019712770109971
vn -0.38268811083022225 0.19999406310274967 0.9019712770109971
vn -0.38268811083022225 0.19999406310274967 0.9019712770109971
vn -0.9238887479263418 0.08279898160943285 0.373595918205134
vn -0.9238887479263418 0.08279898160943285 0.373595918205134
vn -0.9238887479263418 0.08279898160943285 0.373595918205134
vn -0.9238887479263418 0.08279898160943285 0.373595918205134
vn -0.9238887479263418 0.08279898160943285 0.373595918205134
vn -0.9238887479263418 0.08279898160943285 0.373595918205134
vn -0.9238887479263418 0.08279898160943285 0.373595918205134
vn -0.9238887479263418 0.08279898160943285 0.373595918205134
vn -0.9238887479263418 0.08279898160943285 0.373595918205134
vn -0.38268811083022225 0.19999406310274967 0.9019712770109971
vn -0.9238887479263418 0.08279898160943285 0.373595918205134
vn -0.38268811083022225 0.19999406310274967 0.9019712770109971
vn -0.9238887479263418 0.08279898160943285 0.373595918205134
vn -0.38268811083022225 0.19999406310274967 0.9019712770109971
vn -0.38268811083022225 0.19999406310274967 0.9019712770109971
vn 0.38268811083022225 0.19999406310274967 0.9019712770109971
vn -0.38268811083022225 0.19999406310274967 0.9019712770109971
vn 0.38268811083022225 0.19999406310274967 0.9019712770109971
vn 0.38268811083022225 0.19999406310274967 0.9019712770109971
vn -0.38268811083022225 0.19999406310274967 0.9019712770109971
vn 0.9238887479263418 0.08279898160943285 0.373595918205134
vn 0.38268811083022225 0.19999406310274967 0.9019712770109971
vn 0.38268811083022225 0.19999406310274967 0.9019712770109971
vn 0.9238887479263418 0.08279898160943285 0.373595918205134
vn 0.9238887479263418 0.08279898160943285 0.373595918205134
vn 0.38268811083022225 0.19999406310274967 0.9019712770109971
vn 1 0 0
vn 0.9238887479263418 0.08279898160943285 0.373595918205134
vn 0.9238887479263418 0.08279898160943285 0.373595918205134
vn 0.9238887479263418 0.08279898160943285 0.373595918205134
vn 1 0 0
vn 1 0 0
f 1/1/1 2/2/2 3/3/3
f 4/4/4 5/5/5 6/6/6
f 7/7/7 8/8/8 9/9/9
f 10/10/10 11/11/11 12/12/12
f 13/13/13 14/14/14 15/15/15
f 16/16/16 17/17/17 18/18/18
f 19/19/19 20/20/20 21/21/21
f 22/22/22 23/23/23 24/24/24
f 25/25/25 26/26/26 27/27/27
f 28/28/28 29/29/29 30/30/30
f 31/31/31 32/32/32 33/33/33
f 34/34/34 35/35/35 36/36/36
f 37/37/37 38/38/38 39/39/39
f 40/40/40 41/41/41 42/42/42
f 43/43/43 44/44/44 45/45/45
f 46/46/46 47/47/47 48/48/48
f 49/49/49 50/50/50 51/51/51
f 52/52/52 53/53/53 54/54/54
f 55/55/55 56/56/56 57/57/57
f 58/58/58 59/59/59 60/60/60
f 61/61/61 62/62/62 63/63/63
f 64/64/64 65/65/65 66/66/66
f 67/67/67 68/68/68 69/69/69
f 70/70/70 71/71/71 72/72/72
f 73/73/73 74/74/74 75/75/75
f 76/76/76 77/77/77 78/78/78
f 79/79/79 80/80/80 81/81/81
f 82/82/82 83/83/83 84/84/84
f 85/85/85 86/86/86 87/87/87
f 88/88/88 89/89/89 90/90/90
f 91/91/91 92/92/92 93/93/93
f 94/94/94 95/95/95 96/96/96
f 97/97/97 98/98/98 99/99/99
f 100/100/100 101/101/101 102/102/102
f 103/103/103 104/104/104 105/105/105
f 106/106/106 107/107/107 108/108/108
