# Blender 5.2.0 LTS
# www.blender.org
mtllib attempt at true boneclaw body.mtl
o 125980134342906
v -0.991588 0.206650 -0.085293
v -0.986583 0.063337 -0.085293
v -0.991588 0.206650 0.084672
v -0.986583 0.063337 0.084672
v 1.116518 0.217611 -0.125050
v 1.134266 -0.290623 0.125050
v 1.134266 -0.290623 -0.125050
v 1.116518 0.217611 0.125050
v 1.061623 -0.293159 0.125050
v 0.948831 0.211756 -0.125050
v 1.061623 -0.293159 -0.125050
v 0.948831 0.211756 0.125050
v 0.982694 -0.237141 -0.125050
v 0.900086 0.190729 0.125050
v 0.982694 -0.237141 0.125050
v 0.900086 0.190729 -0.125050
v 0.960194 -0.179151 -0.125050
v 0.882361 0.126503 -0.125050
v 0.960194 -0.179151 0.125050
v 0.882361 0.126503 0.125050
v 0.906430 -0.122255 -0.125050
v 0.846334 0.061637 -0.125050
v 0.906430 -0.122255 0.125050
v 0.846334 0.061637 0.125050
v 0.858766 -0.065144 -0.125050
v 0.869326 -0.001169 -0.125050
v 0.858766 -0.065144 0.125050
v 0.869326 -0.001169 0.125050
v 0.284932 -0.505343 -0.097010
v 0.500582 -0.444396 -0.097010
v 0.284932 -0.505343 0.097010
v 0.500582 -0.444396 0.097010
v 0.830466 0.192131 -0.111138
v 0.813595 0.099595 0.111138
v 0.813595 0.099595 -0.111138
v 0.830466 0.192131 0.111138
v 0.789913 0.202100 0.111138
v 0.789913 0.202100 -0.111138
v 0.748402 0.239521 0.111138
v 0.748402 0.239521 -0.111138
v 0.662717 0.256632 -0.111138
v 0.662717 0.256632 0.111138
v 0.566036 0.253256 -0.111138
v 0.566036 0.253256 0.111138
v 0.485024 0.270528 0.111138
v 0.485024 0.270528 -0.111138
v -0.350187 0.038077 0.105817
v -0.350187 0.038077 -0.105817
v -0.346935 -0.055041 -0.105817
v -0.346935 -0.055041 0.105817
v -0.301934 -0.192408 -0.105817
v -0.301934 -0.192408 0.105817
v -0.320303 -0.138656 -0.105817
v -0.320303 -0.138656 0.105817
v -0.312592 -0.083995 -0.105817
v -0.312592 -0.083995 0.105817
v -1.026889 -0.022257 -0.115609
v -0.875910 -0.019184 -0.115609
v -0.875910 -0.019183 0.114988
v -0.761600 -0.032344 0.114988
v -1.026889 -0.022257 0.114988
v -0.761600 -0.032344 -0.115609
v -1.028664 0.028581 0.114988
v -0.648487 -0.011242 0.114988
v -1.028664 0.028581 -0.115609
v -0.648487 -0.011242 -0.115609
v -1.031999 0.124076 0.114988
v -0.533854 -0.033627 0.114988
v -1.031999 0.124076 -0.115609
v -0.533854 -0.033627 -0.115609
v -0.426249 0.145230 0.114988
v -0.421062 -0.003300 0.114988
v -0.381516 0.146792 0.114988
v 0.476518 0.176755 -0.115609
v 0.476518 0.176755 0.114988
v -0.421062 -0.003300 -0.115609
v -0.377381 0.028378 0.114988
v -0.377381 0.028378 -0.115609
v 0.480653 0.058341 -0.115609
v 0.480653 0.058341 0.114988
v -0.312592 -0.083995 -0.105817
v -0.312592 -0.083995 0.105817
v -0.346935 -0.055041 -0.105817
v -0.346935 -0.055041 0.105817
v 0.813595 0.099595 -0.111138
v 0.784179 0.078465 0.104157
v 0.784179 0.078465 -0.104157
v 0.813595 0.099595 0.111138
v 0.771399 0.012687 -0.104157
v 0.771399 0.012687 0.104157
v 0.738542 -0.053793 -0.104157
v 0.784179 0.078465 0.104157
v 0.784179 0.078465 -0.104157
v 0.738542 -0.053793 0.104157
v 0.663145 -0.043446 0.104157
v 0.663145 -0.043446 -0.104157
v 0.620318 -0.059127 0.104157
v 0.620318 -0.059127 -0.104157
v 0.564276 -0.074171 0.104157
v 0.564276 -0.074171 -0.104157
v 0.496645 -0.062240 -0.104157
v 0.496645 -0.062240 0.104157
v 0.430600 -0.058043 -0.105817
v 0.430600 -0.058043 0.105817
v 0.406166 -0.108620 -0.105817
v 0.406166 -0.108620 0.105817
v 0.483856 -0.036081 0.105817
v 0.483856 -0.036081 -0.105817
v 0.387346 -0.030722 -0.097010
v 0.406117 -0.099295 0.097010
v 0.406117 -0.099295 -0.097010
v 0.387346 -0.030722 0.097010
v 0.409332 -0.168415 0.097010
v 0.409332 -0.168415 -0.097010
v 0.465879 -0.235672 0.097010
v 0.465879 -0.235672 -0.097010
v 0.486224 -0.304191 0.097010
v 0.486224 -0.304191 -0.097010
v 0.474529 -0.339929 0.097010
v 0.474529 -0.339929 -0.097010
v 0.502304 -0.396684 -0.097010
v 0.502304 -0.396684 0.097010
v 0.500582 -0.444396 -0.097010
v 0.500582 -0.444396 0.097010
v -0.991588 0.206650 0.084672
v 0.473593 0.257815 0.084672
v -0.991588 0.206650 -0.085293
v 0.473593 0.257815 -0.085293
v 0.036813 -0.211186 -0.105817
v -0.048029 -0.202068 0.105817
v -0.048029 -0.202068 -0.105817
v 0.036813 -0.211186 0.105817
v -0.101950 -0.203782 0.105817
v -0.101950 -0.203782 -0.105817
v -0.218015 -0.175140 0.105817
v -0.218015 -0.175140 -0.105817
v -0.301934 -0.192408 0.105817
v -0.301934 -0.192408 -0.105817
v 1.116518 0.217611 -0.125050
v 0.882361 0.126503 -0.125050
v 0.948831 0.211756 -0.125050
v 0.900086 0.190729 -0.125050
v 0.869326 -0.001169 -0.125050
v 0.846334 0.061637 -0.125050
v 0.906430 -0.122255 -0.125050
v 0.858766 -0.065144 -0.125050
v 0.960194 -0.179151 -0.125050
v 1.134266 -0.290623 -0.125050
v 0.982694 -0.237141 -0.125050
v 1.061623 -0.293159 -0.125050
v 1.116518 0.217611 0.125050
v 0.960194 -0.179151 0.125050
v 1.134266 -0.290623 0.125050
v 0.982694 -0.237141 0.125050
v 1.061623 -0.293159 0.125050
v 0.906430 -0.122255 0.125050
v 0.869326 -0.001169 0.125050
v 0.858766 -0.065144 0.125050
v 0.882361 0.126503 0.125050
v 0.846334 0.061637 0.125050
v 0.948831 0.211756 0.125050
v 0.900086 0.190729 0.125050
v 0.080994 -0.115009 0.105817
v 0.080994 -0.115009 -0.105817
v 0.143699 -0.114686 -0.105817
v 0.143699 -0.114686 0.105817
v 0.180167 -0.121717 -0.105817
v 0.180167 -0.121717 0.105817
v 0.406166 -0.108620 -0.105817
v 0.406166 -0.108620 0.105817
v 0.480653 0.058341 -0.115609
v -0.377381 0.028378 -0.115609
v 0.135680 0.073137 -0.115609
v 0.476518 0.176755 -0.115609
v -0.338162 0.056590 -0.115609
v 0.133272 0.142098 -0.115609
v -0.382895 0.055028 -0.115609
v -0.421062 -0.003300 -0.115609
v -0.403034 0.054324 -0.115609
v -0.533854 -0.033627 -0.115609
v -0.405443 0.123285 -0.115609
v -0.648487 -0.011242 -0.115609
v -1.031999 0.124076 -0.115609
v -0.761600 -0.032344 -0.115609
v -0.875910 -0.019184 -0.115609
v -1.028664 0.028581 -0.115609
v -1.026889 -0.022257 -0.115609
v -0.426249 0.145230 0.114988
v -0.533854 -0.033627 0.114988
v -0.403034 0.054324 0.114988
v -0.421062 -0.003300 0.114988
v -0.377381 0.028378 0.114988
v -0.648487 -0.011242 0.114988
v -0.405443 0.123285 0.114988
v 0.135680 0.073137 0.114988
v 0.480653 0.058341 0.114988
v 0.476518 0.176755 0.114988
v 0.133272 0.142098 0.114988
v -0.381516 0.146792 0.114988
v -0.340570 0.125551 0.114988
v -0.385303 0.123989 0.114988
v -1.031999 0.124076 0.114988
v -0.761600 -0.032344 0.114988
v -0.875910 -0.019183 0.114988
v -1.028664 0.028581 0.114988
v -1.026889 -0.022257 0.114988
v 0.491386 0.088343 -0.111138
v 0.485024 0.270528 -0.111138
v 0.566036 0.253256 -0.111138
v 0.571697 0.091147 -0.111138
v 0.658339 0.094173 -0.111138
v 0.662717 0.256632 -0.111138
v 0.748402 0.239521 -0.111138
v 0.789913 0.202100 -0.111138
v 0.813595 0.099595 -0.111138
v 0.830466 0.192131 -0.111138
v 0.789913 0.202100 0.111138
v 0.813595 0.099595 0.111138
v 0.830466 0.192131 0.111138
v 0.658339 0.094173 0.111138
v 0.748402 0.239521 0.111138
v 0.662717 0.256632 0.111138
v 0.566036 0.253256 0.111138
v 0.571697 0.091147 0.111138
v 0.491386 0.088343 0.111138
v 0.485024 0.270528 0.111138
v 0.080994 -0.115009 -0.105817
v -0.350187 0.038077 -0.105817
v 0.480254 0.067076 -0.105817
v -0.312592 -0.083995 -0.105817
v -0.346935 -0.055041 -0.105817
v -0.218015 -0.175140 -0.105817
v -0.320303 -0.138656 -0.105817
v -0.301934 -0.192408 -0.105817
v -0.101950 -0.203782 -0.105817
v -0.048029 -0.202068 -0.105817
v 0.037953 -0.166577 -0.105817
v 0.036813 -0.211186 -0.105817
v 0.143699 -0.114686 -0.105817
v 0.180167 -0.121717 -0.105817
v 0.430600 -0.058043 -0.105817
v 0.483856 -0.036081 -0.105817
v 0.406166 -0.108620 -0.105817
v 0.133272 0.142098 0.114988
v 0.133272 0.142098 -0.115609
v 0.135680 0.073137 -0.115609
v -0.340570 0.125551 0.114988
v 0.135680 0.073137 0.114988
v -0.405443 0.123285 -0.115609
v -0.338162 0.056590 -0.115609
v -0.385303 0.123989 0.114988
v -0.403034 0.054324 0.114988
v -0.405443 0.123285 0.114988
v -0.382895 0.055028 -0.115609
v -0.403034 0.054324 -0.115609
v 0.480254 0.067076 0.105817
v 0.430600 -0.058043 0.105817
v 0.483856 -0.036081 0.105817
v 0.180167 -0.121717 0.105817
v 0.406166 -0.108620 0.105817
v 0.143699 -0.114686 0.105817
v 0.080994 -0.115009 0.105817
v -0.350187 0.038077 0.105817
v -0.346935 -0.055041 0.105817
v -0.312592 -0.083995 0.105817
v -0.218015 -0.175140 0.105817
v -0.320303 -0.138656 0.105817
v -0.301934 -0.192408 0.105817
v -0.101950 -0.203782 0.105817
v -0.048029 -0.202068 0.105817
v 0.037953 -0.166577 0.105817
v 0.036813 -0.211186 0.105817
v 0.659041 0.074095 -0.104157
v 0.620318 -0.059127 -0.104157
v 0.572398 0.071070 -0.104157
v 0.564276 -0.074171 -0.104157
v 0.496645 -0.062240 -0.104157
v 0.492087 0.068265 -0.104157
v 0.663145 -0.043446 -0.104157
v 0.771399 0.012687 -0.104157
v 0.738542 -0.053793 -0.104157
v 0.784179 0.078465 -0.104157
v 0.771399 0.012687 0.104157
v 0.663145 -0.043446 0.104157
v 0.738542 -0.053793 0.104157
v 0.659041 0.074095 0.104157
v 0.784179 0.078465 0.104157
v 0.620318 -0.059127 0.104157
v 0.572398 0.071070 0.104157
v 0.564276 -0.074171 0.104157
v 0.496645 -0.062240 0.104157
v 0.492087 0.068265 0.104157
v 0.406117 -0.099295 -0.097010
v 0.165171 -0.091537 -0.097010
v 0.387346 -0.030722 -0.097010
v 0.165599 -0.185821 -0.097010
v 0.409332 -0.168415 -0.097010
v 0.204047 -0.266903 -0.097010
v 0.241324 -0.296571 -0.097010
v 0.465879 -0.235672 -0.097010
v 0.259582 -0.365162 -0.097010
v 0.486224 -0.304191 -0.097010
v 0.474529 -0.339929 -0.097010
v 0.260309 -0.434369 -0.097010
v 0.502304 -0.396684 -0.097010
v 0.255065 -0.464012 -0.097010
v 0.284932 -0.505343 -0.097010
v 0.500582 -0.444396 -0.097010
v 0.406117 -0.099295 0.097010
v 0.165171 -0.091537 0.097010
v 0.165599 -0.185821 0.097010
v 0.387346 -0.030722 0.097010
v 0.409332 -0.168415 0.097010
v 0.204047 -0.266903 0.097010
v 0.241324 -0.296571 0.097010
v 0.465879 -0.235672 0.097010
v 0.259582 -0.365162 0.097010
v 0.486224 -0.304191 0.097010
v 0.474529 -0.339929 0.097010
v 0.260309 -0.434369 0.097010
v 0.502304 -0.396684 0.097010
v 0.255065 -0.464012 0.097010
v 0.284932 -0.505343 0.097010
v 0.500582 -0.444396 0.097010
v -0.404060 0.083680 -0.085293
v -0.472278 0.165321 -0.085293
v -0.405443 0.123285 -0.085293
v -0.346970 0.169697 -0.085293
v 0.133272 0.142098 -0.085293
v -0.654286 0.158966 -0.085293
v 0.242365 0.190277 -0.085293
v 0.134655 0.102492 -0.085293
v 0.478597 0.114503 -0.085293
v 0.473593 0.257815 -0.085293
v 0.240857 0.233465 -0.085293
v -0.348478 0.212885 -0.085293
v -0.473786 0.208509 -0.085293
v -0.991588 0.206650 -0.085293
v -0.655795 0.202153 -0.085293
v -0.726767 0.199675 -0.085293
v -0.908774 0.193319 -0.085293
v -0.907266 0.150131 -0.085293
v -0.725259 0.156487 -0.085293
v -0.986583 0.063337 -0.085293
v -0.655795 0.202153 0.084672
v -0.725259 0.156487 0.084672
v -0.654286 0.158966 0.084672
v -0.404060 0.083680 0.084672
v -0.472278 0.165321 0.084672
v -0.986583 0.063337 0.084672
v -0.405443 0.123285 0.084672
v -0.907266 0.150131 0.084672
v -0.473786 0.208509 0.084672
v -0.991588 0.206650 0.084672
v -0.726767 0.199675 0.084672
v -0.908774 0.193319 0.084672
v -0.348478 0.212885 0.084672
v 0.473593 0.257815 0.084672
v -0.346970 0.169697 0.084672
v 0.240857 0.233465 0.084672
v 0.133272 0.142098 0.084672
v 0.242365 0.190277 0.084672
v 0.478597 0.114503 0.084672
v 0.134655 0.102492 0.084672
v 0.784179 0.078465 -0.104157
v 0.658339 0.094173 -0.111138
v 0.813595 0.099595 -0.111138
v 0.659041 0.074095 -0.104157
v 0.572398 0.071070 -0.104157
v 0.571697 0.091147 -0.111138
v 0.492087 0.068265 -0.104157
v 0.491386 0.088343 -0.111138
v 0.784179 0.078465 0.104157
v 0.658339 0.094173 0.111138
v 0.659041 0.074095 0.104157
v 0.813595 0.099595 0.111138
v 0.571697 0.091147 0.111138
v 0.572398 0.071070 0.104157
v 0.491386 0.088343 0.111138
v 0.492087 0.068265 0.104157
v -0.350187 0.038077 0.105817
v 0.480254 0.067076 0.105817
v -0.350187 0.038077 -0.105817
v 0.480254 0.067076 -0.105817
v 0.080994 -0.115009 -0.105817
v 0.080994 -0.115009 0.105817
v 0.037953 -0.166577 -0.105817
v 0.037953 -0.166577 0.105817
v 0.036813 -0.211186 -0.105817
v 0.036813 -0.211186 0.105817
v -0.726767 0.199675 0.084672
v -0.726767 0.199675 -0.085293
v -0.725259 0.156487 -0.085293
v -0.725259 0.156487 0.084672
v -0.908774 0.193319 0.084672
v -0.907266 0.150131 0.084672
v -0.908774 0.193319 -0.085293
v -0.907266 0.150131 -0.085293
v -0.472278 0.165321 -0.085293
v -0.472278 0.165321 0.084672
v -0.473786 0.208509 -0.085293
v -0.473786 0.208509 0.084672
v -0.654286 0.158966 0.084672
v -0.655795 0.202153 0.084672
v -0.654286 0.158966 -0.085293
v -0.655795 0.202153 -0.085293
v 0.242365 0.190277 -0.085293
v 0.242365 0.190277 0.084672
v 0.240857 0.233465 -0.085293
v 0.240857 0.233465 0.084672
v -0.346970 0.169697 0.084672
v -0.348478 0.212885 0.084672
v -0.346970 0.169697 -0.085293
v -0.348478 0.212885 -0.085293
v 0.165171 -0.091537 0.097010
v 0.165171 -0.091537 -0.097010
v 0.165599 -0.185821 -0.097010
v 0.165599 -0.185821 0.097010
v 0.204047 -0.266903 -0.097010
v 0.204047 -0.266903 0.097010
v 0.241324 -0.296571 -0.097010
v 0.241324 -0.296571 0.097010
v 0.259582 -0.365162 -0.097010
v 0.259582 -0.365162 0.097010
v 0.260309 -0.434369 -0.097010
v 0.260309 -0.434369 0.097010
v 0.255065 -0.464012 0.097010
v 0.255065 -0.464012 -0.097010
v 0.284932 -0.505343 0.097010
v 0.284932 -0.505343 -0.097010
v -0.404060 0.083680 0.084672
v -0.986583 0.063337 0.084672
v -0.404060 0.083680 -0.085293
v -0.986583 0.063337 -0.085293
v -0.405443 0.123285 -0.085293
v -0.405443 0.123285 0.084672
v 0.133272 0.142098 -0.085293
v 0.133272 0.142098 0.084672
v 0.134655 0.102492 -0.085293
v 0.134655 0.102492 0.084672
v 0.478597 0.114503 -0.085293
v 0.478597 0.114503 0.084672
vn -0.9994 -0.0344 0.0005
vn 0.1545 0.9880 -0.0000
vn 0.2230 -0.9748 -0.0000
vn 0.2230 -0.9748 0.0006
vn 0.1546 0.9880 0.0002
vn -0.1134 -0.9935 0.0005
vn -0.1533 0.9882 0.0005
vn -0.1134 -0.9935 -0.0000
vn -0.1533 0.9882 -0.0000
vn -0.7501 -0.6614 -0.0000
vn -0.6154 0.7882 -0.0000
vn -0.7501 -0.6614 0.0005
vn -0.6154 0.7882 0.0005
vn -0.8339 -0.5519 0.0005
vn -0.9234 0.3839 0.0005
vn -0.8339 -0.5518 0.0005
vn -0.7468 -0.6650 0.0005
vn -0.9949 0.1007 0.0005
vn -0.7470 -0.6649 0.0005
vn -0.9949 0.1005 0.0005
vn -0.9516 -0.3074 -0.0000
vn -0.9952 -0.0978 0.0005
vn -0.9516 -0.3074 0.0005
vn 0.2716 -0.9624 0.0004
vn 0.2717 -0.9624 0.0004
vn 0.5300 0.8480 -0.0000
vn 0.9838 -0.1794 -0.0000
vn 0.5301 0.8479 0.0005
vn 0.3856 0.9227 0.0005
vn 0.3856 0.9227 -0.0000
vn 0.3461 0.9382 0.0005
vn 0.3461 0.9382 -0.0000
vn 0.0565 0.9984 0.0005
vn 0.0566 0.9984 0.0005
vn 0.0596 0.9982 0.0005
vn 0.2088 0.9780 0.0004
vn 0.2085 0.9780 -0.0000
vn -0.9461 -0.3239 0.0004
vn -0.9462 -0.3237 0.0003
vn -0.9902 0.1398 0.0003
vn -0.9901 0.1402 0.0008
vn -0.1684 -0.9857 -0.0000
vn -0.0400 -0.9992 0.0005
vn 0.0354 -0.9994 0.0005
vn -0.1684 -0.9857 0.0005
vn 0.0139 -0.9999 0.0005
vn -0.2231 0.9748 -0.0000
vn -0.2230 0.9748 0.0005
vn -0.0344 0.9994 0.0005
vn 0.3751 -0.9270 -0.0000
vn 0.3751 -0.9270 0.0005
vn 0.1777 -0.9841 -0.0000
vn 0.1777 -0.9841 0.0005
vn -0.6448 -0.7644 0.0004
vn -0.6446 -0.7645 -0.0000
vn 0.5834 -0.8122 -0.0000
vn 0.5833 -0.8122 0.0005
vn 0.9453 -0.3262 0.0005
vn 0.9453 -0.3261 0.0005
vn 0.1087 -0.9941 0.0005
vn 0.9816 -0.1910 0.0005
vn 0.9816 -0.1911 0.0008
vn 0.1086 -0.9941 -0.0000
vn 0.0647 -0.9979 -0.0000
vn 0.0647 -0.9979 0.0005
vn 0.2977 -0.9547 0.0005
vn 0.0393 -0.9992 0.0005
vn -0.1737 -0.9848 -0.0000
vn 0.5719 -0.8203 0.0005
vn 0.5719 -0.8203 -0.0000
vn 0.9004 -0.4350 -0.0000
vn 0.9003 -0.4352 0.0004
vn 0.3808 -0.9247 0.0006
vn 0.3810 -0.9246 0.0002
vn 0.9645 0.2640 -0.0000
vn 0.9876 0.1573 0.0005
vn 0.9876 0.1572 0.0005
vn 0.9646 0.2638 0.0004
vn 0.9165 0.4001 0.0005
vn 0.9165 0.4001 -0.0000
vn 0.8706 0.4921 0.0005
vn 0.9998 -0.0183 0.0005
vn 0.9972 0.0745 0.0005
vn 0.9758 0.2185 0.0005
vn 0.9759 0.2184 0.0005
vn 0.9993 -0.0360 0.0006
vn 0.9993 -0.0360 0.0008
vn -0.1069 -0.9943 -0.0000
vn -0.0301 -0.9995 0.0005
vn -0.1066 -0.9943 0.0004
vn -0.0683 -0.9977 0.0005
vn -0.0683 -0.9977 -0.0000
vn 0.0110 -0.9999 0.0005
vn 0.2015 -0.9795 -0.0000
vn -0.0000 -0.0000 -1.0000
vn 0.0005 0.0005 -1.0000
vn 0.0005 0.0006 -1.0000
vn -0.0000 -0.0000 1.0000
vn 0.0005 0.0005 1.0000
vn 0.0005 0.0006 1.0000
vn 0.0051 -1.0000 0.0003
vn 0.0052 -1.0000 -0.0000
vn -0.0732 -0.9973 0.0005
vn -0.0408 -0.9992 0.0005
vn -0.0409 -0.9992 0.0005
vn 0.0579 -0.9983 0.0005
vn 0.0579 -0.9983 -0.0000
vn -0.1546 -0.9880 0.0007
vn -0.1545 -0.9880 -0.0000
vn -0.2231 0.9748 0.0006
vn -0.2230 0.9748 -0.0000
vn 0.2231 -0.9748 0.0005
vn 0.1546 0.9880 0.0005
vn 0.2231 -0.9748 -0.0000
vn 0.1546 0.9880 -0.0000
vn 0.0117 -0.3283 -0.9445
vn 0.0115 -0.3280 -0.9446
vn 0.0118 -0.3284 -0.9444
vn 0.0115 -0.3280 0.9446
vn 0.0118 -0.3284 0.9445
vn 0.0117 -0.3283 0.9445
vn 0.7677 -0.6408 -0.0000
vn 0.7678 -0.6407 0.0003
vn 0.9176 -0.3975 0.0005
vn 0.9176 -0.3975 -0.0000
vn 0.9997 -0.0252 0.0006
vn -0.1545 -0.9880 0.0003
vn 0.1545 0.9880 0.0005
vn 0.2230 -0.9748 0.0003
vn -0.1545 -0.9880 0.0004
vn -0.2230 0.9748 0.0006
vn -0.1546 -0.9880 -0.0000
vn 0.1545 0.9880 0.0006
vn 0.2230 -0.9748 0.0004
vn -1.0000 -0.0045 -0.0000
vn -0.9730 -0.2310 0.0005
vn -0.7596 -0.6504 -0.0000
vn -0.7595 -0.6505 0.0005
vn -0.8011 -0.5985 -0.0000
vn -0.8011 -0.5986 0.0005
vn -0.9906 -0.1366 0.0005
vn -0.9906 -0.1367 0.0005
vn -0.9966 0.0822 -0.0000
vn -0.9965 0.0831 0.0005
vn -0.9669 -0.2551 0.0005
vn -0.8102 -0.5862 0.0006
vn -0.8102 -0.5862 0.0005
vn 0.2231 -0.9748 0.0004
vn -0.1546 -0.9880 0.0005
vt 0.000000 0.000000
s 1
f 1/1/1 2/1/1 3/1/1
f 2/1/1 4/1/1 3/1/1
f 5/1/2 6/1/3 7/1/4
f 6/1/3 5/1/2 8/1/5
f 7/1/4 6/1/3 9/1/6
f 5/1/2 10/1/7 8/1/5
f 9/1/6 11/1/8 7/1/4
f 10/1/7 12/1/9 8/1/5
f 11/1/8 9/1/6 13/1/10
f 10/1/7 14/1/11 12/1/9
f 13/1/10 9/1/6 15/1/12
f 16/1/13 14/1/11 10/1/7
f 13/1/10 15/1/12 17/1/14
f 14/1/11 16/1/13 18/1/15
f 17/1/14 15/1/12 19/1/16
f 18/1/15 20/1/15 14/1/11
f 17/1/14 19/1/16 21/1/17
f 20/1/15 18/1/15 22/1/18
f 21/1/17 19/1/16 23/1/19
f 22/1/18 24/1/20 20/1/15
f 21/1/17 23/1/19 25/1/21
f 24/1/20 22/1/18 26/1/22
f 25/1/21 23/1/19 27/1/23
f 26/1/22 28/1/22 24/1/20
f 25/1/21 27/1/23 28/1/22
f 28/1/22 26/1/22 25/1/21
f 29/1/24 30/1/24 31/1/24
f 30/1/24 32/1/25 31/1/24
f 33/1/26 34/1/27 35/1/27
f 34/1/27 33/1/26 36/1/28
f 33/1/26 37/1/29 36/1/28
f 37/1/29 33/1/26 38/1/30
f 38/1/30 39/1/31 37/1/29
f 39/1/31 38/1/30 40/1/32
f 39/1/31 40/1/32 41/1/33
f 41/1/33 42/1/34 39/1/31
f 42/1/34 41/1/33 43/1/35
f 43/1/35 44/1/35 42/1/34
f 43/1/35 45/1/36 44/1/35
f 46/1/37 45/1/36 43/1/35
f 47/1/1 48/1/1 49/1/1
f 49/1/1 50/1/1 47/1/1
f 51/1/38 52/1/39 53/1/22
f 53/1/22 52/1/39 54/1/22
f 53/1/22 54/1/22 55/1/40
f 55/1/40 54/1/22 56/1/41
f 57/1/42 58/1/43 59/1/43
f 58/1/43 60/1/44 59/1/43
f 57/1/42 59/1/43 61/1/45
f 62/1/44 60/1/44 58/1/43
f 57/1/42 61/1/45 63/1/1
f 62/1/44 64/1/46 60/1/44
f 63/1/1 65/1/1 57/1/42
f 66/1/46 64/1/46 62/1/44
f 65/1/1 63/1/1 67/1/47
f 66/1/46 68/1/44 64/1/46
f 67/1/47 69/1/48 65/1/1
f 70/1/44 68/1/44 66/1/46
f 71/1/49 69/1/48 67/1/47
f 70/1/44 72/1/50 68/1/44
f 73/1/49 69/1/48 71/1/49
f 74/1/49 69/1/48 73/1/49
f 74/1/49 73/1/49 75/1/49
f 76/1/51 72/1/50 70/1/44
f 76/1/51 77/1/52 72/1/50
f 78/1/53 77/1/52 76/1/51
f 78/1/53 79/1/44 77/1/52
f 80/1/44 77/1/52 79/1/44
f 81/1/54 82/1/55 83/1/55
f 83/1/55 82/1/55 84/1/54
f 85/1/56 86/1/56 87/1/57
f 86/1/56 85/1/56 88/1/56
f 89/1/58 90/1/59 91/1/60
f 89/1/58 92/1/61 90/1/59
f 93/1/62 92/1/61 89/1/58
f 91/1/60 90/1/59 94/1/63
f 91/1/60 94/1/63 95/1/64
f 95/1/64 96/1/65 91/1/60
f 96/1/65 95/1/64 97/1/66
f 97/1/66 98/1/66 96/1/65
f 98/1/66 97/1/66 99/1/67
f 99/1/67 100/1/67 98/1/66
f 100/1/67 99/1/67 101/1/68
f 101/1/68 99/1/67 102/1/68
f 103/1/69 104/1/70 105/1/71
f 105/1/71 104/1/70 106/1/72
f 103/1/69 107/1/73 104/1/70
f 107/1/73 103/1/69 108/1/74
f 109/1/75 110/1/76 111/1/77
f 110/1/76 109/1/75 112/1/78
f 113/1/79 111/1/77 110/1/76
f 111/1/77 113/1/79 114/1/80
f 115/1/81 114/1/80 113/1/79
f 114/1/80 115/1/81 116/1/81
f 117/1/82 116/1/81 115/1/81
f 116/1/81 117/1/82 118/1/82
f 119/1/83 118/1/82 117/1/82
f 118/1/82 119/1/83 120/1/83
f 120/1/83 119/1/83 121/1/84
f 121/1/84 119/1/83 122/1/85
f 121/1/84 122/1/85 123/1/86
f 123/1/86 122/1/85 124/1/87
f 125/1/49 126/1/49 127/1/49
f 128/1/49 127/1/49 126/1/49
f 129/1/88 130/1/89 131/1/89
f 130/1/89 129/1/88 132/1/90
f 133/1/91 131/1/89 130/1/89
f 131/1/89 133/1/91 134/1/92
f 135/1/93 134/1/92 133/1/91
f 134/1/92 135/1/93 136/1/93
f 137/1/94 136/1/93 135/1/93
f 136/1/93 137/1/94 138/1/94
f 139/1/95 140/1/96 141/1/96
f 141/1/96 140/1/96 142/1/96
f 140/1/96 139/1/95 143/1/96
f 140/1/96 143/1/96 144/1/96
f 139/1/95 145/1/96 143/1/96
f 143/1/96 145/1/96 146/1/97
f 145/1/96 139/1/95 147/1/96
f 147/1/96 139/1/95 148/1/96
f 147/1/96 148/1/96 149/1/96
f 149/1/96 148/1/96 150/1/97
f 151/1/98 152/1/99 153/1/99
f 154/1/99 153/1/99 152/1/99
f 153/1/99 154/1/99 155/1/100
f 151/1/98 156/1/99 152/1/99
f 156/1/99 151/1/98 157/1/99
f 156/1/99 157/1/99 158/1/99
f 157/1/99 151/1/98 159/1/99
f 157/1/99 159/1/99 160/1/100
f 159/1/99 151/1/98 161/1/99
f 159/1/99 161/1/99 162/1/99
f 163/1/101 164/1/102 165/1/103
f 165/1/103 166/1/103 163/1/101
f 166/1/103 165/1/103 167/1/104
f 167/1/104 168/1/105 166/1/103
f 167/1/104 169/1/106 168/1/105
f 169/1/106 170/1/107 168/1/105
f 171/1/96 172/1/96 173/1/96
f 173/1/96 174/1/96 171/1/96
f 175/1/96 173/1/96 172/1/96
f 174/1/96 173/1/96 176/1/96
f 177/1/96 175/1/96 172/1/96
f 178/1/96 177/1/96 172/1/96
f 177/1/96 178/1/96 179/1/96
f 179/1/96 178/1/96 180/1/96
f 181/1/95 174/1/96 176/1/96
f 180/1/96 181/1/95 179/1/96
f 181/1/95 180/1/96 182/1/96
f 174/1/96 181/1/95 183/1/95
f 182/1/96 183/1/95 181/1/95
f 184/1/96 183/1/95 182/1/96
f 183/1/95 184/1/96 185/1/96
f 183/1/95 185/1/96 186/1/96
f 186/1/96 185/1/96 187/1/96
f 188/1/98 189/1/99 190/1/98
f 191/1/99 190/1/98 189/1/99
f 190/1/98 191/1/99 192/1/99
f 189/1/99 188/1/98 193/1/99
f 188/1/98 190/1/98 194/1/99
f 195/1/99 190/1/98 192/1/99
f 192/1/99 196/1/99 195/1/99
f 197/1/99 195/1/99 196/1/99
f 195/1/99 197/1/99 198/1/99
f 197/1/99 199/1/99 198/1/99
f 198/1/99 199/1/99 200/1/99
f 200/1/99 199/1/99 201/1/99
f 201/1/99 188/1/98 194/1/99
f 199/1/99 188/1/98 201/1/99
f 202/1/99 193/1/99 188/1/98
f 193/1/99 202/1/99 203/1/99
f 202/1/99 204/1/99 203/1/99
f 204/1/99 202/1/99 205/1/99
f 205/1/99 206/1/99 204/1/99
f 207/1/96 208/1/96 209/1/96
f 209/1/96 210/1/96 207/1/96
f 209/1/96 211/1/95 210/1/96
f 212/1/96 211/1/95 209/1/96
f 213/1/96 211/1/95 212/1/96
f 214/1/96 211/1/95 213/1/96
f 211/1/95 214/1/96 215/1/96
f 216/1/96 215/1/96 214/1/96
f 217/1/99 218/1/99 219/1/99
f 218/1/99 217/1/99 220/1/98
f 221/1/99 220/1/98 217/1/99
f 220/1/98 221/1/99 222/1/99
f 220/1/98 222/1/99 223/1/99
f 220/1/98 223/1/99 224/1/99
f 223/1/99 225/1/99 224/1/99
f 225/1/99 223/1/99 226/1/99
f 227/1/95 228/1/96 229/1/95
f 228/1/96 230/1/96 231/1/96
f 230/1/96 228/1/96 227/1/95
f 227/1/95 232/1/96 230/1/96
f 233/1/96 230/1/96 232/1/96
f 233/1/96 232/1/96 234/1/96
f 232/1/96 227/1/95 235/1/96
f 227/1/95 236/1/96 235/1/96
f 236/1/96 227/1/95 237/1/96
f 237/1/96 238/1/96 236/1/96
f 227/1/95 229/1/95 239/1/96
f 229/1/95 240/1/96 239/1/96
f 240/1/96 229/1/95 241/1/96
f 241/1/96 229/1/95 242/1/96
f 240/1/96 241/1/96 243/1/96
f 244/1/108 245/1/109 246/1/110
f 247/1/44 245/1/109 244/1/108
f 246/1/110 248/1/111 244/1/108
f 245/1/109 247/1/44 249/1/112
f 250/1/49 248/1/111 246/1/110
f 249/1/112 247/1/44 251/1/44
f 250/1/49 252/1/113 248/1/111
f 249/1/112 251/1/44 253/1/114
f 252/1/113 250/1/49 254/1/49
f 249/1/112 253/1/114 255/1/115
f 255/1/115 253/1/114 252/1/113
f 255/1/115 252/1/113 254/1/49
f 256/1/98 257/1/99 258/1/99
f 256/1/98 259/1/99 257/1/99
f 259/1/99 260/1/99 257/1/99
f 259/1/99 256/1/98 261/1/99
f 256/1/98 262/1/98 261/1/99
f 262/1/98 256/1/98 263/1/99
f 263/1/99 264/1/99 265/1/99
f 265/1/99 262/1/98 263/1/99
f 262/1/98 265/1/99 266/1/99
f 265/1/99 267/1/99 266/1/99
f 266/1/99 267/1/99 268/1/99
f 262/1/98 266/1/99 269/1/99
f 262/1/98 269/1/99 270/1/99
f 262/1/98 270/1/99 271/1/99
f 270/1/99 272/1/99 271/1/99
f 273/1/96 274/1/96 275/1/96
f 275/1/96 274/1/96 276/1/96
f 275/1/96 276/1/96 277/1/96
f 277/1/96 278/1/96 275/1/96
f 274/1/96 273/1/96 279/1/96
f 273/1/96 280/1/96 279/1/96
f 279/1/96 280/1/96 281/1/96
f 280/1/96 273/1/96 282/1/96
f 283/1/99 284/1/99 285/1/99
f 286/1/99 284/1/99 283/1/99
f 286/1/99 283/1/99 287/1/99
f 286/1/99 288/1/99 284/1/99
f 288/1/99 286/1/99 289/1/99
f 288/1/99 289/1/99 290/1/99
f 290/1/99 289/1/99 291/1/99
f 291/1/99 289/1/99 292/1/99
f 293/1/96 294/1/96 295/1/96
f 294/1/96 293/1/96 296/1/96
f 296/1/96 293/1/96 297/1/96
f 296/1/96 297/1/96 298/1/96
f 297/1/96 299/1/96 298/1/96
f 299/1/96 297/1/96 300/1/96
f 300/1/96 301/1/96 299/1/96
f 301/1/96 300/1/96 302/1/96
f 301/1/96 302/1/96 303/1/96
f 301/1/96 303/1/96 304/1/96
f 305/1/96 304/1/96 303/1/96
f 304/1/96 305/1/96 306/1/96
f 306/1/96 305/1/96 307/1/96
f 308/1/97 307/1/96 305/1/96
f 309/1/99 310/1/99 311/1/99
f 310/1/99 309/1/99 312/1/99
f 311/1/99 313/1/99 309/1/99
f 313/1/99 311/1/99 314/1/99
f 313/1/99 314/1/99 315/1/99
f 313/1/99 315/1/99 316/1/99
f 317/1/99 316/1/99 315/1/99
f 316/1/99 317/1/99 318/1/99
f 317/1/99 319/1/99 318/1/99
f 319/1/99 317/1/99 320/1/99
f 319/1/99 320/1/99 321/1/99
f 321/1/99 320/1/99 322/1/99
f 323/1/99 321/1/99 322/1/99
f 321/1/99 323/1/99 324/1/100
f 325/1/96 326/1/95 327/1/96
f 328/1/96 327/1/96 326/1/95
f 329/1/96 327/1/96 328/1/96
f 326/1/95 325/1/96 330/1/96
f 328/1/96 331/1/95 329/1/96
f 329/1/96 331/1/95 332/1/96
f 332/1/96 331/1/95 333/1/96
f 331/1/95 334/1/96 333/1/96
f 334/1/96 331/1/95 335/1/96
f 326/1/95 336/1/95 328/1/96
f 336/1/95 334/1/96 335/1/96
f 336/1/95 326/1/95 337/1/96
f 336/1/95 338/1/95 334/1/96
f 337/1/96 338/1/95 336/1/95
f 339/1/96 338/1/95 337/1/96
f 338/1/95 339/1/96 340/1/96
f 338/1/95 340/1/96 341/1/96
f 342/1/96 338/1/95 341/1/96
f 340/1/96 339/1/96 343/1/95
f 338/1/95 342/1/96 344/1/96
f 344/1/96 342/1/96 343/1/95
f 343/1/95 339/1/96 330/1/96
f 343/1/95 325/1/96 344/1/96
f 325/1/96 343/1/95 330/1/96
f 345/1/99 346/1/98 347/1/99
f 346/1/98 348/1/99 347/1/99
f 348/1/99 349/1/99 347/1/99
f 346/1/98 350/1/99 348/1/99
f 351/1/98 349/1/99 348/1/99
f 350/1/99 346/1/98 352/1/99
f 349/1/99 351/1/98 353/1/99
f 350/1/99 352/1/99 354/1/98
f 355/1/99 346/1/98 345/1/99
f 345/1/99 354/1/98 355/1/99
f 354/1/98 345/1/99 353/1/99
f 354/1/98 356/1/99 355/1/99
f 356/1/99 354/1/98 352/1/99
f 354/1/98 353/1/99 357/1/98
f 351/1/98 357/1/98 353/1/99
f 357/1/98 358/1/99 354/1/98
f 357/1/98 351/1/98 359/1/99
f 358/1/99 357/1/98 360/1/99
f 351/1/98 361/1/99 359/1/99
f 362/1/98 358/1/99 360/1/99
f 362/1/98 359/1/99 361/1/99
f 358/1/99 362/1/98 363/1/99
f 362/1/98 361/1/99 364/1/99
f 364/1/99 363/1/99 362/1/98
f 365/1/116 366/1/117 367/1/116
f 366/1/117 365/1/116 368/1/117
f 368/1/117 369/1/117 366/1/117
f 370/1/116 366/1/117 369/1/117
f 369/1/117 371/1/117 370/1/116
f 372/1/118 370/1/116 371/1/117
f 373/1/119 374/1/119 375/1/119
f 376/1/120 374/1/119 373/1/119
f 377/1/119 375/1/119 374/1/119
f 375/1/119 377/1/119 378/1/121
f 379/1/119 378/1/121 377/1/119
f 378/1/121 379/1/119 380/1/120
f 381/1/49 382/1/49 383/1/49
f 384/1/49 383/1/49 382/1/49
f 385/1/122 386/1/123 387/1/124
f 387/1/124 386/1/123 388/1/125
f 388/1/125 389/1/126 387/1/124
f 389/1/126 388/1/125 390/1/126
f 391/1/127 392/1/109 393/1/48
f 393/1/48 394/1/111 391/1/127
f 392/1/109 391/1/127 395/1/3
f 393/1/48 396/1/128 394/1/111
f 397/1/129 392/1/109 395/1/3
f 393/1/48 398/1/2 396/1/128
f 397/1/129 395/1/3 398/1/2
f 398/1/2 395/1/3 396/1/128
f 399/1/48 400/1/111 401/1/109
f 401/1/109 400/1/111 402/1/130
f 399/1/48 403/1/128 400/1/111
f 401/1/109 402/1/130 404/1/3
f 399/1/48 405/1/2 403/1/128
f 405/1/2 404/1/3 403/1/128
f 406/1/129 401/1/109 404/1/3
f 406/1/129 404/1/3 405/1/2
f 407/1/131 408/1/111 409/1/132
f 409/1/132 408/1/111 410/1/130
f 407/1/131 411/1/133 408/1/111
f 410/1/130 412/1/114 409/1/132
f 407/1/131 413/1/2 411/1/133
f 413/1/2 412/1/114 411/1/133
f 414/1/134 412/1/114 413/1/2
f 414/1/134 409/1/132 412/1/114
f 415/1/135 416/1/135 417/1/136
f 417/1/136 418/1/136 415/1/135
f 418/1/136 417/1/136 419/1/137
f 419/1/137 420/1/138 418/1/136
f 420/1/138 419/1/137 421/1/139
f 421/1/139 422/1/140 420/1/138
f 422/1/140 421/1/139 423/1/141
f 423/1/141 424/1/142 422/1/140
f 424/1/142 423/1/141 425/1/143
f 425/1/143 426/1/144 424/1/142
f 425/1/143 427/1/145 426/1/144
f 428/1/145 427/1/145 425/1/143
f 428/1/145 429/1/146 427/1/145
f 429/1/146 428/1/145 430/1/147
f 431/1/114 432/1/44 433/1/112
f 434/1/44 433/1/112 432/1/44
f 435/1/148 431/1/114 433/1/112
f 431/1/114 435/1/148 436/1/3
f 435/1/148 437/1/109 436/1/3
f 438/1/149 436/1/3 437/1/109
f 438/1/149 437/1/109 439/1/132
f 439/1/132 440/1/149 438/1/149
f 441/1/44 440/1/149 439/1/132
f 440/1/149 441/1/44 442/1/44
