# Blender 5.1.2
# www.blender.org
mtllib famas mag perfect.mtl
o famas_mag_perfect
v 0.374292 0.260725 0.059047
v 0.384301 0.139124 -0.059047
v 0.374292 0.260725 -0.059047
v 0.384301 0.139124 0.059047
v 0.374292 0.021178 -0.059047
v 0.374292 0.021178 0.059047
v 0.334252 -0.090217 -0.059047
v 0.334252 -0.090217 0.059047
v 0.284204 -0.195059 -0.059047
v 0.284204 -0.195059 0.059047
v 0.214257 -0.296248 -0.059047
v 0.214257 -0.296248 0.059047
v 0.224267 -0.356065 0.074819
v 0.224267 -0.356065 -0.074819
v 0.214257 -0.420440 0.074819
v 0.214257 -0.420440 -0.074819
v 0.224267 -0.356065 -0.074819
v 0.224267 -0.356065 0.074819
v 0.374292 0.260725 -0.059047
v 0.024194 0.364233 -0.059047
v 0.024194 0.364233 0.059047
v 0.374292 0.260725 0.059047
v -0.135718 -0.192741 0.059047
v -0.135718 -0.192741 -0.059047
v -0.195777 -0.231857 -0.074819
v -0.195777 -0.231857 0.074819
v 0.214257 -0.420440 0.074819
v -0.195777 -0.231857 0.074819
v -0.215796 -0.296231 0.074819
v 0.224267 -0.356065 0.074819
v 0.024194 0.242631 0.059047
v 0.374292 0.260725 0.059047
v 0.024194 0.364233 0.059047
v 0.384301 0.139124 0.059047
v 0.014306 0.124684 0.059047
v 0.374292 0.021178 0.059047
v 0.334252 -0.090217 0.059047
v -0.015723 0.013290 0.059047
v 0.284204 -0.195059 0.059047
v -0.075782 -0.091552 0.059047
v 0.214257 -0.296248 0.059047
v -0.135718 -0.192741 0.059047
v 0.224267 -0.356065 0.074819
v -0.195777 -0.231857 0.074819
v -0.215796 -0.296231 -0.074819
v -0.195777 -0.231857 0.074819
v -0.195777 -0.231857 -0.074819
v -0.215796 -0.296231 0.074819
v 0.024194 0.364233 -0.059047
v 0.024194 0.242631 -0.059047
v 0.024194 0.242631 0.059047
v 0.024194 0.364233 0.059047
v 0.014306 0.124684 0.059047
v 0.014306 0.124684 -0.059047
v -0.015723 0.013290 0.059047
v -0.015723 0.013290 -0.059047
v -0.075782 -0.091552 0.059047
v -0.075782 -0.091552 -0.059047
v -0.135718 -0.192741 0.059047
v -0.135718 -0.192741 -0.059047
v -0.215796 -0.296231 -0.074819
v 0.214257 -0.420440 -0.074819
v 0.214257 -0.420440 0.074819
v -0.215796 -0.296231 0.074819
v 0.214257 -0.420440 -0.074819
v -0.195777 -0.231857 -0.074819
v 0.224267 -0.356065 -0.074819
v -0.215796 -0.296231 -0.074819
v 0.374292 0.260725 -0.059047
v 0.024194 0.242631 -0.059047
v 0.024194 0.364233 -0.059047
v 0.384301 0.139124 -0.059047
v 0.014306 0.124684 -0.059047
v 0.374292 0.021178 -0.059047
v 0.334252 -0.090217 -0.059047
v -0.015723 0.013290 -0.059047
v 0.284204 -0.195059 -0.059047
v -0.075782 -0.091552 -0.059047
v 0.214257 -0.296248 -0.059047
v -0.135718 -0.192741 -0.059047
v 0.224267 -0.356065 -0.074819
v -0.195777 -0.231857 -0.074819
v 0.334252 0.249585 -0.066933
v 0.334252 0.249585 0.066933
v 0.334252 0.146136 -0.066933
v 0.334252 0.146136 0.066933
v 0.324243 0.032508 -0.066933
v 0.324243 0.032508 0.066933
v 0.294213 -0.074947 -0.066933
v 0.294213 -0.074947 0.066933
v 0.244287 -0.176226 -0.066933
v 0.244287 -0.176226 0.066933
v 0.184228 -0.261593 -0.066933
v 0.184228 -0.261593 0.066933
v 0.214257 0.283433 -0.066933
v 0.214257 0.283433 0.066933
v 0.214257 0.179985 -0.066933
v 0.214257 0.179985 0.066933
v 0.204248 0.066356 -0.066933
v 0.204248 0.066356 0.066933
v 0.174218 -0.041098 -0.066933
v 0.174218 -0.041098 0.066933
v 0.124292 -0.142378 -0.066933
v 0.124292 -0.142378 0.066933
v 0.064233 -0.227745 -0.066933
v 0.064233 -0.227745 0.066933
v 0.094262 0.317282 -0.066933
v 0.094262 0.317282 0.066933
v 0.104272 0.213833 -0.066933
v 0.104272 0.213833 0.066933
v 0.094262 0.100204 -0.066933
v 0.094262 0.100204 0.066933
v 0.064233 -0.007250 -0.066933
v 0.064233 -0.007250 0.066933
v 0.004296 -0.108530 -0.066933
v 0.004296 -0.108530 0.066933
v -0.045752 -0.193897 -0.066933
v -0.045752 -0.193897 0.066933
v 0.184228 0.292642 -0.066933
v 0.184228 0.292642 0.066933
v 0.214257 0.283433 -0.066933
v 0.214257 0.283433 0.066933
v 0.294213 0.258793 -0.066933
v 0.294213 0.258793 0.066933
v 0.334252 0.249585 -0.066933
v 0.334252 0.249585 0.066933
v 0.064233 0.326490 -0.066933
v 0.064233 0.326490 0.066933
v 0.094262 0.317282 -0.066933
v 0.094262 0.317282 0.066933
v 0.184228 0.189193 0.066933
v 0.214257 0.283433 0.066933
v 0.184228 0.292642 0.066933
v 0.214257 0.179985 0.066933
v 0.174218 0.075564 0.066933
v 0.204248 0.066356 0.066933
v 0.174218 -0.041098 0.066933
v 0.144189 -0.031890 0.066933
v 0.124292 -0.142378 0.066933
v 0.094262 -0.133170 0.066933
v 0.064233 -0.227745 0.066933
v 0.034204 -0.218537 0.066933
v 0.304223 0.155345 0.066933
v 0.334252 0.249585 0.066933
v 0.294213 0.258793 0.066933
v 0.334252 0.146136 0.066933
v 0.294213 0.041716 0.066933
v 0.324243 0.032508 0.066933
v 0.264306 -0.065738 0.066933
v 0.294213 -0.074947 0.066933
v 0.244287 -0.176226 0.066933
v 0.204248 -0.167018 0.066933
v 0.184228 -0.261593 0.066933
v 0.154199 -0.252385 0.066933
v 0.074243 0.223041 0.066933
v 0.094262 0.317282 0.066933
v 0.064233 0.326490 0.066933
v 0.104272 0.213833 0.066933
v 0.064233 0.109413 0.066933
v 0.094262 0.100204 0.066933
v 0.024194 0.001958 0.066933
v 0.064233 -0.007250 0.066933
v 0.004296 -0.108530 0.066933
v -0.025733 -0.099322 0.066933
v -0.045752 -0.193897 0.066933
v -0.085791 -0.184689 0.066933
v 0.064233 0.326490 -0.066933
v 0.074243 0.223041 -0.066933
v 0.074243 0.223041 0.066933
v 0.064233 0.326490 0.066933
v 0.064233 0.109413 0.066933
v 0.064233 0.109413 -0.066933
v 0.024194 0.001958 0.066933
v 0.024194 0.001958 -0.066933
v -0.025733 -0.099322 0.066933
v -0.025733 -0.099322 -0.066933
v -0.085791 -0.184689 0.066933
v -0.085791 -0.184689 -0.066933
v 0.184228 0.292642 -0.066933
v 0.184228 0.189193 -0.066933
v 0.184228 0.189193 0.066933
v 0.184228 0.292642 0.066933
v 0.174218 0.075564 0.066933
v 0.174218 0.075564 -0.066933
v 0.144189 -0.031890 0.066933
v 0.144189 -0.031890 -0.066933
v 0.094262 -0.133170 0.066933
v 0.094262 -0.133170 -0.066933
v 0.034204 -0.218537 0.066933
v 0.034204 -0.218537 -0.066933
v 0.294213 0.258793 -0.066933
v 0.304223 0.155345 -0.066933
v 0.304223 0.155345 0.066933
v 0.294213 0.258793 0.066933
v 0.294213 0.041716 0.066933
v 0.294213 0.041716 -0.066933
v 0.264306 -0.065738 0.066933
v 0.264306 -0.065738 -0.066933
v 0.204248 -0.167018 0.066933
v 0.204248 -0.167018 -0.066933
v 0.154199 -0.252385 0.066933
v 0.154199 -0.252385 -0.066933
v 0.064233 -0.227745 -0.066933
v 0.064233 -0.227745 0.066933
v 0.034204 -0.218537 -0.066933
v 0.034204 -0.218537 0.066933
v 0.184228 -0.261593 -0.066933
v 0.184228 -0.261593 0.066933
v 0.154199 -0.252385 -0.066933
v 0.154199 -0.252385 0.066933
v -0.045752 -0.193897 -0.066933
v -0.045752 -0.193897 0.066933
v -0.085791 -0.184689 -0.066933
v -0.085791 -0.184689 0.066933
v 0.214257 0.283433 -0.066933
v 0.184228 0.189193 -0.066933
v 0.184228 0.292642 -0.066933
v 0.214257 0.179985 -0.066933
v 0.174218 0.075564 -0.066933
v 0.204248 0.066356 -0.066933
v 0.174218 -0.041098 -0.066933
v 0.144189 -0.031890 -0.066933
v 0.124292 -0.142378 -0.066933
v 0.094262 -0.133170 -0.066933
v 0.064233 -0.227745 -0.066933
v 0.034204 -0.218537 -0.066933
v 0.334252 0.249585 -0.066933
v 0.304223 0.155345 -0.066933
v 0.294213 0.258793 -0.066933
v 0.334252 0.146136 -0.066933
v 0.294213 0.041716 -0.066933
v 0.324243 0.032508 -0.066933
v 0.264306 -0.065738 -0.066933
v 0.294213 -0.074947 -0.066933
v 0.244287 -0.176226 -0.066933
v 0.204248 -0.167018 -0.066933
v 0.184228 -0.261593 -0.066933
v 0.154199 -0.252385 -0.066933
v 0.094262 0.317282 -0.066933
v 0.074243 0.223041 -0.066933
v 0.064233 0.326490 -0.066933
v 0.104272 0.213833 -0.066933
v 0.064233 0.109413 -0.066933
v 0.094262 0.100204 -0.066933
v 0.024194 0.001958 -0.066933
v 0.064233 -0.007250 -0.066933
v 0.004296 -0.108530 -0.066933
v -0.025733 -0.099322 -0.066933
v -0.045752 -0.193897 -0.066933
v -0.085791 -0.184689 -0.066933
vn 0.9997 0.0236 -0.0000
vn 0.9995 -0.0315 -0.0000
vn 0.9821 -0.1886 -0.0000
vn 0.9821 -0.1885 -0.0000
vn 0.9263 -0.3768 -0.0000
vn 0.8589 -0.5122 -0.0000
vn 0.9835 -0.1808 -0.0000
vn 0.9754 0.2203 -0.0000
vn 0.9591 -0.2830 -0.0000
vn 0.2832 0.9591 -0.0000
vn 0.2835 0.9590 -0.0000
vn -0.5601 0.8284 -0.0000
vn -0.6750 0.7378 -0.0000
vn -0.5602 0.8284 -0.0000
vn -0.0000 -0.0000 1.0000
vn 0.0436 0.1433 0.9887
vn 0.0250 0.0810 0.9964
vn 0.0629 0.2141 0.9748
vn -0.9591 0.2830 -0.0000
vn -0.9997 -0.0236 -0.0000
vn -0.9995 0.0315 -0.0000
vn -0.9821 0.1886 -0.0000
vn -0.9821 0.1885 -0.0000
vn -0.9263 0.3768 -0.0000
vn -0.8589 0.5122 -0.0000
vn -0.6752 0.7377 -0.0000
vn -0.2830 -0.9591 -0.0000
vn -0.0000 -0.0000 -1.0000
vn 0.0436 0.1433 -0.9887
vn 0.0249 0.0810 -0.9964
vn 0.0629 0.2140 -0.9748
vn 0.0629 0.2141 -0.9748
vn 0.9995 0.0315 -0.0000
vn 0.8247 -0.5655 -0.0000
vn 0.9995 -0.0314 -0.0000
vn 0.2830 0.9591 -0.0000
vn -0.9995 -0.0315 -0.0000
vn -0.9820 0.1886 -0.0000
vn -0.8247 0.5655 -0.0000
vn -0.8589 0.5121 -0.0000
vn -0.8248 0.5655 -0.0000
vt 39.923100 -16.711201
vt 40.076900 -16.832800
vt 40.076900 -16.711201
vt 39.923100 -16.832800
vt 40.076900 -16.950701
vt 39.923100 -16.950701
vt 40.076900 -17.062099
vt 39.923100 -17.062099
vt 40.076900 -17.167000
vt 39.923100 -17.167000
vt 40.076900 -17.268101
vt 39.923100 -17.268101
vt 39.907700 -17.327999
vt 40.092300 -17.327999
vt 39.907700 -17.392300
vt 40.092300 -17.392300
vt 39.704498 -17.076900
vt 40.058899 -17.076900
vt 40.058899 -16.923100
vt 39.704498 -16.923100
vt 40.278999 -17.092300
vt 40.221600 -16.923100
vt 40.221600 -17.076900
vt 40.278999 -16.907700
vt 40.127399 -17.392300
vt 39.721001 -17.203800
vt 39.702099 -17.268101
vt 40.146198 -17.327999
vt 39.943501 -16.729300
vt 40.295502 -16.711201
vt 39.941101 -16.607700
vt 40.297901 -16.832800
vt 39.933399 -16.847200
vt 40.287800 -16.950701
vt 40.255199 -17.062099
vt 39.900902 -16.958599
vt 40.200298 -17.167000
vt 39.845901 -17.063400
vt 40.132801 -17.268101
vt 39.778400 -17.164600
vt 39.907700 -17.268101
vt 40.092300 -17.203800
vt 39.907700 -17.203800
vt 40.092300 -17.268101
vt 39.923100 -16.607700
vt 39.923100 -16.729300
vt 40.076900 -16.729300
vt 40.076900 -16.607700
vt 40.076900 -16.847200
vt 39.923100 -16.847200
vt 40.076900 -16.958599
vt 39.923100 -16.958599
vt 40.076900 -17.063400
vt 39.923100 -17.063400
vt 40.076900 -17.164600
vt 39.923100 -17.164600
vt 39.702099 -17.092300
vt 40.127399 -17.092300
vt 40.127399 -16.907700
vt 39.702099 -16.907700
vt 39.872601 -17.392300
vt 40.278999 -17.203800
vt 39.853802 -17.327999
vt 40.297901 -17.268101
vt 39.704498 -16.711201
vt 40.056499 -16.729300
vt 40.058899 -16.607700
vt 39.702099 -16.832800
vt 40.066601 -16.847200
vt 39.712200 -16.950701
vt 39.744801 -17.062099
vt 40.099098 -16.958599
vt 39.799702 -17.167000
vt 40.154099 -17.063400
vt 39.867199 -17.268101
vt 40.221600 -17.164600
vt 12.082100 -22.782900
vt 11.917900 -22.782900
vt 12.082100 -22.886299
vt 11.917900 -22.886299
vt 12.082100 -22.999901
vt 11.917900 -22.999901
vt 12.082100 -23.107401
vt 11.917900 -23.107401
vt 12.082100 -23.208700
vt 11.917900 -23.208700
vt 12.082100 -23.294001
vt 11.917900 -23.294001
vt 12.082100 -22.749001
vt 11.917900 -22.749001
vt 12.082100 -22.852501
vt 11.917900 -22.852501
vt 12.082100 -22.966101
vt 11.917900 -22.966101
vt 12.082100 -23.073500
vt 11.917900 -23.073500
vt 12.082100 -23.174801
vt 11.917900 -23.174801
vt 12.082100 -23.260201
vt 11.917900 -23.260201
vt 12.082100 -22.715200
vt 11.917900 -22.715200
vt 12.082100 -22.818600
vt 11.917900 -22.818600
vt 12.082100 -22.932199
vt 11.917900 -22.932199
vt 12.082100 -23.039700
vt 11.917900 -23.039700
vt 12.082100 -23.141001
vt 11.917900 -23.141001
vt 12.082100 -23.226299
vt 11.917900 -23.226299
vt 11.942800 -23.082100
vt 11.942800 -22.917900
vt 11.911300 -23.082100
vt 11.911300 -22.917900
vt 11.826900 -23.082100
vt 11.826900 -22.917900
vt 11.795400 -23.082100
vt 11.795400 -22.917900
vt 12.058700 -23.082100
vt 12.058700 -22.917900
vt 12.027200 -23.082100
vt 12.027200 -22.917900
vt 12.060600 -22.843300
vt 12.088700 -22.749001
vt 12.057200 -22.739799
vt 12.092100 -22.852501
vt 12.050300 -22.956900
vt 12.081900 -22.966101
vt 12.050500 -23.073500
vt 12.018900 -23.064301
vt 11.997900 -23.174801
vt 11.966400 -23.165600
vt 11.939400 -23.260201
vt 11.907900 -23.250999
vt 12.176500 -22.877100
vt 12.204600 -22.782900
vt 12.173100 -22.773701
vt 12.208000 -22.886299
vt 12.166200 -22.990700
vt 12.197700 -22.999901
vt 12.134800 -23.098200
vt 12.166400 -23.107401
vt 12.113800 -23.208700
vt 12.082300 -23.199499
vt 12.055300 -23.294001
vt 12.023800 -23.284800
vt 11.944700 -22.809401
vt 11.972800 -22.715200
vt 11.941300 -22.705999
vt 11.976200 -22.818600
vt 11.934400 -22.923000
vt 11.966000 -22.932199
vt 11.903100 -23.030500
vt 11.934600 -23.039700
vt 11.882100 -23.141001
vt 11.850500 -23.131800
vt 11.823500 -23.226299
vt 11.792000 -23.217100
vt 11.917900 -22.705999
vt 11.917900 -22.809401
vt 12.082100 -22.809401
vt 12.082100 -22.705999
vt 12.082100 -22.923000
vt 11.917900 -22.923000
vt 12.082100 -23.030500
vt 11.917900 -23.030500
vt 12.082100 -23.131800
vt 11.917900 -23.131800
vt 12.082100 -23.217100
vt 11.917900 -23.217100
vt 11.917900 -22.739799
vt 11.917900 -22.843300
vt 12.082100 -22.843300
vt 12.082100 -22.739799
vt 12.082100 -22.956900
vt 11.917900 -22.956900
vt 12.082100 -23.064301
vt 11.917900 -23.064301
vt 12.082100 -23.165600
vt 11.917900 -23.165600
vt 12.082100 -23.250999
vt 11.917900 -23.250999
vt 11.917900 -22.773701
vt 11.917900 -22.877100
vt 12.082100 -22.877100
vt 12.082100 -22.773701
vt 12.082100 -22.990700
vt 11.917900 -22.990700
vt 12.082100 -23.098200
vt 11.917900 -23.098200
vt 12.082100 -23.199499
vt 11.917900 -23.199499
vt 12.082100 -23.284800
vt 11.917900 -23.284800
vt 11.939400 -23.082100
vt 11.939400 -22.917900
vt 11.907900 -23.082100
vt 11.907900 -22.917900
vt 12.055300 -23.082100
vt 12.055300 -22.917900
vt 12.023800 -23.082100
vt 12.023800 -22.917900
vt 11.823500 -23.082100
vt 11.823500 -22.917900
vt 11.792000 -23.082100
vt 11.792000 -22.917900
vt 11.911300 -22.749001
vt 11.939400 -22.843300
vt 11.942800 -22.739799
vt 11.907900 -22.852501
vt 11.949700 -22.956900
vt 11.918100 -22.966101
vt 11.949500 -23.073500
vt 11.981100 -23.064301
vt 12.002100 -23.174801
vt 12.033600 -23.165600
vt 12.060600 -23.260201
vt 12.092100 -23.250999
vt 11.795400 -22.782900
vt 11.823500 -22.877100
vt 11.826900 -22.773701
vt 11.792000 -22.886299
vt 11.833800 -22.990700
vt 11.802300 -22.999901
vt 11.865200 -23.098200
vt 11.833600 -23.107401
vt 11.886200 -23.208700
vt 11.917700 -23.199499
vt 11.944700 -23.294001
vt 11.976200 -23.284800
vt 12.027200 -22.715200
vt 12.055300 -22.809401
vt 12.058700 -22.705999
vt 12.023800 -22.818600
vt 12.065600 -22.923000
vt 12.034000 -22.932199
vt 12.096900 -23.030500
vt 12.065400 -23.039700
vt 12.117900 -23.141001
vt 12.149500 -23.131800
vt 12.176500 -23.226299
vt 12.208000 -23.217100
s 1
usemtl Meshpart1Mtl.005
f 1/1/1 2/2/2 3/3/1
f 2/2/2 1/1/1 4/4/2
f 4/4/2 5/5/3 2/2/2
f 5/5/3 4/4/2 6/6/4
f 6/6/4 7/7/5 5/5/3
f 7/7/5 6/6/4 8/8/5
f 7/7/5 8/8/5 9/9/6
f 9/9/6 8/8/5 10/10/6
f 9/9/6 10/10/6 11/11/7
f 11/11/7 10/10/6 12/12/7
f 11/11/7 12/12/7 13/13/8
f 13/13/8 14/14/8 11/11/7
f 15/15/9 16/16/9 17/14/9
f 17/14/9 18/13/9 15/15/9
f 19/17/10 20/18/11 21/19/10
f 19/17/10 21/19/10 22/20/11
f 25/21/12 23/22/13 24/23/13
f 23/22/13 25/21/12 26/24/14
f 27/25/15 28/26/15 29/27/15
f 28/26/15 27/25/15 30/28/15
f 31/29/15 32/30/15 33/31/15
f 32/30/15 31/29/15 34/32/15
f 35/33/15 34/32/15 31/29/15
f 34/32/15 35/33/15 36/34/15
f 37/35/15 36/34/15 35/33/15
f 38/36/15 37/35/15 35/33/15
f 39/37/15 37/35/15 38/36/15
f 40/38/15 39/37/15 38/36/15
f 41/39/16 39/37/15 40/38/15
f 42/40/17 41/39/16 40/38/15
f 42/40/17 43/28/18 41/39/16
f 43/28/18 42/40/17 44/26/18
f 45/41/19 46/42/19 47/43/19
f 46/42/19 45/41/19 48/44/19
f 49/45/20 50/46/21 51/47/21
f 49/45/20 51/47/21 52/48/20
f 50/46/21 53/49/22 51/47/21
f 50/46/21 54/50/23 53/49/22
f 54/50/23 55/51/24 53/49/22
f 54/50/23 56/52/24 55/51/24
f 56/52/24 57/53/25 55/51/24
f 56/52/24 58/54/25 57/53/25
f 58/54/25 59/55/26 57/53/25
f 58/54/25 60/56/26 59/55/26
f 61/57/27 62/58/27 63/59/27
f 61/57/27 63/59/27 64/60/27
f 65/61/28 66/62/28 67/63/28
f 66/62/28 65/61/28 68/64/28
f 69/65/28 70/66/28 71/67/28
f 70/66/28 69/65/28 72/68/28
f 72/68/28 73/69/28 70/66/28
f 73/69/28 72/68/28 74/70/28
f 75/71/28 73/69/28 74/70/28
f 73/69/28 75/71/28 76/72/28
f 77/73/28 76/72/28 75/71/28
f 76/72/28 77/73/28 78/74/28
f 79/75/29 78/74/28 77/73/28
f 78/74/28 79/75/29 80/76/30
f 81/63/31 80/76/30 79/75/29
f 81/63/31 82/62/32 80/76/30
usemtl Meshpart2Mtl.002
f 83/77/33 84/78/33 85/79/2
f 85/79/2 84/78/33 86/80/2
f 86/80/2 87/81/3 85/79/2
f 87/81/3 86/80/2 88/82/3
f 87/81/3 88/82/3 89/83/5
f 89/83/5 88/82/3 90/84/5
f 89/83/5 90/84/5 91/85/6
f 91/85/6 90/84/5 92/86/6
f 91/85/6 92/86/6 93/87/34
f 93/87/34 92/86/6 94/88/34
f 95/89/33 96/90/33 97/91/2
f 97/91/2 96/90/33 98/92/2
f 97/91/2 98/92/2 99/93/3
f 99/93/3 98/92/2 100/94/3
f 100/94/3 101/95/5 99/93/3
f 101/95/5 100/94/3 102/96/5
f 101/95/5 102/96/5 103/97/6
f 103/97/6 102/96/5 104/98/6
f 103/97/6 104/98/6 105/99/34
f 105/99/34 104/98/6 106/100/34
f 107/101/33 108/102/33 109/103/35
f 109/103/35 108/102/33 110/104/2
f 110/104/2 111/105/3 109/103/35
f 111/105/3 110/104/2 112/106/4
f 112/106/4 113/107/5 111/105/3
f 113/107/5 112/106/4 114/108/5
f 113/107/5 114/108/5 115/109/6
f 115/109/6 114/108/5 116/110/6
f 115/109/6 116/110/6 117/111/34
f 117/111/34 116/110/6 118/112/34
f 119/113/36 120/114/36 121/115/36
f 121/115/36 120/114/36 122/116/36
f 123/117/36 124/118/36 125/119/36
f 125/119/36 124/118/36 126/120/36
f 127/121/36 128/122/36 129/123/36
f 129/123/36 128/122/36 130/124/36
f 131/125/15 132/126/15 133/127/15
f 132/126/15 131/125/15 134/128/15
f 135/129/15 134/128/15 131/125/15
f 134/128/15 135/129/15 136/130/15
f 137/131/15 136/130/15 135/129/15
f 135/129/15 138/132/15 137/131/15
f 139/133/15 137/131/15 138/132/15
f 138/132/15 140/134/15 139/133/15
f 141/135/15 139/133/15 140/134/15
f 140/134/15 142/136/15 141/135/15
f 143/137/15 144/138/15 145/139/15
f 144/138/15 143/137/15 146/140/15
f 147/141/15 146/140/15 143/137/15
f 146/140/15 147/141/15 148/142/15
f 149/143/15 148/142/15 147/141/15
f 148/142/15 149/143/15 150/144/15
f 151/145/15 150/144/15 149/143/15
f 149/143/15 152/146/15 151/145/15
f 153/147/15 151/145/15 152/146/15
f 152/146/15 154/148/15 153/147/15
f 155/149/15 156/150/15 157/151/15
f 156/150/15 155/149/15 158/152/15
f 159/153/15 158/152/15 155/149/15
f 158/152/15 159/153/15 160/154/15
f 161/155/15 160/154/15 159/153/15
f 160/154/15 161/155/15 162/156/15
f 163/157/15 162/156/15 161/155/15
f 161/155/15 164/158/15 163/157/15
f 165/159/15 163/157/15 164/158/15
f 164/158/15 166/160/15 165/159/15
f 167/161/37 168/162/21 169/163/21
f 167/161/37 169/163/21 170/164/37
f 168/162/21 171/165/22 169/163/21
f 168/162/21 172/166/38 171/165/22
f 172/166/38 173/167/24 171/165/22
f 172/166/38 174/168/24 173/167/24
f 174/168/24 175/169/25 173/167/24
f 174/168/24 176/170/25 175/169/25
f 176/170/25 177/171/39 175/169/25
f 178/172/39 177/171/39 176/170/25
f 179/173/37 180/174/21 181/175/21
f 179/173/37 181/175/21 182/176/37
f 180/174/21 183/177/22 181/175/21
f 180/174/21 184/178/22 183/177/22
f 184/178/22 185/179/24 183/177/22
f 184/178/22 186/180/24 185/179/24
f 186/180/24 187/181/40 185/179/24
f 186/180/24 188/182/25 187/181/40
f 188/182/25 189/183/39 187/181/40
f 190/184/39 189/183/39 188/182/25
f 191/185/37 192/186/21 193/187/21
f 191/185/37 193/187/21 194/188/37
f 192/186/21 195/189/22 193/187/21
f 192/186/21 196/190/22 195/189/22
f 196/190/22 197/191/24 195/189/22
f 196/190/22 198/192/24 197/191/24
f 198/192/24 199/193/25 197/191/24
f 198/192/24 200/194/25 199/193/25
f 200/194/25 201/195/41 199/193/25
f 202/196/41 201/195/41 200/194/25
f 203/197/27 204/198/27 205/199/27
f 205/199/27 204/198/27 206/200/27
f 207/201/27 208/202/27 209/203/27
f 209/203/27 208/202/27 210/204/27
f 211/205/27 212/206/27 213/207/27
f 213/207/27 212/206/27 214/208/27
f 215/209/28 216/210/28 217/211/28
f 216/210/28 215/209/28 218/212/28
f 218/212/28 219/213/28 216/210/28
f 219/213/28 218/212/28 220/214/28
f 221/215/28 219/213/28 220/214/28
f 219/213/28 221/215/28 222/216/28
f 223/217/28 222/216/28 221/215/28
f 222/216/28 223/217/28 224/218/28
f 225/219/28 224/218/28 223/217/28
f 224/218/28 225/219/28 226/220/28
f 227/221/28 228/222/28 229/223/28
f 228/222/28 227/221/28 230/224/28
f 230/224/28 231/225/28 228/222/28
f 231/225/28 230/224/28 232/226/28
f 232/226/28 233/227/28 231/225/28
f 233/227/28 232/226/28 234/228/28
f 235/229/28 233/227/28 234/228/28
f 233/227/28 235/229/28 236/230/28
f 237/231/28 236/230/28 235/229/28
f 236/230/28 237/231/28 238/232/28
f 239/233/28 240/234/28 241/235/28
f 240/234/28 239/233/28 242/236/28
f 242/236/28 243/237/28 240/234/28
f 243/237/28 242/236/28 244/238/28
f 244/238/28 245/239/28 243/237/28
f 245/239/28 244/238/28 246/240/28
f 247/241/28 245/239/28 246/240/28
f 245/239/28 247/241/28 248/242/28
f 249/243/28 248/242/28 247/241/28
f 248/242/28 249/243/28 250/244/28
