# Blender 5.1.2
# www.blender.org
mtllib famas3longer.mtl
o Famasbody.002
v 1.272677 -0.061902 -0.089245
v 1.272677 -0.061902 0.088510
v 1.343190 0.340811 0.132329
v 1.343190 0.340811 -0.133486
v 0.157139 0.760096 0.051576
v 0.157139 0.760096 0.030868
v 0.237729 0.659564 0.051576
v 0.237729 0.659564 0.030868
v 0.237729 0.409515 0.051576
v 0.237729 0.409515 0.030868
v 0.157139 0.760096 -0.052312
v 0.157139 0.760096 -0.031628
v 0.237729 0.659564 -0.031628
v 0.237729 0.659564 -0.052312
v 0.237729 0.409515 -0.052311
v 0.237729 0.409515 -0.031628
v 1.272980 0.532293 0.084448
v 1.272980 0.532293 -0.085603
v 1.343190 0.340811 -0.133486
v 1.343190 0.340811 0.132329
v 0.199766 0.632230 -0.031628
v 0.199766 0.632230 0.030868
v 0.199766 0.409515 0.030868
v 0.199766 0.409515 -0.031628
v 0.161149 -0.195474 -0.071385
v 0.048412 0.266522 -0.071385
v 0.048412 0.266522 0.070650
v 0.161149 -0.195474 0.070650
v 0.168924 -0.227272 0.070650
v 0.168924 -0.227272 -0.071385
v 0.184469 -0.290873 0.070650
v 0.184469 -0.290873 -0.071385
v -1.056494 0.652868 0.051576
v -1.056494 0.652868 -0.052312
v -1.112110 0.574278 0.051576
v -1.112110 0.574278 -0.052311
v -1.112110 0.437005 0.051576
v -1.112110 0.437005 -0.052311
v -1.166825 0.721692 0.051576
v 0.157139 0.760096 0.051576
v -1.166825 0.721692 0.030868
v 0.157139 0.760096 0.030868
v -1.166825 0.721692 -0.052312
v -1.166825 0.721692 -0.031628
v 0.157139 0.760096 -0.052312
v 0.157139 0.760096 -0.031628
v 0.219827 0.440977 -0.073020
v 0.069375 0.440977 -0.073020
v 0.219827 0.440977 0.072285
v 0.290037 0.440977 0.072285
v 0.290037 0.440977 -0.073020
v 0.069375 0.440977 0.072285
v 0.340187 0.440977 0.072285
v 0.340187 0.440977 -0.073020
v 0.424438 0.440977 0.072285
v 0.424438 0.440977 -0.073020
v 0.480606 0.440977 0.072285
v 0.480606 0.440977 -0.073020
v 0.647859 0.440977 0.072285
v 0.647859 0.440977 -0.073020
v 0.832911 0.440977 0.072285
v 0.832911 0.440977 -0.073020
v 0.934668 0.532293 0.084448
v 0.934668 0.532293 -0.085603
v 1.120022 0.532293 0.084448
v 1.120022 0.532293 -0.085603
v 1.272980 0.532293 0.084448
v 1.272980 0.532293 -0.085603
v 0.135923 0.671910 -0.031628
v -1.206544 0.651220 -0.031628
v -1.206544 0.651220 0.030868
v 0.135923 0.671910 0.030868
v 0.199766 0.632230 -0.031628
v 0.199766 0.632230 0.030868
v 0.029254 0.440977 -0.040967
v -0.269637 0.440977 -0.073020
v -0.269637 0.440977 -0.040967
v -0.652784 0.440977 -0.040967
v -1.234528 0.440977 -0.073020
v 0.029254 0.440977 0.040207
v -1.234528 0.440977 0.072285
v -0.652784 0.440977 0.040207
v -0.269637 0.440977 0.072285
v -0.269637 0.440977 0.040207
v -0.276658 0.340811 0.113256
v -1.194407 0.189650 0.075530
v -0.255596 0.139727 0.075530
v -1.254589 0.340811 0.113256
v 0.069375 0.220611 0.075530
v 0.069375 0.340811 0.113256
v 0.219827 0.220611 0.090541
v 0.219827 0.340811 0.113256
v 0.290037 0.340811 0.113256
v 0.290037 0.180545 0.090541
v 0.340187 0.340811 0.113256
v 0.340187 0.050329 0.075530
v 0.394350 0.050329 0.075530
v 0.424438 0.340811 0.113256
v 0.480606 0.340811 0.113256
v 0.647859 0.149553 0.075530
v 0.647859 0.340811 0.113256
v 0.832911 0.340811 0.113256
v 0.832911 -0.003510 0.075530
v 0.934668 0.340811 0.132329
v 0.934668 -0.068684 0.088510
v 1.059239 -0.067983 0.088510
v 1.120022 0.340811 0.132329
v 1.272677 -0.061902 0.088510
v 1.343190 0.340811 0.132329
v -0.269637 0.440977 0.072285
v -1.234528 0.440977 0.072285
v -0.276658 0.340811 0.113256
v -1.254589 0.340811 0.113256
v 0.069375 0.340811 0.113256
v 0.069375 0.440977 0.072285
v 0.219827 0.340811 0.113256
v 0.219827 0.440977 0.072285
v 0.290037 0.340811 0.113256
v 0.290037 0.440977 0.072285
v 0.340187 0.340811 0.113256
v 0.340187 0.440977 0.072285
v 0.424438 0.340811 0.113256
v 0.424438 0.440977 0.072285
v 0.480606 0.340811 0.113256
v 0.480606 0.440977 0.072285
v 0.647859 0.340811 0.113256
v 0.647859 0.440977 0.072285
v 0.832911 0.340811 0.113256
v 0.832911 0.440977 0.072285
v 0.934668 0.340811 0.132329
v 0.934668 0.532293 0.084448
v 1.120022 0.340811 0.132329
v 1.120022 0.532293 0.084448
v 1.272980 0.532293 0.084448
v 1.343190 0.340811 0.132329
v 0.048412 0.266522 0.070650
v -0.138595 -0.268435 0.070650
v 0.161149 -0.195474 0.070650
v -0.251333 0.193561 0.070650
v 0.168924 -0.227272 0.070650
v -0.162669 -0.307981 0.070650
v -0.147174 -0.371581 0.070650
v 0.184469 -0.290873 0.070650
v -1.226406 0.619748 0.051576
v -1.112110 0.574278 0.051576
v -1.166825 0.721692 0.051576
v -1.226406 0.437005 0.051576
v -1.112110 0.437005 0.051576
v -1.056494 0.652868 0.051576
v 0.157139 0.760096 0.051576
v 0.057392 0.644905 0.051576
v 0.237729 0.659564 0.051576
v 0.112557 0.579797 0.051576
v 0.237729 0.409515 0.051576
v 0.112557 0.409515 0.051576
v 0.157139 0.760096 -0.031628
v -1.166825 0.721692 -0.031628
v 0.135923 0.671910 -0.031628
v -1.206544 0.651220 -0.031628
v 0.237729 0.659564 -0.031628
v 0.199766 0.632230 -0.031628
v 0.237729 0.409515 -0.031628
v 0.199766 0.409515 -0.031628
v -1.226406 0.437005 -0.052311
v -1.226406 0.619748 0.051576
v -1.226406 0.619748 -0.052311
v -1.226406 0.437005 0.051576
v -1.254589 0.340811 -0.114015
v -1.254589 0.340811 0.113256
v -1.234528 0.440977 -0.073020
v -1.234528 0.440977 0.072285
v -1.194407 0.189650 -0.076265
v -1.194407 0.189650 0.075530
v -0.147174 -0.371581 -0.071385
v -0.162669 -0.307981 0.070650
v -0.162670 -0.307981 -0.071385
v -0.147174 -0.371581 0.070650
v -0.251333 0.193561 -0.071385
v -0.138595 -0.268435 -0.071385
v -0.138595 -0.268435 0.070650
v -0.251333 0.193561 0.070650
v -1.166825 0.721692 0.051576
v -1.166825 0.721692 0.030868
v -1.206544 0.651220 0.030868
v -1.226406 0.619748 0.051576
v -1.226406 0.619748 -0.052311
v -1.206544 0.651220 -0.031628
v -1.166825 0.721692 -0.052312
v -1.166825 0.721692 -0.031628
v 0.290037 0.180545 -0.091697
v 0.290037 0.180545 0.090541
v 0.340187 0.050329 -0.076265
v 0.340187 0.050329 0.075530
v -0.162670 -0.307981 -0.071385
v -0.138595 -0.268435 0.070650
v -0.138595 -0.268435 -0.071385
v -0.162669 -0.307981 0.070650
v 0.112557 0.579797 -0.052311
v 0.112557 0.409515 -0.052311
v 0.112557 0.409515 0.051576
v 0.112557 0.579797 0.051576
v 0.057392 0.644905 0.051576
v 0.057392 0.644905 -0.052312
v -0.147174 -0.371581 -0.071385
v 0.184469 -0.290873 -0.071385
v 0.184469 -0.290873 0.070650
v -0.147174 -0.371581 0.070650
v 0.647859 0.149553 -0.076265
v 0.394350 0.050329 0.075530
v 0.394350 0.050329 -0.076265
v 0.340187 0.050329 0.075530
v 0.340187 0.050329 -0.076265
v 0.647859 0.149553 0.075530
v 0.832911 -0.003510 -0.076265
v 0.832911 -0.003510 0.075530
v 0.934668 -0.068684 -0.089245
v 0.934668 -0.068684 0.088510
v 1.059239 -0.067983 -0.089245
v 1.059239 -0.067983 0.088510
v 1.272677 -0.061902 -0.089245
v 1.272677 -0.061902 0.088510
v -1.194407 0.189650 -0.076265
v -0.255596 0.139727 -0.076265
v -0.255596 0.139727 0.075530
v -1.194407 0.189650 0.075530
v -0.255596 0.139727 -0.076265
v 0.069375 0.220611 -0.076265
v 0.069375 0.220611 0.075530
v -0.255596 0.139727 0.075530
v 0.219827 0.220611 -0.091697
v 0.219827 0.220611 0.090541
v 0.290037 0.180545 -0.091697
v 0.290037 0.180545 0.090541
v 0.237729 0.409515 -0.052311
v 0.199766 0.409515 -0.031628
v 0.112557 0.409515 -0.052311
v 0.237729 0.409515 -0.031628
v 0.112557 0.409515 0.051576
v 0.199766 0.409515 0.030868
v 0.237729 0.409515 0.051576
v 0.237729 0.409515 0.030868
v -1.226406 0.437005 -0.052311
v -1.112110 0.437005 -0.052311
v -1.226406 0.437005 0.051576
v -1.112110 0.437005 0.051576
v 0.057392 0.644905 0.051576
v 0.057392 0.644905 -0.052312
v -1.056494 0.652868 0.051576
v -1.056494 0.652868 -0.052312
v -0.276658 0.340811 -0.114016
v 0.069375 0.220611 -0.076265
v -0.255596 0.139727 -0.076265
v -1.194407 0.189650 -0.076265
v -1.254589 0.340811 -0.114015
v 0.069375 0.340811 -0.114016
v 0.219827 0.340811 -0.114016
v 0.219827 0.220611 -0.091697
v 0.290037 0.340811 -0.114016
v 0.290037 0.180545 -0.091697
v 0.340187 0.340811 -0.114016
v 0.340187 0.050329 -0.076265
v 0.394350 0.050329 -0.076265
v 0.424438 0.340811 -0.114016
v 0.480606 0.340811 -0.114016
v 0.647859 0.149553 -0.076265
v 0.647859 0.340811 -0.114016
v 0.832911 0.340811 -0.114016
v 0.832911 -0.003510 -0.076265
v 0.934668 0.340811 -0.133486
v 0.934668 -0.068684 -0.089245
v 1.059239 -0.067983 -0.089245
v 1.120022 0.340811 -0.133486
v 1.272677 -0.061902 -0.089245
v 1.343190 0.340811 -0.133486
v -0.269637 0.440977 -0.073020
v 0.069375 0.340811 -0.114016
v -0.276658 0.340811 -0.114016
v -1.234528 0.440977 -0.073020
v -1.254589 0.340811 -0.114015
v 0.069375 0.440977 -0.073020
v 0.219827 0.440977 -0.073020
v 0.219827 0.340811 -0.114016
v 0.290037 0.440977 -0.073020
v 0.290037 0.340811 -0.114016
v 0.340187 0.440977 -0.073020
v 0.340187 0.340811 -0.114016
v 0.424438 0.440977 -0.073020
v 0.424438 0.340811 -0.114016
v 0.480606 0.440977 -0.073020
v 0.480606 0.340811 -0.114016
v 0.647859 0.440977 -0.073020
v 0.647859 0.340811 -0.114016
v 0.832911 0.440977 -0.073020
v 0.832911 0.340811 -0.114016
v 0.934668 0.340811 -0.133486
v 0.934668 0.532293 -0.085603
v 1.120022 0.532293 -0.085603
v 1.120022 0.340811 -0.133486
v 1.272980 0.532293 -0.085603
v 1.343190 0.340811 -0.133486
v 0.048412 0.266522 -0.071385
v -0.138595 -0.268435 -0.071385
v -0.251333 0.193561 -0.071385
v 0.161149 -0.195474 -0.071385
v 0.168924 -0.227272 -0.071385
v -0.162670 -0.307981 -0.071385
v -0.147174 -0.371581 -0.071385
v 0.184469 -0.290873 -0.071385
v 0.112557 0.579797 -0.052311
v 0.237729 0.659564 -0.052312
v 0.237729 0.409515 -0.052311
v 0.112557 0.409515 -0.052311
v 0.057392 0.644905 -0.052312
v 0.157139 0.760096 -0.052312
v -1.056494 0.652868 -0.052312
v -1.166825 0.721692 -0.052312
v -1.112110 0.574278 -0.052311
v -1.226406 0.619748 -0.052311
v -1.226406 0.437005 -0.052311
v -1.112110 0.437005 -0.052311
v 0.135923 0.671910 0.030868
v -1.166825 0.721692 0.030868
v 0.157139 0.760096 0.030868
v -1.206544 0.651220 0.030868
v 0.237729 0.659564 0.030868
v 0.199766 0.632230 0.030868
v 0.237729 0.409515 0.030868
v 0.199766 0.409515 0.030868
v 1.363250 0.339398 -0.142824
v 1.363250 0.339398 0.142089
v 1.303623 -0.075074 -0.100218
v 1.303623 -0.075074 0.099459
v 1.283008 0.539731 -0.092911
v 1.283008 0.539731 0.091755
v 1.363250 0.339398 -0.142824
v 0.775541 0.448049 0.077958
v 0.775541 0.340450 -0.124147
v 0.775541 0.448049 -0.079113
v 0.775541 0.340450 0.123016
v 0.584368 0.212082 -0.097370
v 0.584368 0.284202 0.111225
v 0.584368 0.212082 0.096214
v 0.584368 0.284202 -0.112381
v 0.114359 0.760116 -0.018624
v 0.114359 0.760116 0.017492
v 0.114359 0.751697 -0.000367
v 0.114359 0.743999 0.014644
v 0.114359 0.743999 -0.015379
v 0.114359 0.747441 0.028045
v 0.114359 0.747441 -0.028780
v 0.114359 0.725413 0.020738
v 0.114359 0.725413 -0.021869
v 0.114359 0.681861 0.028045
v 0.114359 0.681861 -0.028780
v 0.114359 0.706828 0.014644
v 0.114359 0.706828 -0.015379
v 0.114359 0.699129 -0.000367
v -0.340001 0.161187 -0.071385
v -0.397320 0.064627 -0.036087
v -0.385485 0.083594 -0.071385
v -0.340001 0.161187 0.070650
v -0.397320 0.064627 0.035352
v -0.385485 0.083594 0.070650
v 0.122784 0.689755 0.029259
v 0.122784 0.689755 -0.029993
v 0.130560 0.671003 0.029259
v 0.130560 0.671003 -0.029993
v 0.122784 0.652252 0.029259
v 0.122784 0.652252 -0.029993
v -1.127606 0.633236 -0.029993
v -1.127606 0.633236 0.028862
v -1.121190 0.648802 -0.029993
v -1.121190 0.648802 0.028862
v -1.127606 0.664372 -0.029993
v -1.127606 0.664372 0.028862
v -0.652784 0.440977 -0.040967
v -0.652784 0.425942 0.040207
v -0.652784 0.425942 -0.040967
v -0.652784 0.440977 0.040207
v -1.132673 0.719974 0.028045
v -1.132673 0.701389 0.014644
v -1.132673 0.719974 0.020738
v -1.132673 0.666140 0.028045
v -1.132673 0.693690 -0.000367
v -1.132673 0.666140 -0.029176
v -1.132673 0.701389 -0.015379
v -1.132673 0.719974 -0.029176
v -1.132673 0.719974 -0.021869
v -1.139744 0.719553 0.000029
v -1.139744 0.683048 -0.009706
v -1.139744 0.719553 -0.000788
v -1.139744 0.683048 0.008971
v -1.522141 0.276654 -0.044608
v -1.522141 0.272497 -0.000367
v -1.522141 0.253846 -0.000367
v -1.522141 0.276654 0.043452
v -1.522141 0.289836 -0.034452
v -1.522141 0.289836 0.033321
v -1.522141 0.331710 0.061732
v -1.522141 0.331710 0.047514
v -1.522141 0.331710 -0.062864
v -1.522141 0.331710 -0.048249
v -1.522141 0.373580 -0.034452
v -1.522141 0.386767 -0.044608
v -1.522141 0.390924 -0.000367
v -1.522141 0.409569 -0.000367
v -1.522141 0.386767 0.043452
v -1.522141 0.373580 0.033321
v -1.522141 0.331710 0.061732
v -1.522141 0.331710 0.047514
v 0.094651 0.760116 -0.018624
v 0.094651 0.760116 0.017492
v 0.114359 0.760116 -0.018624
v 0.114359 0.760116 0.017492
v 0.094651 0.706828 0.014644
v 0.114359 0.706828 0.014644
v 0.094651 0.699129 -0.000367
v 0.114359 0.699129 -0.000367
v 0.094651 0.706828 -0.015379
v 0.114359 0.706828 -0.015379
v -1.152380 0.719974 -0.029176
v -1.132673 0.719974 -0.021869
v -1.132673 0.719974 -0.029176
v -1.152380 0.719974 -0.021869
v -1.152380 0.719974 0.028045
v -1.132673 0.719974 0.028045
v -1.152380 0.719974 0.020738
v -1.132673 0.719974 0.020738
v -1.139744 0.719553 -0.000788
v -1.146565 0.719553 -0.000788
v -1.146565 0.719553 0.000029
v -1.139744 0.719553 0.000029
v -1.152380 0.701389 0.014644
v -1.132673 0.701389 0.014644
v -1.152380 0.693690 -0.000367
v -1.132673 0.693690 -0.000367
v -1.152380 0.701389 -0.015379
v -1.132673 0.701389 -0.015379
v -1.591597 0.292365 -0.032025
v -1.806791 0.292365 -0.032025
v -1.591597 0.276068 -0.000367
v -1.806791 0.276068 -0.000367
v -1.591597 0.292365 0.030868
v -1.806791 0.292365 0.030868
v -1.184980 0.373580 -0.034452
v -1.522141 0.373580 -0.034452
v -1.184980 0.390924 -0.000367
v -1.522141 0.390924 -0.000367
v -1.184980 0.373580 0.033321
v -1.522141 0.373580 0.033321
v 0.094651 0.747441 0.028045
v 0.114359 0.747441 0.028045
v 0.114359 0.760116 0.017492
v 0.094651 0.760116 0.017492
v 0.114359 0.747441 -0.028780
v 0.094651 0.747441 -0.028780
v 0.094651 0.760116 -0.018624
v 0.114359 0.760116 -0.018624
v 1.152620 0.539731 -0.092911
v 1.152620 0.539731 0.091755
v 1.283008 0.539731 -0.092911
v 1.283008 0.539731 0.091755
v -1.806791 0.386767 -0.044608
v -1.522141 0.386767 -0.044608
v -1.806791 0.409569 -0.000367
v -1.522141 0.409569 -0.000367
v -1.806791 0.386767 0.043452
v -1.522141 0.386767 0.043452
v 0.104028 0.697522 -0.029993
v 0.122784 0.689755 0.029259
v 0.122784 0.689755 -0.029993
v 0.104028 0.697522 0.029259
v 0.085223 0.689755 0.029259
v 0.085223 0.689755 -0.029993
v 0.104028 0.697522 0.029259
v 0.104028 0.697522 -0.029993
v -1.158801 0.664372 -0.029993
v -1.143206 0.670823 0.028862
v -1.143206 0.670823 -0.029993
v -1.158801 0.664372 0.028862
v -1.127606 0.664372 -0.029993
v -1.127606 0.664372 0.028862
v -1.143206 0.670823 -0.029993
v -1.143206 0.670823 0.028862
v 0.775541 0.448049 -0.079113
v 0.297559 0.448049 -0.079113
v 0.297559 0.448049 0.077958
v 0.775541 0.448049 0.077958
v -0.652784 0.425942 -0.040967
v 0.029254 0.425942 0.040207
v 0.029254 0.425942 -0.040967
v -0.652784 0.425942 0.040207
v 0.094651 0.706828 -0.015379
v 0.114359 0.706828 -0.015379
v 0.114359 0.725413 -0.021869
v 0.094651 0.725413 -0.021869
v 0.114359 0.743999 -0.015379
v 0.094651 0.743999 -0.015379
v -1.152380 0.701389 -0.015379
v -1.132673 0.701389 -0.015379
v -1.132673 0.719974 -0.021869
v -1.152380 0.719974 -0.021869
v 1.232859 0.339398 0.142089
v 1.172930 -0.079791 0.099459
v 1.303623 -0.075074 0.099459
v 1.363250 0.339398 0.142089
v -1.591597 0.371051 -0.032025
v -1.806791 0.371051 -0.032025
v -1.591597 0.331710 -0.045004
v -1.806791 0.331710 -0.045004
v -1.591597 0.292365 -0.032025
v -1.806791 0.292365 -0.032025
v -1.522141 0.289836 0.033321
v -1.184980 0.289836 0.033321
v -1.522141 0.331710 0.047514
v -1.184980 0.331710 0.047514
v -1.184980 0.373580 0.033321
v -1.522141 0.373580 0.033321
v -1.184980 0.331710 0.047514
v -1.522141 0.331710 0.047514
v 1.363250 0.339398 0.142089
v 1.283008 0.539731 0.091755
v 1.232859 0.339398 0.142089
v 1.152620 0.539731 0.091755
v 0.775541 0.448049 0.077958
v 0.297559 0.448049 0.077958
v 0.775541 0.340450 0.123016
v 0.297559 0.340450 0.123016
v 0.584368 0.284202 0.111225
v 0.488733 0.284202 0.111225
v 0.775541 0.340450 0.123016
v 0.488733 0.212082 0.096214
v 0.584368 0.212082 0.096214
v 0.488733 0.284202 0.111225
v -0.385485 0.083594 0.070650
v -1.168630 0.200258 0.070650
v -1.172392 0.120696 0.070650
v -0.340001 0.161187 0.070650
v 0.094651 0.747441 0.028045
v 0.094651 0.681861 0.028045
v 0.114359 0.681861 0.028045
v 0.114359 0.747441 0.028045
v -1.146565 0.719553 0.000029
v -1.146565 0.683048 0.008971
v -1.139744 0.683048 0.008971
v -1.139744 0.719553 0.000029
v 0.077449 0.671003 0.029259
v 0.122784 0.689755 0.029259
v 0.085223 0.689755 0.029259
v 0.104028 0.697522 0.029259
v 0.104029 0.644489 0.029259
v 0.085223 0.652252 0.029259
v 0.122784 0.652252 0.029259
v 0.130560 0.671003 0.029259
v -1.165271 0.648802 0.028862
v -1.143206 0.626785 0.028862
v -1.158801 0.664372 0.028862
v -1.158801 0.633236 0.028862
v -1.127606 0.664372 0.028862
v -1.143206 0.670823 0.028862
v -1.121190 0.648802 0.028862
v -1.127606 0.633236 0.028862
v -1.132673 0.666140 0.028045
v -1.152380 0.719974 0.028045
v -1.152380 0.666140 0.028045
v -1.132673 0.719974 0.028045
v -1.806791 0.276654 0.043452
v -1.522141 0.276654 0.043452
v -1.522141 0.331710 0.061732
v -1.806791 0.331710 0.061733
v -1.806791 0.386767 0.043452
v -1.522141 0.386767 0.043452
v -1.806791 0.331710 0.061733
v -1.522141 0.331710 0.061732
v -0.652784 0.425942 -0.040967
v 0.029254 0.425942 -0.040967
v -0.269637 0.440977 -0.040967
v 0.029254 0.440977 -0.040967
v -0.652784 0.440977 -0.040967
v -1.806791 0.387352 -0.000367
v -1.806791 0.386767 0.043452
v -1.806791 0.409569 -0.000367
v -1.806791 0.386767 -0.044608
v -1.806791 0.371051 0.030868
v -1.806791 0.331710 0.061733
v -1.806791 0.331710 0.044269
v -1.806791 0.371051 -0.032025
v -1.806791 0.331710 -0.062864
v -1.806791 0.331710 -0.045004
v -1.806791 0.292365 -0.032025
v -1.806791 0.276654 -0.044608
v -1.806791 0.276068 -0.000367
v -1.806791 0.253846 -0.000367
v -1.806791 0.276654 0.043452
v -1.806791 0.292365 0.030868
v -1.806791 0.331710 0.061733
v -1.806791 0.331710 0.044269
v -1.591597 0.292365 -0.032025
v -1.591597 0.292365 0.030868
v -1.591597 0.331710 -0.045004
v -1.591597 0.276068 -0.000367
v -1.591597 0.331710 0.044269
v -1.591597 0.371051 0.030868
v -1.591597 0.371051 -0.032025
v -1.591597 0.387352 -0.000367
v -1.173295 0.101213 -0.036087
v -1.168630 0.200258 -0.071385
v -1.172392 0.120696 -0.071385
v -1.168630 0.200258 0.070650
v -1.173295 0.101213 0.035352
v -1.172392 0.120696 0.070650
v -1.152380 0.666140 -0.029176
v -1.152380 0.666140 0.028045
v -1.152380 0.693690 -0.000367
v -1.152380 0.701389 0.014644
v -1.152380 0.719974 0.028045
v -1.152380 0.719974 0.020738
v -1.152380 0.701389 -0.015379
v -1.152380 0.719974 -0.029176
v -1.152380 0.719974 -0.021869
v -1.146565 0.719553 -0.000788
v -1.146565 0.683048 -0.009706
v -1.146565 0.683048 0.008971
v -1.146565 0.719553 0.000029
v 0.085223 0.652252 0.029259
v 0.085223 0.652252 -0.029993
v 0.077449 0.671003 0.029259
v 0.077449 0.671003 -0.029993
v 0.085223 0.689755 0.029259
v 0.085223 0.689755 -0.029993
v -1.158801 0.664372 -0.029993
v -1.158801 0.664372 0.028862
v -1.165271 0.648802 -0.029993
v -1.165271 0.648802 0.028862
v -1.158801 0.633236 -0.029993
v -1.158801 0.633236 0.028862
v 0.029254 0.425942 0.040207
v 0.029254 0.440977 -0.040967
v 0.029254 0.425942 -0.040967
v 0.029254 0.440977 0.040207
v 0.094651 0.699129 -0.000367
v 0.094651 0.681861 0.028045
v 0.094651 0.706828 0.014644
v 0.094651 0.725413 0.020738
v 0.094651 0.681861 -0.028780
v 0.094651 0.747441 0.028045
v 0.094651 0.706828 -0.015379
v 0.094651 0.743999 0.014644
v 0.094651 0.725413 -0.021869
v 0.094651 0.760116 0.017492
v 0.094651 0.747441 -0.028780
v 0.094651 0.751697 -0.000367
v 0.094651 0.743999 -0.015379
v 0.094651 0.760116 -0.018624
v 0.297559 0.340450 -0.124147
v 0.297559 0.340450 0.123016
v 0.297559 0.448049 -0.079113
v 0.297559 0.448049 0.077958
v 0.488733 0.284202 -0.112381
v 0.488733 0.212082 0.096214
v 0.488733 0.284202 0.111225
v 0.488733 0.212082 -0.097370
v 1.232859 0.339398 -0.142824
v 1.172930 -0.079791 -0.100218
v 1.172930 -0.079791 0.099459
v 1.232859 0.339398 0.142089
v 1.232859 0.339398 0.142089
v 1.152620 0.539731 0.091755
v 1.152620 0.539731 -0.092911
v 1.303623 -0.075074 -0.100218
v 1.303623 -0.075074 0.099459
v 1.172930 -0.079791 -0.100218
v 1.172930 -0.079791 0.099459
v 0.584368 0.284202 -0.112381
v 0.775541 0.340450 -0.124147
v 0.584368 0.284202 0.111225
v 0.775541 0.340450 0.123016
v -0.397320 0.064627 -0.036087
v -1.173295 0.101213 0.035352
v -1.173295 0.101213 -0.036087
v -1.172392 0.120696 -0.071385
v -0.385485 0.083594 -0.071385
v -0.397320 0.064627 0.035352
v -1.172392 0.120696 0.070650
v -0.385485 0.083594 0.070650
v 0.584368 0.212082 -0.097370
v 0.584368 0.212082 0.096214
v 0.488733 0.212082 -0.097370
v 0.488733 0.212082 0.096214
v 0.114359 0.743999 -0.015379
v 0.094651 0.743999 -0.015379
v 0.114359 0.751697 -0.000367
v 0.094651 0.751697 -0.000367
v 0.114359 0.743999 0.014644
v 0.094651 0.743999 0.014644
v -1.591597 0.371051 0.030868
v -1.806791 0.371051 0.030868
v -1.591597 0.387352 -0.000367
v -1.806791 0.387352 -0.000367
v -1.591597 0.371051 -0.032025
v -1.806791 0.371051 -0.032025
v -1.184980 0.272497 -0.000367
v -1.522141 0.289836 0.033321
v -1.522141 0.272497 -0.000367
v -1.184980 0.289836 0.033321
v -1.184980 0.289836 -0.034452
v -1.522141 0.289836 -0.034452
v -1.806791 0.276654 0.043452
v -1.522141 0.276654 0.043452
v -1.806791 0.253846 -0.000367
v -1.522141 0.253846 -0.000367
v -1.806791 0.276654 -0.044608
v -1.522141 0.276654 -0.044608
v 0.122784 0.652252 0.029259
v 0.122784 0.652252 -0.029993
v 0.104029 0.644489 0.029259
v 0.104028 0.644489 -0.029993
v 0.085223 0.652252 0.029259
v 0.085223 0.652252 -0.029993
v -1.158801 0.633236 -0.029993
v -1.158801 0.633236 0.028862
v -1.143206 0.626785 -0.029993
v -1.143206 0.626785 0.028862
v -1.127606 0.633236 -0.029993
v -1.127606 0.633236 0.028862
v 0.488733 0.284202 -0.112381
v 0.297559 0.340450 0.123016
v 0.297559 0.340450 -0.124147
v 0.488733 0.284202 0.111225
v -1.139744 0.683048 -0.009706
v -1.139744 0.683048 0.008971
v -1.146565 0.683048 -0.009706
v -1.146565 0.683048 0.008971
v 0.114359 0.725413 0.020738
v 0.094651 0.706828 0.014644
v 0.094651 0.725413 0.020738
v 0.114359 0.706828 0.014644
v 0.114359 0.743999 0.014644
v 0.094651 0.743999 0.014644
v 0.094651 0.725413 0.020738
v 0.114359 0.725413 0.020738
v -1.132673 0.719974 0.020738
v -1.152380 0.701389 0.014644
v -1.152380 0.719974 0.020738
v -1.132673 0.701389 0.014644
v 1.303623 -0.075074 -0.100218
v 1.232859 0.339398 -0.142824
v 1.363250 0.339398 -0.142824
v 1.172930 -0.079791 -0.100218
v -1.591597 0.371051 0.030868
v -1.806791 0.331710 0.044269
v -1.806791 0.371051 0.030868
v -1.591597 0.331710 0.044269
v -1.591597 0.292365 0.030868
v -1.806791 0.292365 0.030868
v -1.591597 0.331710 0.044269
v -1.806791 0.331710 0.044269
v -1.184980 0.289836 -0.034452
v -1.522141 0.289836 -0.034452
v -1.184980 0.331710 -0.048249
v -1.522141 0.331710 -0.048249
v -1.184980 0.373580 -0.034452
v -1.522141 0.373580 -0.034452
v 1.283008 0.539731 -0.092911
v 1.232859 0.339398 -0.142824
v 1.152620 0.539731 -0.092911
v 1.363250 0.339398 -0.142824
v 0.775541 0.448049 -0.079113
v 0.297559 0.340450 -0.124147
v 0.297559 0.448049 -0.079113
v 0.775541 0.340450 -0.124147
v 0.584368 0.284202 -0.112381
v 0.488733 0.284202 -0.112381
v 0.775541 0.340450 -0.124147
v 0.584368 0.212082 -0.097370
v 0.488733 0.284202 -0.112381
v 0.488733 0.212082 -0.097370
v -0.385485 0.083594 -0.071385
v -1.168630 0.200258 -0.071385
v -0.340001 0.161187 -0.071385
v -1.172392 0.120696 -0.071385
v 0.114359 0.747441 -0.028780
v 0.094651 0.747441 -0.028780
v 0.094651 0.681861 -0.028780
v 0.114359 0.681861 -0.028780
v -1.139744 0.719553 -0.000788
v -1.146565 0.683048 -0.009706
v -1.146565 0.719553 -0.000788
v -1.139744 0.683048 -0.009706
v 0.122784 0.689755 -0.029993
v 0.122784 0.652252 -0.029993
v 0.104028 0.644489 -0.029993
v 0.130560 0.671003 -0.029993
v 0.077449 0.671003 -0.029993
v 0.085223 0.652252 -0.029993
v 0.085223 0.689755 -0.029993
v 0.104028 0.697522 -0.029993
v -1.143206 0.626785 -0.029993
v -1.127606 0.664372 -0.029993
v -1.121190 0.648802 -0.029993
v -1.127606 0.633236 -0.029993
v -1.158801 0.664372 -0.029993
v -1.143206 0.670823 -0.029993
v -1.165271 0.648802 -0.029993
v -1.158801 0.633236 -0.029993
v -1.152380 0.666140 -0.029176
v -1.152380 0.719974 -0.029176
v -1.132673 0.719974 -0.029176
v -1.132673 0.666140 -0.029176
v -1.806791 0.276654 -0.044608
v -1.522141 0.276654 -0.044608
v -1.806791 0.331710 -0.062864
v -1.522141 0.331710 -0.062864
v -1.806791 0.386767 -0.044608
v -1.522141 0.386767 -0.044608
v 0.029254 0.425942 0.040207
v -0.652784 0.425942 0.040207
v -0.269637 0.440977 0.040207
v -0.652784 0.440977 0.040207
v 0.029254 0.440977 0.040207
v 1.162802 -0.025827 -0.099401
v 1.155478 -0.043306 0.096214
v 1.155478 -0.043306 -0.096973
v 1.162802 -0.025827 0.098666
v 1.155478 -0.008348 -0.101828
v 1.162802 -0.025827 0.098666
v 1.162802 -0.025827 -0.099401
v 1.155478 -0.008348 0.101094
v 0.984966 0.484103 -0.101432
v 0.992289 0.500816 0.096214
v 0.984966 0.484103 0.100673
v 0.992289 0.500816 -0.096973
v 0.984966 0.517524 -0.092490
v 0.984966 0.517524 0.091359
v 0.992289 0.500816 -0.096973
v 0.121381 0.688568 0.031290
v 0.121381 0.688568 -0.032025
v 0.128202 0.672130 0.031290
v 0.128202 0.672130 -0.032025
v 0.121381 0.655687 0.031290
v 0.121381 0.655687 -0.032025
v -0.191255 0.194538 -0.090879
v -0.198578 0.177394 0.086479
v -0.198578 0.177394 -0.087214
v -0.191255 0.194538 0.090120
v -0.198579 0.211681 -0.094521
v -0.191255 0.194538 0.090120
v -0.198578 0.211681 0.093786
v -0.191255 0.194538 -0.090879
v -1.128663 0.636275 -0.032025
v -1.128663 0.636275 0.030868
v -1.122997 0.649928 -0.032025
v -1.122997 0.649928 0.030868
v -1.128663 0.663576 -0.032025
v -1.128663 0.663576 0.030868
v 0.967162 0.524445 -0.090459
v 0.984966 0.517524 0.091359
v 0.984966 0.517524 -0.092490
v 0.967162 0.524445 0.089724
v -0.234134 0.211681 -0.094521
v -0.216381 0.218783 0.095396
v -0.216381 0.218783 -0.096156
v -0.234134 0.211681 0.093786
v 1.137675 -0.001112 -0.103042
v 1.155478 -0.008348 0.101094
v 1.155478 -0.008348 -0.101828
v 1.137675 -0.001112 0.101911
v 0.949409 0.517524 -0.092490
v 0.967162 0.524445 0.089724
v 0.967162 0.524445 -0.090459
v 0.949409 0.517524 0.091359
v 0.104932 0.695379 -0.032025
v 0.121381 0.688568 0.031290
v 0.121381 0.688568 -0.032025
v 0.104932 0.695379 0.031290
v 0.088433 0.688568 0.031290
v 0.088433 0.688568 -0.032025
v 0.104932 0.695379 0.031290
v 0.104932 0.695379 -0.032025
v -0.198579 0.211681 -0.094521
v -0.216381 0.218783 0.095396
v -0.198578 0.211681 0.093786
v -0.216381 0.218783 -0.096156
v 1.119922 -0.008348 -0.101828
v 1.137675 -0.001112 0.101911
v 1.137675 -0.001112 -0.103042
v 1.119922 -0.008348 0.101094
v -1.155993 0.663576 -0.032025
v -1.142303 0.669235 0.030868
v -1.142303 0.669235 -0.032025
v -1.155993 0.663576 0.030868
v -1.128663 0.663576 -0.032025
v -1.128663 0.663576 0.030868
v -1.142303 0.669235 -0.032025
v -1.142303 0.669235 0.030868
v 1.119922 -0.043306 0.096214
v 1.119922 -0.008348 0.101094
v 1.112549 -0.025827 0.098666
v 1.137675 -0.001112 0.101911
v 1.137675 -0.050544 0.095000
v 1.155478 -0.043306 0.096214
v 1.155478 -0.008348 0.101094
v 1.162802 -0.025827 0.098666
v 0.949409 0.484103 0.100673
v 0.949409 0.517524 0.091359
v 0.942040 0.500816 0.096214
v 0.967162 0.524445 0.089724
v 0.967162 0.477181 0.102704
v 0.984966 0.484103 0.100673
v 0.984966 0.517524 0.091359
v 0.992289 0.500816 0.096214
v -0.234134 0.177394 0.086479
v -0.234134 0.211681 0.093786
v -0.241503 0.194538 0.090120
v -0.216381 0.170298 0.084844
v -0.216381 0.218783 0.095396
v -0.198578 0.211681 0.093786
v -0.198578 0.177394 0.086479
v -0.191255 0.194538 0.090120
v -0.234134 0.177394 -0.087214
v -0.241503 0.194538 0.090120
v -0.241504 0.194538 -0.090879
v -0.234134 0.177394 0.086479
v -0.241504 0.194538 -0.090879
v -0.234134 0.211681 0.093786
v -0.234134 0.211681 -0.094521
v -0.241503 0.194538 0.090120
v 1.119922 -0.043306 -0.096973
v 1.112549 -0.025827 0.098666
v 1.112549 -0.025827 -0.099401
v 1.119922 -0.043306 0.096214
v 0.088433 0.655687 0.031290
v 0.088433 0.655687 -0.032025
v 0.081665 0.672130 0.031290
v 0.081665 0.672130 -0.032025
v 0.088433 0.688568 0.031290
v 0.088433 0.688568 -0.032025
v 0.949409 0.484103 0.100673
v 0.942040 0.500816 -0.096973
v 0.949409 0.484103 -0.101432
v 0.942040 0.500816 0.096214
v 0.949409 0.517524 0.091359
v 0.949409 0.517524 -0.092490
v 0.942040 0.500816 0.096214
v 1.112549 -0.025827 -0.099401
v 1.119922 -0.008348 0.101094
v 1.119922 -0.008348 -0.101828
v 1.112549 -0.025827 0.098666
v -1.155993 0.663576 -0.032025
v -1.155993 0.663576 0.030868
v -1.161659 0.649928 -0.032025
v -1.161659 0.649928 0.030868
v -1.155993 0.636275 -0.032025
v -1.155993 0.636275 0.030868
v 0.984966 0.484103 -0.101432
v 0.967162 0.477181 0.102704
v 0.984966 0.484103 0.100673
v 0.967162 0.477181 -0.103463
v -0.216381 0.170298 -0.085603
v -0.234134 0.177394 0.086479
v -0.234134 0.177394 -0.087214
v -0.216381 0.170298 0.084844
v 1.155478 -0.043306 -0.096973
v 1.137675 -0.050544 0.095000
v 1.137675 -0.050544 -0.095735
v 1.155478 -0.043306 0.096214
v 1.119922 -0.043306 -0.096973
v 1.137675 -0.050544 -0.095735
v 1.119922 -0.043306 0.096214
v -0.198578 0.177394 -0.087214
v -0.216381 0.170298 0.084844
v -0.216381 0.170298 -0.085603
v -0.198578 0.177394 0.086479
v 0.121381 0.655687 0.031290
v 0.121381 0.655687 -0.032025
v 0.104932 0.648876 0.031290
v 0.104932 0.648876 -0.032025
v 0.088433 0.655687 0.031290
v 0.088433 0.655687 -0.032025
v 0.967162 0.477181 -0.103463
v 0.949409 0.484103 0.100673
v 0.949409 0.484103 -0.101432
v 0.967162 0.477181 0.102704
v -1.155993 0.636275 -0.032025
v -1.155993 0.636275 0.030868
v -1.142303 0.630621 -0.032025
v -1.142303 0.630621 0.030868
v -1.128663 0.636275 -0.032025
v -1.128663 0.636275 0.030868
v 1.155478 -0.043306 -0.096973
v 1.137675 -0.001112 -0.103042
v 1.155478 -0.008348 -0.101828
v 1.162802 -0.025827 -0.099401
v 1.137675 -0.050544 -0.095735
v 1.119922 -0.043306 -0.096973
v 1.119922 -0.008348 -0.101828
v 1.112549 -0.025827 -0.099401
v 0.984966 0.484103 -0.101432
v 0.967162 0.524445 -0.090459
v 0.984966 0.517524 -0.092490
v 0.992289 0.500816 -0.096973
v 0.967162 0.477181 -0.103463
v 0.949409 0.484103 -0.101432
v 0.949409 0.517524 -0.092490
v 0.942040 0.500816 -0.096973
v -0.198579 0.211681 -0.094521
v -0.198578 0.177394 -0.087214
v -0.216381 0.170298 -0.085603
v -0.191255 0.194538 -0.090879
v -0.216381 0.218783 -0.096156
v -0.234134 0.211681 -0.094521
v -0.234134 0.177394 -0.087214
v -0.241504 0.194538 -0.090879
v -0.452287 0.469614 -0.023107
v -0.452287 0.419531 0.032107
v -0.452287 0.419531 -0.032842
v -0.452287 0.469614 0.022348
v -0.462315 0.509681 0.013034
v -0.462315 0.509681 -0.014165
v -0.482376 0.559764 -0.014165
v -0.482376 0.559764 0.013034
v -0.482376 0.559764 -0.014165
v -0.482376 0.559764 0.013034
v -0.516829 0.590389 -0.014165
v -0.516829 0.590389 0.013034
v -0.544865 0.592899 -0.014165
v -0.544865 0.592899 0.013034
v -0.528113 0.469614 -0.023107
v -0.599980 0.469614 -0.023107
v -0.599980 0.469614 0.022348
v -0.642856 0.451034 -0.032842
v -0.642856 0.451034 0.032107
v -0.528113 0.469614 0.022348
v -0.452287 0.419531 0.032107
v -0.528113 0.469614 0.022348
v -0.642856 0.419531 0.032107
v -0.452287 0.469614 0.022348
v -0.599980 0.469614 0.022348
v -0.642856 0.451034 0.032107
v -0.498024 0.509681 0.013034
v -0.462315 0.509681 0.013034
v -0.498024 0.539731 0.013034
v -0.482376 0.559764 0.013034
v -0.522596 0.570686 0.013034
v -0.516829 0.590389 0.013034
v -0.545014 0.583167 0.013034
v -0.544865 0.592899 0.013034
v -0.642856 0.419531 -0.032842
v -0.642856 0.419531 0.032107
v -0.642856 0.451034 -0.032842
v -0.642856 0.451034 0.032107
v -0.545014 0.583167 -0.014165
v -0.545014 0.583167 0.013034
v -0.544865 0.592899 -0.014165
v -0.544865 0.592899 0.013034
v -0.528113 0.469614 -0.023107
v -0.528113 0.469614 0.022348
v -0.498024 0.509681 -0.014165
v -0.498024 0.509681 0.013034
v -0.498024 0.539731 0.013034
v -0.498024 0.539731 -0.014165
v -0.522596 0.570686 0.013034
v -0.522596 0.570686 -0.014165
v -0.522596 0.570686 0.013034
v -0.522596 0.570686 -0.014165
v -0.545014 0.583167 0.013034
v -0.545014 0.583167 -0.014165
v -0.599980 0.469614 -0.023107
v -0.642856 0.419531 -0.032842
v -0.642856 0.451034 -0.032842
v -0.528113 0.469614 -0.023107
v -0.452287 0.419531 -0.032842
v -0.452287 0.469614 -0.023107
v -0.498024 0.509681 -0.014165
v -0.462315 0.509681 -0.014165
v -0.498024 0.539731 -0.014165
v -0.482376 0.559764 -0.014165
v -0.522596 0.570686 -0.014165
v -0.516829 0.590389 -0.014165
v -0.545014 0.583167 -0.014165
v -0.544865 0.592899 -0.014165
vn 0.6784 -0.7347 0.0002
vn 0.9848 -0.1736 -0.0000
vn 0.6784 -0.7347 -0.0000
vn 0.9849 -0.1730 -0.0000
vn 0.4178 0.9086 -0.0000
vn 0.9438 0.3305 -0.0000
vn 0.4179 0.9085 -0.0000
vn 1.0000 -0.0000 -0.0000
vn 0.9437 0.3309 -0.0000
vn 0.4191 0.9079 -0.0000
vn 0.4193 0.9079 -0.0000
vn 0.9436 0.3311 -0.0000
vn 0.6194 0.7851 -0.0002
vn 0.9378 0.3472 -0.0000
vn 0.6194 0.7850 -0.0000
vn 0.9378 0.3473 -0.0000
vn 0.8728 0.4881 -0.0000
vn 0.9714 0.2373 -0.0000
vn 0.9715 0.2371 -0.0000
vn 0.9714 0.2375 -0.0000
vn 0.9714 0.2374 -0.0000
vn 0.9519 -0.3064 -0.0000
vn 0.4562 -0.8899 -0.0000
vn -0.5023 0.8647 -0.0000
vn 0.4180 0.9084 -0.0000
vn -0.5024 0.8646 -0.0000
vn -0.0000 1.0000 -0.0000
vn -0.3695 0.9292 -0.0000
vn -0.3698 0.9291 -0.0000
vn -0.3463 0.9381 -0.0000
vn -0.3464 0.9381 -0.0000
vn 0.6195 0.7850 -0.0000
vn 0.2680 0.9634 -0.0000
vn -0.0160 0.9999 -0.0000
vn -0.0157 0.9999 -0.0000
vn 0.8727 0.4883 -0.0000
vn 0.8726 0.4884 -0.0000
vn 0.0129 -0.2201 0.9754
vn -0.0064 -0.2125 0.9771
vn 0.0129 -0.2200 0.9754
vn -0.0064 -0.2126 0.9771
vn -0.0064 -0.2327 0.9725
vn -0.0129 -0.2328 0.9724
vn -0.0451 -0.1937 0.9800
vn -0.0450 -0.1997 0.9788
vn -0.0320 -0.1473 0.9886
vn -0.0256 -0.1412 0.9897
vn -0.0128 -0.1286 0.9916
vn -0.0067 -0.1288 0.9916
vn 0.0191 -0.1346 0.9907
vn 0.0256 -0.1349 0.9905
vn 0.0320 -0.1537 0.9876
vn -0.0193 -0.1474 0.9889
vn -0.0321 -0.1674 0.9854
vn -0.1222 -0.1223 0.9849
vn -0.1475 -0.1156 0.9823
vn -0.0961 -0.1090 0.9894
vn -0.0769 -0.1093 0.9910
vn -0.0000 -0.1088 0.9941
vn -0.0000 -0.1087 0.9941
vn -0.0000 -0.1084 0.9941
vn -0.0000 0.3786 0.9256
vn -0.0000 0.3781 0.9258
vn -0.1380 0.3291 0.9341
vn -0.1577 0.3222 0.9334
vn -0.1301 0.2606 0.9566
vn -0.0972 0.2595 0.9608
vn -0.0000 0.2405 0.9706
vn -0.0000 0.2408 0.9706
vn -0.0000 0.2405 0.9707
vn -0.0000 0.2403 0.9707
vn -0.0000 -0.0000 1.0000
vn -1.0000 -0.0000 -0.0000
vn -0.9939 -0.1106 -0.0000
vn -0.9805 0.1964 -0.0000
vn -0.9289 -0.3704 -0.0000
vn -0.9289 -0.3702 -0.0000
vn -0.9715 -0.2372 -0.0000
vn -0.9715 -0.2371 -0.0000
vn -0.9716 -0.2367 -0.0000
vn -0.5026 0.8645 0.0002
vn -0.8585 0.5128 -0.0002
vn -0.5026 0.8645 -0.0000
vn -0.8586 0.5127 -0.0001
vn -0.8585 0.5128 0.0001
vn -0.8585 0.5128 -0.0000
vn -0.5029 0.8643 0.0001
vn -0.5032 0.8642 -0.0000
vn -0.9326 -0.3609 -0.0000
vn -0.7488 -0.6628 -0.0000
vn -0.9326 -0.3610 -0.0000
vn -0.8551 0.5184 -0.0000
vn -0.8550 0.5187 -0.0000
vn -0.9378 -0.3471 -0.0000
vn -0.9378 -0.3472 -0.0000
vn -0.4247 -0.9053 -0.0000
vn 0.2365 -0.9716 -0.0000
vn -0.1582 -0.9874 -0.0000
vn 0.1883 -0.9821 -0.0000
vn -0.0000 -1.0000 -0.0000
vn -0.5880 -0.8089 -0.0000
vn -0.5880 -0.8088 -0.0000
vn -0.2681 -0.9634 -0.0000
vn 0.0157 -0.9999 -0.0000
vn 0.6786 -0.7345 -0.0000
vn -0.0550 -0.9985 -0.0000
vn -0.0548 -0.9985 -0.0000
vn 0.2440 -0.9698 -0.0000
vn 0.1179 -0.9930 -0.0000
vn -0.2679 -0.9635 -0.0000
vn -0.7487 -0.6629 -0.0000
vn -0.7486 -0.6630 -0.0000
vn -0.4245 -0.9054 -0.0000
vn 0.4561 -0.8899 -0.0000
vn 0.0129 -0.2202 -0.9754
vn -0.0064 -0.2327 -0.9725
vn -0.0064 -0.2125 -0.9771
vn -0.0064 -0.2126 -0.9771
vn -0.0129 -0.2328 -0.9724
vn -0.0450 -0.2001 -0.9787
vn -0.0452 -0.1937 -0.9800
vn -0.0320 -0.1475 -0.9885
vn -0.0256 -0.1411 -0.9897
vn -0.0128 -0.1287 -0.9916
vn -0.0063 -0.1286 -0.9917
vn 0.0192 -0.1348 -0.9907
vn 0.0256 -0.1349 -0.9905
vn 0.0320 -0.1537 -0.9876
vn -0.0191 -0.1474 -0.9889
vn -0.0321 -0.1674 -0.9854
vn -0.1221 -0.1223 -0.9849
vn -0.1474 -0.1155 -0.9823
vn -0.0961 -0.1091 -0.9894
vn -0.0769 -0.1092 -0.9910
vn -0.0000 -0.1087 -0.9941
vn 0.0001 -0.1086 -0.9941
vn -0.0000 -0.1088 -0.9941
vn -0.0000 0.3788 -0.9255
vn -0.1576 0.3222 -0.9334
vn -0.1380 0.3290 -0.9342
vn -0.1301 0.2606 -0.9566
vn -0.0972 0.2594 -0.9609
vn -0.0000 0.2405 -0.9706
vn -0.0000 0.2408 -0.9706
vn -0.0000 0.2406 -0.9706
vn -0.0000 -0.0000 -1.0000
vn -0.0000 0.0004 -1.0000
vn 0.9947 0.1026 -0.0000
vn 0.9899 -0.1417 -0.0000
vn 0.9899 -0.1414 -0.0000
vn 0.9947 0.1028 -0.0000
vn 0.9289 0.3704 -0.0000
vn 0.9947 0.1027 -0.0000
vn 0.8586 -0.5126 -0.0000
vn 0.8588 -0.5122 -0.0001
vn 0.8586 -0.5127 -0.0000
vn 0.8586 -0.5126 0.0001
vn 0.7068 0.7074 -0.0000
vn 0.7068 -0.7074 -0.0000
vn 0.7066 -0.7076 -0.0000
vn 0.7067 -0.7075 -0.0000
vn 1.0000 -0.0001 -0.0000
vn 0.7067 0.7075 -0.0000
vn 0.7066 0.7076 -0.0000
vn -0.0000 0.8884 -0.4591
vn -0.0000 0.8884 0.4591
vn -0.0000 0.6296 -0.7769
vn -0.0000 0.6294 0.7771
vn -0.0000 0.6297 0.7768
vn -0.0000 0.6297 -0.7768
vn -0.0000 0.6296 0.7769
vn -0.5857 0.5058 0.6333
vn -0.0000 0.6255 0.7802
vn -0.6281 0.7781 -0.0001
vn -0.0000 1.0000 -0.0003
vn -0.5857 0.5058 -0.6333
vn -0.0000 0.6252 -0.7805
vn 0.0001 0.6296 -0.7769
vn -0.0000 1.0000 -0.0001
vn -0.0000 0.8881 0.4596
vn -0.0000 0.3213 0.9470
vn -0.0000 0.3214 0.9469
vn -0.0000 0.3212 -0.9470
vn 0.0001 0.3210 -0.9471
vn -0.0000 0.8881 -0.4596
vn -0.0001 0.8882 -0.4595
vn -0.0000 1.0000 -0.0004
vn -0.0000 0.6253 -0.7804
vn -0.0000 1.0000 0.0005
vn -0.0000 0.6256 0.7801
vn -0.0000 0.6251 0.7805
vn 0.7065 0.7077 -0.0000
vn 0.0002 1.0000 -0.0000
vn -0.7067 0.7075 -0.0000
vn -0.7065 0.7077 -0.0000
vn -0.0003 1.0000 -0.0000
vn -0.7066 0.7077 -0.0000
vn -0.7068 0.7074 -0.0000
vn -0.0001 1.0000 -0.0000
vn 0.7064 0.7078 0.0002
vn -0.0000 0.6299 0.7767
vn -0.0000 0.6306 0.7761
vn -0.0000 0.0004 1.0000
vn -0.0000 -0.0004 1.0000
vn -0.0000 -0.6299 0.7767
vn -0.0000 -0.6305 0.7762
vn -0.0000 0.6305 0.7762
vn -0.0000 0.3218 0.9468
vn -0.0000 0.3210 0.9471
vn -0.0000 0.0833 0.9965
vn -0.0000 -0.1025 0.9947
vn -0.0000 0.0574 0.9984
vn -0.0000 -0.6251 0.7805
vn -0.5474 -0.0000 0.8369
vn -0.5858 -0.5057 0.6333
vn -0.5858 0.5059 0.6332
vn -0.0001 -0.6290 0.7774
vn -0.0000 -0.0002 1.0000
vn -0.0000 -0.6298 0.7768
vn -0.0000 0.0005 1.0000
vn -0.0000 0.6290 0.7774
vn -0.0000 0.0002 1.0000
vn -0.0000 0.6297 0.7769
vn -0.0000 -0.0006 1.0000
vn -0.0000 0.2465 0.9691
vn -0.0000 0.2464 0.9692
vn -0.0000 0.3840 0.9233
vn -0.0000 0.3843 0.9232
vn -0.0000 0.2991 0.9542
vn -0.0000 0.2993 0.9542
vn -0.0000 -0.2066 0.9784
vn -0.0000 0.2982 0.9545
vn -0.0000 -0.2080 0.9781
vn -0.0000 0.2986 0.9544
vn -0.0000 -0.2064 0.9785
vn -0.0000 0.3214 0.9470
vn -0.0000 0.2333 0.9724
vn -0.0000 0.2323 0.9726
vn -0.0000 0.2325 0.9726
vn -0.0000 0.0026 1.0000
vn -0.0000 -0.0012 1.0000
vn -0.0000 -0.6253 0.7804
vn -0.0000 0.0001 1.0000
vn -0.0000 -0.0001 1.0000
vn -0.0000 0.6253 0.7804
vn -0.0000 0.0012 1.0000
vn -0.5856 0.5058 0.6335
vn -0.5856 0.5060 -0.6333
vn -0.5473 -0.0001 0.8370
vn -0.6279 0.7783 -0.0000
vn -0.5473 -0.0000 -0.8370
vn -0.5856 -0.5058 -0.6335
vn -0.5856 -0.5060 0.6333
vn -0.6279 -0.7783 -0.0000
vn -0.9989 0.0471 0.0001
vn -0.9989 0.0472 0.0005
vn -0.9989 0.0471 -0.0001
vn -0.9989 0.0472 -0.0005
vn -0.7068 -0.7074 -0.0000
vn -1.0000 -0.0001 -0.0000
vn -0.7067 0.7075 0.0003
vn -0.7067 -0.7075 -0.0000
vn -0.9947 -0.1026 -0.0000
vn -0.9899 0.1415 -0.0000
vn -0.9947 -0.1031 -0.0000
vn 0.0393 -0.9992 -0.0000
vn 0.0392 -0.9992 -0.0000
vn 0.2826 -0.9592 -0.0000
vn 0.2827 -0.9592 -0.0000
vn 0.2823 -0.9593 -0.0000
vn -0.0465 -0.9622 -0.2684
vn -0.0466 -0.9648 0.2589
vn -0.0466 -0.9648 -0.2589
vn -0.0451 -0.8744 -0.4831
vn -0.0452 -0.8740 -0.4839
vn -0.0465 -0.9622 0.2685
vn -0.0451 -0.8744 0.4831
vn -0.0452 -0.8740 0.4839
vn -0.0000 -0.6294 0.7771
vn -0.0000 -0.6297 0.7768
vn -0.0000 -0.6296 -0.7769
vn -0.0000 -0.6254 -0.7803
vn -0.6281 -0.7781 -0.0002
vn -0.5857 -0.5057 -0.6334
vn -0.5858 -0.5058 0.6332
vn -0.0000 -1.0000 -0.0001
vn -0.0000 -1.0000 0.0005
vn -0.0000 -0.6256 0.7801
vn -0.0000 -0.6251 0.7806
vn -0.0000 -1.0000 -0.0004
vn -0.0000 -0.6253 -0.7804
vn -0.0002 -0.6253 -0.7804
vn 0.0005 -1.0000 -0.0000
vn 0.7065 -0.7077 -0.0000
vn -0.7066 -0.7076 -0.0000
vn -0.7065 -0.7077 -0.0000
vn -0.0001 -1.0000 -0.0000
vn -0.2826 -0.9592 -0.0000
vn -0.2823 -0.9593 -0.0000
vn -0.2827 -0.9592 -0.0000
vn -0.0000 0.0003 -1.0000
vn -0.0000 0.6298 -0.7768
vn -0.0000 -0.0003 -1.0000
vn -0.0000 0.6306 -0.7761
vn -0.0000 -0.6298 -0.7768
vn -0.0000 -0.0004 -1.0000
vn -0.0000 -0.6305 -0.7762
vn -0.0000 0.3217 -0.9468
vn -0.0000 0.3208 -0.9471
vn -0.0000 0.6305 -0.7762
vn -0.0000 -0.1023 -0.9948
vn -0.0000 0.0834 -0.9965
vn -0.0000 0.0571 -0.9984
vn -0.5857 -0.5064 -0.6329
vn -0.0000 0.0002 -1.0000
vn -0.0000 -0.6249 -0.7807
vn -0.5475 -0.0005 -0.8368
vn -0.0000 0.6258 -0.7800
vn -0.5473 -0.0003 -0.8370
vn -0.5859 0.5055 -0.6334
vn -0.0000 0.0007 -1.0000
vn 0.0002 -0.6291 -0.7773
vn -0.0000 -0.6299 -0.7767
vn -0.0000 0.6291 -0.7773
vn -0.0000 0.6299 -0.7767
vn -0.0000 0.2466 -0.9691
vn -0.0000 0.0835 -0.9965
vn -0.0000 0.0575 -0.9983
vn -0.0000 0.3838 -0.9234
vn -0.0000 0.2991 -0.9542
vn -0.0000 0.3842 -0.9233
vn -0.0000 0.2988 -0.9543
vn -0.0000 0.2987 -0.9543
vn -0.0000 -0.2067 -0.9784
vn -0.0000 -0.2065 -0.9785
vn -0.0000 0.2986 -0.9544
vn -0.0000 -0.2064 -0.9785
vn -0.0000 -0.2063 -0.9785
vn -0.0000 0.3214 -0.9470
vn -0.0000 0.2331 -0.9725
vn -0.0000 0.2321 -0.9727
vn -0.0000 0.2332 -0.9724
vn -0.0000 0.2319 -0.9727
vn -0.0000 0.0026 -1.0000
vn -0.0000 -0.6248 -0.7808
vn -0.0000 -0.6255 -0.7803
vn -0.0000 0.6248 -0.7808
vn -0.0000 0.6255 -0.7803
vn 0.9930 0.1183 -0.0000
vn 0.9517 0.3071 -0.0000
vn 0.7949 0.6067 -0.0000
vn 0.7950 0.6066 -0.0000
vn 0.2368 0.9716 -0.0000
vn 0.7948 0.6069 -0.0000
vn 0.7945 0.6072 0.0001
vn 0.2370 0.9715 -0.0001
vn 0.0868 0.9962 -0.0000
vn -0.1654 0.9862 -0.0000
vn -0.1334 0.9911 -0.0000
vn -0.1335 0.9910 -0.0000
vn -0.4018 0.9157 -0.0000
vn -0.4020 0.9157 -0.0000
vn 0.0192 0.1797 0.9835
vn 0.0129 0.1940 0.9809
vn 0.0192 0.1802 0.9834
vn 0.0064 0.2000 0.9798
vn 0.0192 0.1805 0.9834
vn 0.0192 0.1799 0.9835
vn -0.0000 0.1152 0.9933
vn -0.0000 0.1154 0.9933
vn -0.9999 0.0157 -0.0000
vn -0.9999 0.0153 -0.0000
vn -0.1654 0.9862 -0.0001
vn -0.9352 0.3541 -0.0000
vn -0.1655 0.9862 -0.0000
vn -0.9288 -0.3707 -0.0000
vn -0.9288 -0.3706 -0.0000
vn -0.6145 -0.7889 -0.0000
vn -0.6147 -0.7887 -0.0000
vn -0.6146 -0.7889 -0.0000
vn -0.6144 -0.7890 -0.0000
vn -0.4872 -0.8733 -0.0000
vn -0.4874 -0.8732 -0.0000
vn 0.0192 0.1801 -0.9835
vn 0.0193 0.1799 -0.9835
vn 0.0129 0.1939 -0.9809
vn 0.0064 0.2005 -0.9797
vn -0.0000 0.1152 -0.9933
vn -0.0000 0.1148 -0.9934
vn 0.9989 0.0471 -0.0000
vn 0.7223 -0.6916 -0.0000
vn 0.7221 -0.6918 -0.0000
vn 0.9989 0.0472 -0.0000
vn 0.6784 0.7347 -0.0000
vn 0.9989 0.0473 -0.0000
vn 0.9989 0.0475 -0.0000
vn 0.6785 0.7346 -0.0000
vn 0.6452 -0.7640 -0.0000
vn 0.9962 -0.0868 -0.0000
vn 0.6451 -0.7641 -0.0000
vn 0.9963 -0.0865 -0.0000
vn 0.9963 -0.0864 -0.0000
vn 0.7299 0.6835 -0.0000
vn 1.0000 0.0001 -0.0000
vn 0.7067 -0.7075 0.0002
vn 0.9980 0.0629 -0.0000
vn 0.7263 -0.6874 -0.0000
vn 0.7262 -0.6875 -0.0000
vn 0.9980 0.0630 -0.0000
vn 0.6620 0.7495 -0.0000
vn 0.6619 0.7496 0.0001
vn 0.7065 0.7077 -0.0002
vn 0.0001 1.0000 -0.0000
vn 0.7297 0.6837 -0.0000
vn 0.7298 0.6836 -0.0000
vn -0.6617 0.7497 -0.0000
vn -0.6619 0.7496 -0.0000
vn 0.6783 0.7348 -0.0000
vn -0.7298 0.6837 -0.0000
vn 0.7064 0.7078 -0.0000
vn -0.0001 1.0000 -0.0002
vn -0.0002 1.0000 -0.0000
vn -0.7067 0.7075 -0.0002
vn 0.6618 0.7496 -0.0000
vn 0.6619 0.7496 -0.0000
vn -0.6783 0.7348 -0.0000
vn -0.6784 0.7347 -0.0000
vn -0.7065 0.7078 -0.0002
vn -0.0000 -0.1412 0.9900
vn -0.0000 -0.1417 0.9899
vn -0.0000 -0.1407 0.9900
vn -0.0000 -0.1413 0.9900
vn -0.0000 -0.1410 0.9900
vn -0.0000 -0.1409 0.9900
vn -0.0000 -0.1411 0.9900
vn -0.0000 0.2672 0.9636
vn -0.0000 0.2667 0.9638
vn 0.0001 0.2666 0.9638
vn -0.0000 0.2666 0.9638
vn -0.0000 0.2670 0.9637
vn -0.0000 0.2665 0.9638
vn -0.0000 0.2664 0.9639
vn -0.0000 0.2663 0.9639
vn -0.0000 -0.2058 0.9786
vn -0.0000 -0.2055 0.9787
vn -0.0000 -0.2061 0.9785
vn -0.0000 -0.2071 0.9783
vn -0.0000 -0.2075 0.9782
vn -0.7263 -0.6874 -0.0000
vn -0.9980 0.0629 -0.0000
vn -0.9980 0.0630 -0.0000
vn -0.9980 0.0631 -0.0000
vn -0.6620 0.7495 -0.0000
vn -0.7223 -0.6916 -0.0000
vn -0.9989 0.0471 -0.0000
vn -0.9989 0.0472 -0.0000
vn -0.7222 -0.6917 -0.0000
vn -1.0000 0.0001 -0.0000
vn -0.7066 0.7076 -0.0000
vn -0.6451 -0.7641 -0.0000
vn -0.9963 -0.0865 -0.0000
vn -0.6452 -0.7640 -0.0000
vn -0.9963 -0.0864 -0.0000
vn -0.7298 0.6836 -0.0000
vn -0.9989 0.0474 -0.0000
vn -0.6784 0.7346 -0.0000
vn -0.6786 0.7346 -0.0000
vn -0.9989 0.0477 -0.0000
vn 0.0001 -1.0000 -0.0000
vn 0.6449 -0.7642 -0.0000
vn 0.6450 -0.7642 -0.0000
vn -0.7261 -0.6876 -0.0000
vn -0.0002 -1.0000 -0.0000
vn 0.7221 -0.6917 -0.0000
vn 0.7220 -0.6919 -0.0000
vn 0.7261 -0.6875 -0.0000
vn 0.7261 -0.6875 0.0001
vn -0.6448 -0.7643 -0.0000
vn -0.6449 -0.7643 -0.0000
vn -0.0000 -0.1415 -0.9899
vn -0.0000 -0.1413 -0.9900
vn -0.0000 -0.1414 -0.9900
vn -0.0000 -0.1405 -0.9901
vn -0.0000 -0.1412 -0.9900
vn -0.0000 0.2667 -0.9638
vn -0.0000 0.2672 -0.9636
vn -0.0000 0.2680 -0.9634
vn -0.0000 0.2677 -0.9635
vn -0.0000 0.2662 -0.9639
vn -0.0000 0.2665 -0.9638
vn -0.0000 -0.2069 -0.9784
vn -0.0000 -0.2066 -0.9784
vn -0.0000 -0.2060 -0.9786
vn -0.0000 -0.2058 -0.9786
vt 44.027401 0.936065
vt 43.959000 1.036580
vt 43.972599 0.936065
vt 44.041000 1.036580
vt 43.984001 1.141230
vt 43.984001 1.116130
vt 43.990398 1.141230
vt 43.990398 1.116130
vt 43.984001 1.053730
vt 43.990398 1.053730
vt 44.009602 1.116130
vt 44.015999 1.141230
vt 44.009602 1.141230
vt 44.015999 1.116130
vt 44.015999 1.053730
vt 44.009602 1.053730
vt 43.973801 1.084370
vt 44.026199 1.084370
vt 43.990398 1.109310
vt 44.009602 1.109310
vt 44.021900 0.902728
vt 44.021900 1.018040
vt 43.978100 1.018040
vt 43.978100 0.902728
vt 43.978100 0.894792
vt 44.021900 0.894792
vt 43.978100 0.878919
vt 44.021900 0.878919
vt 43.984001 1.094850
vt 44.015999 1.114460
vt 43.984001 1.114460
vt 44.015999 1.094850
vt 43.984001 1.060590
vt 44.015999 1.060590
vt 44.301899 1.016000
vt 43.971901 1.016000
vt 44.301899 1.009600
vt 43.971901 1.009600
vt 44.301899 0.990400
vt 43.971901 0.984000
vt 44.301899 0.984000
vt 43.971901 0.990400
vt 43.956200 0.977600
vt 43.993801 0.977600
vt 43.956200 1.022400
vt 43.938801 1.022400
vt 43.938801 0.977600
vt 43.993801 1.022400
vt 43.926300 1.022400
vt 43.926300 0.977600
vt 43.905300 1.022400
vt 43.905300 0.977600
vt 43.891300 1.022400
vt 43.891300 0.977600
vt 43.849602 1.022400
vt 43.849602 0.977600
vt 43.803398 1.022400
vt 43.803398 0.977600
vt 43.778099 1.026210
vt 43.778099 0.973792
vt 43.731899 1.026210
vt 43.731899 0.973792
vt 43.693699 1.026210
vt 43.693699 0.973792
vt 43.977200 0.990400
vt 44.311798 0.990400
vt 44.311798 1.009600
vt 43.977200 1.009600
vt 43.961300 0.990400
vt 43.961300 1.009600
vt 44.003700 0.987500
vt 44.078300 0.977600
vt 44.078300 0.987500
vt 44.173801 0.987500
vt 44.318699 0.977600
vt 44.003700 1.012500
vt 44.318699 1.022400
vt 44.173801 1.012500
vt 44.078300 1.022400
vt 44.078300 1.012500
vt 43.919998 1.036580
vt 43.691200 0.998849
vt 43.925301 0.986389
vt 43.676300 1.036580
vt 44.006199 1.006580
vt 44.006199 1.036580
vt 44.043800 1.006580
vt 44.043800 1.036580
vt 44.061199 1.036580
vt 44.061199 0.996577
vt 44.073700 1.036580
vt 44.073700 0.964077
vt 44.087200 0.964077
vt 44.094700 1.036580
vt 44.108700 1.036580
vt 44.150398 0.988842
vt 44.150398 1.036580
vt 44.196602 1.036580
vt 44.196602 0.950639
vt 44.221901 1.036580
vt 44.221901 0.934373
vt 44.252998 0.934548
vt 44.268101 1.036580
vt 44.306198 0.936065
vt 44.323700 1.036580
vt 43.921700 1.061580
vt 43.681301 1.061580
vt 44.006199 1.061580
vt 44.043800 1.061580
vt 44.061199 1.061580
vt 44.073700 1.061580
vt 44.094700 1.061580
vt 44.108700 1.061580
vt 44.150398 1.061580
vt 44.196602 1.061580
vt 44.221901 1.084370
vt 44.268101 1.084370
vt 44.306301 1.084370
vt 44.000999 1.018040
vt 43.954399 0.884519
vt 44.029099 0.902728
vt 43.926300 0.999826
vt 44.031101 0.894792
vt 43.948399 0.874648
vt 43.952301 0.858775
vt 44.034901 0.878919
vt 43.683300 1.106200
vt 43.711800 1.094850
vt 43.698101 1.131640
vt 43.683300 1.060590
vt 43.711800 1.060590
vt 43.725601 1.114460
vt 44.028099 1.141230
vt 44.003300 1.112480
vt 44.048199 1.116130
vt 44.016998 1.096230
vt 44.048199 1.053730
vt 44.016998 1.053730
vt 44.022800 1.119210
vt 43.688202 1.114050
vt 44.038700 1.109310
vt 44.038700 1.053730
vt 44.015999 1.106200
vt 43.984001 1.106200
vt 43.965000 1.036580
vt 44.035000 1.036580
vt 43.977600 1.061580
vt 44.022400 1.061580
vt 43.976601 0.998849
vt 44.023399 0.998849
vt 43.978100 0.858775
vt 44.021900 0.874648
vt 43.978100 0.874648
vt 44.021900 0.858775
vt 43.978100 0.999826
vt 43.978100 0.884519
vt 44.021900 0.884519
vt 44.021900 0.999826
vt 44.009602 1.131640
vt 44.009602 1.114050
vt 44.015999 1.131640
vt 43.990398 1.114050
vt 43.984001 1.131640
vt 43.990398 1.131640
vt 43.976601 0.964077
vt 44.028099 0.996577
vt 43.971901 0.996577
vt 44.023399 0.964077
vt 43.984001 1.096230
vt 44.015999 1.096230
vt 44.015999 1.112480
vt 43.984001 1.112480
vt 43.952301 0.978112
vt 44.034901 0.978112
vt 44.034901 1.021890
vt 43.952301 1.021890
vt 44.150398 0.976596
vt 44.087200 1.023400
vt 44.087200 0.976596
vt 44.073700 1.023400
vt 44.073700 0.976596
vt 44.150398 1.023400
vt 44.196602 0.976596
vt 44.196602 1.023400
vt 44.221901 0.972617
vt 44.221901 1.027380
vt 44.252998 0.972617
vt 44.252998 1.027380
vt 44.306198 0.972617
vt 44.306198 1.027380
vt 43.691200 0.976596
vt 43.925301 0.976596
vt 43.925301 1.023400
vt 43.691200 1.023400
vt 44.006199 0.976596
vt 44.006199 1.023400
vt 44.043800 0.971915
vt 44.043800 1.028080
vt 44.061199 0.971915
vt 44.061199 1.028080
vt 44.048199 0.984000
vt 44.038700 0.990400
vt 44.016998 0.984000
vt 44.048199 0.990400
vt 44.016998 1.016000
vt 44.038700 1.009600
vt 44.048199 1.016000
vt 44.048199 1.009600
vt 43.683300 0.984000
vt 43.711800 0.984000
vt 43.683300 1.016000
vt 43.711800 1.016000
vt 44.003300 1.016000
vt 43.725601 1.016000
vt 44.003300 0.984000
vt 43.725601 0.984000
vt 44.080002 1.036580
vt 43.993801 1.006580
vt 44.074699 0.986389
vt 44.308800 0.998849
vt 43.993801 1.036580
vt 43.956200 1.036580
vt 43.956200 1.006580
vt 43.938801 1.036580
vt 43.938801 0.996577
vt 43.926300 1.036580
vt 43.926300 0.964077
vt 43.912800 0.964077
vt 43.905300 1.036580
vt 43.891300 1.036580
vt 43.849602 0.988842
vt 43.849602 1.036580
vt 43.803398 1.036580
vt 43.803398 0.950639
vt 43.778099 1.036580
vt 43.778099 0.934373
vt 43.747002 0.934548
vt 43.731899 1.036580
vt 43.693802 0.936065
vt 44.078300 1.061580
vt 44.318699 1.061580
vt 43.993801 1.061580
vt 43.956200 1.061580
vt 43.938801 1.061580
vt 43.926300 1.061580
vt 43.905300 1.061580
vt 43.891300 1.061580
vt 43.849602 1.061580
vt 43.803398 1.061580
vt 43.778099 1.084370
vt 43.731899 1.084370
vt 43.693699 1.084370
vt 43.999001 1.018040
vt 44.045601 0.884519
vt 44.073700 0.999826
vt 43.970901 0.902728
vt 43.968899 0.894792
vt 44.051601 0.874648
vt 44.047699 0.858775
vt 43.965099 0.878919
vt 43.983002 1.096230
vt 43.951801 1.116130
vt 43.951801 1.053730
vt 43.983002 1.053730
vt 43.996700 1.112480
vt 43.971901 1.141230
vt 44.274399 1.114460
vt 44.301899 1.131640
vt 44.288200 1.094850
vt 44.316700 1.106200
vt 44.316700 1.060590
vt 44.288200 1.060590
vt 43.977200 1.119210
vt 44.311798 1.114050
vt 43.961300 1.109310
vt 43.961300 1.053730
vt 16.043900 -41.000198
vt 15.956100 -41.000198
vt 16.030701 -41.103600
vt 15.969300 -41.103600
vt 16.028500 -40.950199
vt 15.971500 -40.950199
vt 15.975800 -40.973099
vt 16.038000 -40.999901
vt 16.024200 -40.973099
vt 15.962000 -40.999901
vt 16.029800 -41.032001
vt 15.965600 -41.014000
vt 15.970200 -41.032001
vt 16.034401 -41.014000
vt 16.005600 -40.895199
vt 15.994400 -40.895199
vt 16.000000 -40.897301
vt 15.995400 -40.899200
vt 16.004601 -40.899200
vt 15.991300 -40.898300
vt 16.008699 -40.898300
vt 15.993400 -40.903801
vt 16.006599 -40.903801
vt 15.991300 -40.914700
vt 16.008699 -40.914700
vt 15.995400 -40.908501
vt 16.004601 -40.908501
vt 16.000000 -40.910400
vt 16.021900 -41.044701
vt 16.011000 -41.068802
vt 16.021900 -41.063999
vt 15.978100 -41.044701
vt 15.989000 -41.068802
vt 15.978100 -41.063999
vt 15.990900 -40.917400
vt 16.009100 -40.912701
vt 15.990900 -40.912701
vt 16.009100 -40.917400
vt 15.990900 -40.922100
vt 16.009100 -40.922100
vt 16.009100 -40.923000
vt 15.990900 -40.926899
vt 16.009100 -40.926899
vt 15.990900 -40.923000
vt 16.009100 -40.919102
vt 15.990900 -40.919102
vt 16.012501 -40.974800
vt 15.987500 -40.978600
vt 16.012501 -40.978600
vt 15.987500 -40.974800
vt 15.991200 -40.905201
vt 15.995400 -40.909801
vt 15.993400 -40.905201
vt 15.991200 -40.918598
vt 16.000000 -40.911800
vt 16.008801 -40.918598
vt 16.004601 -40.909801
vt 16.008801 -40.905201
vt 16.006599 -40.905201
vt 15.999900 -40.905300
vt 16.002899 -40.914398
vt 16.000099 -40.905300
vt 15.997100 -40.914398
vt 16.013599 -41.015900
vt 16.000000 -41.016899
vt 16.000000 -41.021500
vt 15.986400 -41.015900
vt 16.010500 -41.012600
vt 15.989500 -41.012600
vt 15.980800 -41.002102
vt 15.985200 -41.002102
vt 16.019199 -41.002102
vt 16.014799 -41.002102
vt 16.010500 -40.991699
vt 16.013599 -40.988400
vt 16.000000 -40.987301
vt 16.000000 -40.982700
vt 15.986400 -40.988400
vt 15.989500 -40.991699
vt 15.921100 -41.005600
vt 15.921100 -40.994400
vt 15.916200 -41.005600
vt 15.916200 -40.994400
vt 15.921100 -41.000000
vt 15.921100 -40.995399
vt 15.916200 -40.995399
vt 15.916200 -41.000000
vt 15.921100 -41.004601
vt 15.916200 -41.004601
vt 16.232000 -41.008801
vt 16.227100 -41.006599
vt 16.227100 -41.008801
vt 16.232000 -41.006599
vt 16.232000 -40.991199
vt 16.227100 -40.991199
vt 16.232000 -40.993401
vt 16.227100 -40.993401
vt 16.228800 -41.000099
vt 16.230499 -41.000099
vt 16.230499 -40.999901
vt 16.228800 -40.999901
vt 16.232000 -41.000000
vt 16.232000 -40.995399
vt 16.227100 -40.995399
vt 16.227100 -41.000000
vt 16.232000 -41.004601
vt 16.227100 -41.004601
vt 16.341400 -41.009701
vt 16.395100 -41.009701
vt 16.341400 -41.000000
vt 16.395100 -41.000000
vt 16.341400 -40.990299
vt 16.395100 -40.990299
vt 16.240101 -41.010399
vt 16.324100 -41.010399
vt 16.240101 -41.000000
vt 16.324100 -41.000000
vt 16.240101 -40.989601
vt 16.324100 -40.989601
vt 15.921100 -40.991299
vt 15.916200 -40.991299
vt 15.916200 -41.008701
vt 15.921100 -41.008701
vt 15.657400 -41.028500
vt 15.657400 -40.971500
vt 15.624900 -41.028500
vt 15.624900 -40.971500
vt 16.324100 -41.013599
vt 16.395100 -41.013599
vt 16.395100 -40.986401
vt 16.324100 -40.986401
vt 15.918800 -41.009102
vt 15.914100 -40.990898
vt 15.914100 -41.009102
vt 15.918800 -40.990898
vt 15.923500 -41.009102
vt 15.923500 -40.990898
vt 16.233601 -41.009102
vt 16.229700 -40.990898
vt 16.229700 -41.009102
vt 16.233601 -40.990898
vt 16.225800 -40.990898
vt 16.225800 -41.009102
vt 15.751400 -41.024200
vt 15.870600 -41.024200
vt 15.870600 -40.975800
vt 15.751400 -40.975800
vt 16.107401 -41.012501
vt 15.937400 -40.987499
vt 15.937400 -41.012501
vt 16.107401 -40.987499
vt 16.078899 -40.908501
vt 16.083799 -40.908501
vt 16.083799 -40.903801
vt 16.078899 -40.903801
vt 16.083799 -40.899200
vt 16.078899 -40.899200
vt 15.768000 -40.909801
vt 15.772900 -40.909801
vt 15.772900 -40.905201
vt 15.768000 -40.905201
vt 16.362600 -41.000198
vt 16.347601 -41.104801
vt 16.380199 -41.103600
vt 16.395100 -41.000198
vt 15.604900 -40.992298
vt 15.658600 -41.002102
vt 15.658600 -40.992298
vt 15.604900 -41.002102
vt 15.658600 -41.011902
vt 15.604900 -41.011902
vt 15.759900 -41.012600
vt 15.675900 -41.002102
vt 15.675900 -41.012600
vt 15.759900 -41.002102
vt 15.675900 -40.991699
vt 15.759900 -40.991699
vt 16.375099 -40.950199
vt 16.342600 -40.950199
vt 16.248600 -40.973099
vt 16.129400 -40.973099
vt 16.248600 -40.999901
vt 16.129400 -40.999901
vt 16.200899 -41.014000
vt 16.177099 -41.014000
vt 16.177099 -41.032001
vt 16.200899 -41.032001
vt 15.959200 -41.063999
vt 15.764000 -41.034901
vt 15.763100 -41.054798
vt 15.970500 -41.044701
vt 16.078899 -40.898300
vt 16.078899 -40.914700
vt 16.083799 -40.914700
vt 16.083799 -40.898300
vt 15.769500 -40.905300
vt 15.769500 -40.914398
vt 15.771200 -40.914398
vt 15.771200 -40.905300
vt 16.074600 -40.917400
vt 16.085899 -40.912701
vt 16.076500 -40.912701
vt 16.081200 -40.910801
vt 16.081200 -40.924000
vt 16.076500 -40.922100
vt 16.085899 -40.922100
vt 16.087799 -40.917400
vt 15.764800 -40.923000
vt 15.770300 -40.928501
vt 15.766400 -40.919102
vt 15.766400 -40.926899
vt 15.774200 -40.919102
vt 15.770300 -40.917500
vt 15.775800 -40.923000
vt 15.774200 -40.926899
vt 15.772900 -40.918598
vt 15.768000 -40.918598
vt 15.604900 -41.015900
vt 15.675900 -41.015900
vt 15.675900 -40.988400
vt 15.604900 -40.988400
vt 15.892600 -40.978600
vt 16.062599 -40.978600
vt 15.988100 -40.974800
vt 16.062599 -40.974800
vt 15.892600 -40.974800
vt 16.000000 -40.988201
vt 16.009701 -40.992298
vt 16.013700 -41.002102
vt 15.990300 -40.992298
vt 15.986300 -41.002102
vt 15.990300 -41.011902
vt 16.000000 -41.015999
vt 16.009701 -41.011902
vt 15.989000 -41.059601
vt 15.978100 -41.034901
vt 15.978100 -41.054798
vt 16.021900 -41.034901
vt 16.011000 -41.059601
vt 16.021900 -41.054798
vt 15.969300 -41.104801
vt 16.030701 -41.104801
vt 16.380199 -41.030701
vt 16.380199 -40.969299
vt 16.347601 -41.030701
vt 16.347601 -40.969299
vt 16.200899 -41.034401
vt 16.248600 -41.037998
vt 16.200899 -40.965599
vt 16.248600 -40.962002
vt 15.956200 -41.011002
vt 15.762800 -40.988998
vt 15.762800 -41.011002
vt 15.763100 -41.021900
vt 15.959200 -41.021900
vt 15.956200 -40.988998
vt 15.763100 -40.978100
vt 15.959200 -40.978100
vt 16.200899 -41.029800
vt 16.200899 -40.970200
vt 16.177099 -41.029800
vt 16.177099 -40.970200
vt 16.078899 -41.004601
vt 16.083799 -41.004601
vt 16.083799 -41.000000
vt 16.078899 -41.000000
vt 16.083799 -40.995399
vt 16.078899 -40.995399
vt 15.604900 -40.990299
vt 15.658600 -41.000000
vt 15.658600 -40.990299
vt 15.604900 -41.000000
vt 15.658600 -41.009701
vt 15.604900 -41.009701
vt 15.759900 -41.000000
vt 15.675900 -40.989601
vt 15.675900 -41.000000
vt 15.759900 -40.989601
vt 15.759900 -41.010399
vt 15.675900 -41.010399
vt 15.675900 -40.986401
vt 15.604900 -40.986401
vt 15.604900 -41.013599
vt 15.675900 -41.013599
vt 16.081200 -40.990898
vt 16.085899 -41.009102
vt 16.085899 -40.990898
vt 16.081200 -41.009102
vt 16.076500 -40.990898
vt 16.076500 -41.009102
vt 15.770300 -41.009102
vt 15.766400 -40.990898
vt 15.766400 -41.009102
vt 15.770300 -40.990898
vt 15.774200 -41.009102
vt 15.774200 -40.990898
vt 16.177099 -41.034401
vt 16.129400 -40.962002
vt 16.129400 -41.037998
vt 16.177099 -40.965599
vt 15.771200 -41.002899
vt 15.771200 -40.997101
vt 15.769500 -41.002899
vt 15.769500 -40.997101
vt 15.916200 -40.903801
vt 15.921100 -40.908501
vt 15.921100 -40.903801
vt 15.916200 -40.908501
vt 15.916200 -40.899200
vt 15.921100 -40.899200
vt 16.227100 -40.905201
vt 16.232000 -40.909801
vt 16.232000 -40.905201
vt 16.227100 -40.909801
vt 15.619800 -41.103600
vt 15.637400 -41.000198
vt 15.604900 -41.000198
vt 15.652400 -41.104801
vt 16.341400 -40.992298
vt 16.395100 -41.002102
vt 16.395100 -40.992298
vt 16.341400 -41.002102
vt 16.395100 -41.011902
vt 16.341400 -41.011902
vt 16.324100 -41.012600
vt 16.240101 -41.002102
vt 16.240101 -41.012600
vt 16.324100 -41.002102
vt 16.240101 -40.991699
vt 16.324100 -40.991699
vt 15.624900 -40.950199
vt 15.657400 -40.950199
vt 15.751400 -40.973099
vt 15.870600 -40.999901
vt 15.870600 -40.973099
vt 15.751400 -40.999901
vt 15.799100 -41.014000
vt 15.822900 -41.014000
vt 15.799100 -41.032001
vt 15.822900 -41.032001
vt 16.040800 -41.063999
vt 16.236000 -41.034901
vt 16.029499 -41.044701
vt 16.236900 -41.054798
vt 15.916200 -40.898300
vt 15.921100 -40.914700
vt 15.921100 -40.898300
vt 15.916200 -40.914700
vt 16.228800 -40.905300
vt 16.230499 -40.914398
vt 16.230499 -40.905300
vt 16.228800 -40.914398
vt 15.914100 -40.912701
vt 15.914100 -40.922100
vt 15.918800 -40.924000
vt 15.912200 -40.917400
vt 15.925400 -40.917400
vt 15.923500 -40.922100
vt 15.923500 -40.912701
vt 15.918800 -40.910801
vt 16.229700 -40.928501
vt 16.225800 -40.919102
vt 16.224199 -40.923000
vt 16.225800 -40.926899
vt 16.233601 -40.919102
vt 16.229700 -40.917500
vt 16.235201 -40.923000
vt 16.233601 -40.926899
vt 16.232000 -40.918598
vt 16.227100 -40.918598
vt 16.324100 -41.015900
vt 16.395100 -41.015900
vt 16.395100 -40.988400
vt 16.324100 -40.988400
vt 15.937400 -40.978600
vt 16.107401 -40.978600
vt 16.011900 -40.974800
vt 16.107401 -40.974800
vt 15.937400 -40.974800
vt 34.007000 -15.009100
vt 33.990002 -15.021600
vt 34.009998 -15.021600
vt 33.993000 -15.009100
vt 33.995800 -14.999100
vt 34.004200 -14.999100
vt 34.004200 -14.986600
vt 33.995800 -14.986600
vt 33.992298 -15.004200
vt 33.983700 -14.995800
vt 33.983700 -15.004200
vt 33.992298 -14.995800
vt 33.999298 -15.004200
vt 33.999298 -14.995800
vt 33.995098 -15.007000
vt 34.013100 -15.007000
vt 34.013100 -14.993000
vt 34.023800 -15.010000
vt 34.023800 -14.990000
vt 33.995098 -14.993000
vt 34.023800 -15.021600
vt 34.004902 -15.009100
vt 33.976200 -15.021600
vt 34.023800 -15.009100
vt 33.986900 -15.009100
vt 33.976200 -15.013800
vt 34.012402 -14.999100
vt 34.021301 -14.999100
vt 34.012402 -14.991600
vt 34.016300 -14.986600
vt 34.006199 -14.983900
vt 34.007702 -14.979000
vt 34.000599 -14.980800
vt 34.000702 -14.978400
vt 33.990002 -15.013800
vt 34.009998 -15.013800
vt 33.995800 -14.980800
vt 34.004200 -14.980800
vt 33.995800 -14.978400
vt 34.004200 -14.978400
vt 34.004200 -14.991600
vt 33.995800 -14.991600
vt 34.004200 -14.983900
vt 33.995800 -14.983900
vt 34.006199 -15.004200
vt 34.006199 -14.995800
vt 34.000599 -14.995800
vt 34.000599 -15.004200
vt 34.013100 -15.009100
vt 34.023800 -15.013800
vt 33.995098 -15.009100
vt 33.976200 -15.009100
vt 33.987598 -14.999100
vt 33.978699 -14.999100
vt 33.987598 -14.991600
vt 33.983700 -14.986600
vt 33.993801 -14.983900
vt 33.992298 -14.979000
vt 33.999401 -14.980800
vt 33.999298 -14.978400
vt 28.030500 -57.086899
vt 27.970301 -57.091301
vt 28.029699 -57.091301
vt 27.969500 -57.086899
vt 28.031300 -57.082600
vt 27.968700 -57.082600
vt 28.031200 -56.959599
vt 27.970301 -56.955502
vt 27.968800 -56.959599
vt 28.029699 -56.955502
vt 28.028299 -56.951302
vt 27.971701 -56.951302
vt 27.990299 -56.912701
vt 28.009701 -56.908600
vt 27.990299 -56.908600
vt 28.009701 -56.912701
vt 27.990299 -56.916801
vt 28.009701 -56.916801
vt 28.027901 -57.031898
vt 27.973301 -57.036201
vt 28.026699 -57.036201
vt 27.972099 -57.031898
vt 28.028999 -57.027599
vt 27.971001 -57.027599
vt 28.009701 -56.918301
vt 27.990299 -56.921700
vt 28.009701 -56.921700
vt 27.990299 -56.918301
vt 28.009701 -56.914902
vt 27.990299 -56.914902
vt 27.759100 -57.027699
vt 27.754601 -56.971699
vt 27.754601 -57.028301
vt 27.759100 -56.972301
vt 28.058500 -57.028999
vt 28.054100 -56.970501
vt 28.054100 -57.029499
vt 28.058500 -56.971001
vt 27.716600 -57.031601
vt 27.712099 -56.968700
vt 27.712099 -57.031300
vt 27.716600 -56.968399
vt 27.763500 -57.028301
vt 27.763500 -56.971699
vt 27.974001 -57.009701
vt 27.969900 -56.990299
vt 27.969900 -57.009701
vt 27.974001 -56.990299
vt 27.978100 -57.009701
vt 27.978100 -56.990299
vt 28.049601 -57.028999
vt 28.049601 -56.971001
vt 27.721001 -57.031300
vt 27.721001 -56.968700
vt 28.288300 -57.009701
vt 28.284901 -56.990299
vt 28.284901 -57.009701
vt 28.288300 -56.990299
vt 28.281500 -56.990299
vt 28.281500 -57.009701
vt 28.278999 -57.091301
vt 28.278999 -57.082600
vt 28.277201 -57.086899
vt 28.283400 -57.080700
vt 28.283400 -57.093102
vt 28.287901 -57.091301
vt 28.287901 -57.082600
vt 28.289700 -57.086899
vt 28.236500 -56.959599
vt 28.236500 -56.951302
vt 28.234699 -56.955502
vt 28.240900 -56.949600
vt 28.240900 -56.961399
vt 28.245399 -56.959599
vt 28.245399 -56.951302
vt 28.247200 -56.955502
vt 27.941500 -57.036201
vt 27.941500 -57.027599
vt 27.939699 -57.031898
vt 27.945900 -57.037998
vt 27.945900 -57.025902
vt 27.950399 -57.027599
vt 27.950399 -57.036201
vt 27.952200 -57.031898
vt 28.240900 -56.968300
vt 28.245399 -57.031200
vt 28.245399 -56.968800
vt 28.240900 -57.031700
vt 27.945900 -57.026299
vt 27.941500 -56.973301
vt 27.941500 -57.026699
vt 27.945900 -56.973701
vt 28.287901 -57.029701
vt 28.283400 -56.970600
vt 28.283400 -57.029400
vt 28.287901 -56.970299
vt 28.278999 -57.029701
vt 28.278999 -56.970299
vt 27.950399 -57.026699
vt 27.950399 -56.973301
vt 28.025999 -56.990299
vt 28.030100 -57.009701
vt 28.030100 -56.990299
vt 28.025999 -57.009701
vt 28.021900 -56.990299
vt 28.021900 -57.009701
vt 28.236500 -56.968800
vt 28.236500 -57.031200
vt 27.715099 -57.009701
vt 27.711700 -56.990299
vt 27.711700 -57.009701
vt 27.715099 -56.990299
vt 27.718500 -57.009701
vt 27.718500 -56.990299
vt 27.712099 -57.091301
vt 27.716600 -57.080700
vt 27.712099 -57.082600
vt 27.710300 -57.086899
vt 27.716600 -57.093102
vt 27.721001 -57.091301
vt 27.721001 -57.082600
vt 27.722799 -57.086899
vt 27.754601 -56.959599
vt 27.759100 -56.949600
vt 27.754601 -56.951302
vt 27.752800 -56.955502
vt 27.759100 -56.961399
vt 27.763500 -56.959599
vt 27.763500 -56.951302
vt 27.765301 -56.955502
vt 28.049601 -57.027599
vt 28.049601 -57.036201
vt 28.054100 -57.037998
vt 28.047800 -57.031898
vt 28.054100 -57.025902
vt 28.058500 -57.027599
vt 28.058500 -57.036201
vt 28.060301 -57.031898
s 1
usemtl Meshpart1Mtl.002
f 1/1/1 3/2/2 2/3/3
f 4/4/4 3/2/2 1/1/1
f 5/5/5 7/6/6 6/7/7
f 8/8/6 6/7/7 7/6/6
f 7/6/6 9/9/8 8/8/6
f 10/10/8 8/8/6 9/9/8
f 13/11/9 11/12/10 12/13/11
f 11/12/10 13/11/9 14/14/12
f 13/11/9 15/15/8 14/14/12
f 15/15/8 13/11/9 16/16/8
f 17/17/13 19/4/14 18/18/15
f 19/4/14 17/17/13 20/2/16
f 22/19/17 23/10/8 21/20/17
f 24/16/8 21/20/17 23/10/8
f 25/21/18 26/22/19 27/23/19
f 25/21/18 27/23/19 28/24/18
f 25/21/18 28/24/18 29/25/20
f 29/25/20 30/26/20 25/21/18
f 30/26/20 29/25/20 31/27/21
f 31/27/21 32/28/21 30/26/20
f 35/29/22 34/30/23 33/31/23
f 34/30/23 35/29/22 36/32/22
f 36/32/22 35/29/22 37/33/8
f 38/34/8 36/32/22 37/33/8
f 39/35/24 40/36/25 41/37/24
f 42/38/25 41/37/24 40/36/25
f 44/39/26 45/40/25 43/41/26
f 45/40/25 44/39/26 46/42/25
f 47/43/27 48/44/27 49/45/27
f 47/43/27 49/45/27 50/46/27
f 50/46/27 51/47/27 47/43/27
f 48/44/27 52/48/27 49/45/27
f 51/47/27 50/46/27 53/49/27
f 53/49/27 54/50/27 51/47/27
f 54/50/27 53/49/27 55/51/27
f 55/51/27 56/52/27 54/50/27
f 56/52/27 55/51/27 57/53/27
f 57/53/27 58/54/27 56/52/27
f 58/54/27 57/53/27 59/55/27
f 60/56/27 58/54/27 59/55/27
f 60/56/27 59/55/27 61/57/28
f 62/58/29 60/56/27 61/57/28
f 62/58/29 61/57/28 63/59/30
f 63/59/30 64/60/31 62/58/29
f 64/60/31 63/59/30 65/61/27
f 66/62/27 64/60/31 65/61/27
f 66/62/27 65/61/27 67/63/32
f 68/64/32 66/62/27 67/63/32
f 69/65/33 70/66/34 71/67/35
f 69/65/33 71/67/35 72/68/33
f 69/65/33 72/68/33 73/69/36
f 73/69/36 72/68/33 74/70/37
f 75/71/27 76/72/27 77/73/27
f 78/74/27 77/73/27 76/72/27
f 76/72/27 75/71/27 48/44/27
f 76/72/27 79/75/27 78/74/27
f 80/76/27 48/44/27 75/71/27
f 81/77/27 78/74/27 79/75/27
f 48/44/27 80/76/27 52/48/27
f 78/74/27 81/77/27 82/78/27
f 80/76/27 83/79/27 52/48/27
f 81/77/27 83/79/27 82/78/27
f 83/79/27 80/76/27 84/80/27
f 82/78/27 83/79/27 84/80/27
f 85/81/38 86/82/39 87/83/40
f 86/82/39 85/81/38 88/84/41
f 87/83/40 89/85/42 85/81/38
f 90/86/43 85/81/38 89/85/42
f 91/87/44 90/86/43 89/85/42
f 90/86/43 91/87/44 92/88/45
f 91/87/44 93/89/46 92/88/45
f 93/89/46 91/87/44 94/90/47
f 93/89/46 94/90/47 95/91/48
f 96/92/49 95/91/48 94/90/47
f 97/93/50 95/91/48 96/92/49
f 95/91/48 97/93/50 98/94/51
f 97/93/50 99/95/52 98/94/51
f 99/95/52 97/93/50 100/96/53
f 99/95/52 100/96/53 101/97/54
f 100/96/53 102/98/55 101/97/54
f 102/98/55 100/96/53 103/99/56
f 103/99/56 104/100/57 102/98/55
f 104/100/57 103/99/56 105/101/58
f 106/102/59 104/100/57 105/101/58
f 104/100/57 106/102/59 107/103/60
f 108/104/60 107/103/60 106/102/59
f 107/103/60 108/104/60 109/105/61
f 110/106/62 111/107/62 112/81/62
f 113/84/63 112/81/62 111/107/62
f 112/81/62 114/86/62 110/106/62
f 115/108/62 110/106/62 114/86/62
f 116/88/62 115/108/62 114/86/62
f 115/108/62 116/88/62 117/109/62
f 118/89/62 117/109/62 116/88/62
f 117/109/62 118/89/62 119/110/62
f 120/91/62 119/110/62 118/89/62
f 119/110/62 120/91/62 121/111/62
f 122/94/62 121/111/62 120/91/62
f 121/111/62 122/94/62 123/112/62
f 124/95/62 123/112/62 122/94/62
f 123/112/62 124/95/62 125/113/62
f 126/97/62 125/113/62 124/95/62
f 125/113/62 126/97/62 127/114/62
f 128/98/64 127/114/62 126/97/62
f 127/114/62 128/98/64 129/115/65
f 130/100/66 129/115/65 128/98/64
f 130/100/66 131/116/67 129/115/65
f 132/103/68 131/116/67 130/100/66
f 131/116/67 132/103/68 133/117/69
f 132/103/68 134/118/70 133/117/69
f 134/118/70 132/103/68 135/105/71
f 136/119/72 137/120/72 138/121/72
f 137/120/72 136/119/72 139/122/72
f 137/120/72 140/123/72 138/121/72
f 140/123/72 137/120/72 141/124/72
f 140/123/72 141/124/72 142/125/72
f 142/125/72 143/126/72 140/123/72
f 144/127/72 145/128/72 146/129/72
f 145/128/72 144/127/72 147/130/72
f 145/128/72 147/130/72 148/131/72
f 145/128/72 149/132/72 146/129/72
f 150/133/72 146/129/72 149/132/72
f 149/132/72 151/134/72 150/133/72
f 152/135/72 150/133/72 151/134/72
f 152/135/72 151/134/72 153/136/72
f 153/136/72 154/137/72 152/135/72
f 153/136/72 155/138/72 154/137/72
f 156/133/72 157/129/72 158/139/72
f 159/140/72 158/139/72 157/129/72
f 158/139/72 160/135/72 156/133/72
f 160/135/72 158/139/72 161/141/72
f 161/141/72 162/137/72 160/135/72
f 162/137/72 161/141/72 163/142/72
f 164/33/73 165/143/73 166/144/73
f 165/143/73 164/33/73 167/34/73
f 168/145/74 169/146/74 170/147/75
f 170/147/75 169/146/74 171/148/75
f 172/149/76 169/146/74 168/145/74
f 169/146/74 172/149/76 173/150/77
f 174/151/78 175/152/78 176/153/79
f 175/152/78 174/151/78 177/154/80
f 178/155/79 179/156/79 180/157/79
f 178/155/79 180/157/79 181/158/79
f 183/159/81 184/160/82 182/161/83
f 185/143/84 182/161/83 184/160/82
f 186/144/85 185/143/84 184/160/82
f 186/144/85 184/160/82 187/162/86
f 188/163/87 186/144/85 187/162/86
f 188/163/87 187/162/86 189/164/88
f 192/165/89 191/166/90 190/167/90
f 191/166/90 192/165/89 193/168/91
f 194/153/92 195/157/92 196/156/92
f 195/157/92 194/153/92 197/152/93
f 198/169/94 199/9/73 200/15/73
f 198/169/94 200/15/73 201/170/95
f 198/169/94 201/170/95 202/171/96
f 202/171/96 203/172/96 198/169/94
f 204/173/97 205/174/97 206/175/97
f 204/173/97 206/175/97 207/176/97
f 208/177/98 209/178/99 210/179/99
f 211/180/100 210/179/99 209/178/99
f 210/179/99 211/180/100 212/181/100
f 209/178/99 208/177/98 213/182/98
f 214/183/101 213/182/98 208/177/98
f 213/182/98 214/183/101 215/184/102
f 216/185/103 215/184/102 214/183/101
f 215/184/102 216/185/103 217/186/103
f 218/187/104 217/186/103 216/185/103
f 217/186/103 218/187/104 219/188/104
f 220/189/105 219/188/104 218/187/104
f 219/188/104 220/189/105 221/190/105
f 222/191/106 223/192/107 224/193/106
f 222/191/106 224/193/106 225/194/106
f 226/192/108 227/195/109 228/196/109
f 226/192/108 228/196/109 229/193/108
f 230/197/103 228/196/109 227/195/109
f 228/196/109 230/197/103 231/198/110
f 232/199/111 231/198/110 230/197/103
f 231/198/110 232/199/111 233/200/112
f 234/201/100 235/202/100 236/203/100
f 235/202/100 234/201/100 237/204/100
f 238/205/100 236/203/100 235/202/100
f 238/205/100 235/202/100 239/206/100
f 239/206/100 240/207/100 238/205/100
f 240/207/100 239/206/100 241/208/100
f 242/209/100 243/210/100 244/211/100
f 243/210/100 245/212/100 244/211/100
f 246/213/113 248/214/114 247/215/113
f 249/216/114 247/215/113 248/214/114
f 250/217/115 251/218/116 252/219/115
f 253/220/117 250/217/115 252/219/115
f 250/217/115 253/220/117 254/105/118
f 251/218/116 250/217/115 255/221/119
f 256/222/120 251/218/116 255/221/119
f 251/218/116 256/222/120 257/223/121
f 258/224/122 257/223/121 256/222/120
f 258/224/122 259/225/123 257/223/121
f 260/226/124 259/225/123 258/224/122
f 260/226/124 261/227/125 259/225/123
f 260/226/124 262/228/126 261/227/125
f 262/228/126 260/226/124 263/229/127
f 264/230/128 262/228/126 263/229/127
f 262/228/126 264/230/128 265/231/129
f 265/231/129 264/230/128 266/232/130
f 267/233/131 265/231/129 266/232/130
f 267/233/131 268/234/132 265/231/129
f 269/235/133 268/234/132 267/233/131
f 269/235/133 270/236/134 268/234/132
f 269/235/133 271/237/135 270/236/134
f 271/237/135 269/235/133 272/238/136
f 272/238/136 273/239/135 271/237/135
f 273/239/135 272/238/136 274/84/137
f 275/240/138 276/221/138 277/217/138
f 277/217/138 278/241/138 275/240/138
f 278/241/138 277/217/138 279/105/138
f 276/221/138 275/240/138 280/242/138
f 281/243/138 276/221/138 280/242/138
f 276/221/138 281/243/138 282/222/138
f 283/244/138 282/222/138 281/243/138
f 282/222/138 283/244/138 284/224/138
f 285/245/138 284/224/138 283/244/138
f 284/224/138 285/245/138 286/226/138
f 287/246/138 286/226/138 285/245/138
f 286/226/138 287/246/138 288/229/138
f 289/247/138 288/229/138 287/246/138
f 288/229/138 289/247/138 290/230/138
f 291/248/138 290/230/138 289/247/138
f 290/230/138 291/248/138 292/232/138
f 293/249/139 292/232/138 291/248/138
f 292/232/138 293/249/139 294/233/140
f 293/249/139 295/235/141 294/233/140
f 295/235/141 293/249/139 296/250/142
f 297/251/143 295/235/141 296/250/142
f 295/235/141 297/251/143 298/238/144
f 299/252/143 298/238/144 297/251/143
f 298/238/144 299/252/143 300/84/145
f 301/253/146 302/254/146 303/255/146
f 302/254/146 301/253/146 304/256/146
f 302/254/146 304/256/146 305/257/146
f 305/257/146 306/258/146 302/254/146
f 305/257/146 307/259/146 306/258/146
f 307/259/146 305/257/146 308/260/147
f 309/261/146 310/262/146 311/263/146
f 312/264/146 309/261/146 311/263/146
f 313/265/146 310/262/146 309/261/146
f 310/262/146 313/265/146 314/266/147
f 315/267/146 314/266/147 313/265/146
f 314/266/147 315/267/146 316/268/146
f 317/269/146 316/268/146 315/267/146
f 316/268/146 317/269/146 318/270/146
f 318/270/146 317/269/146 319/271/146
f 319/271/146 317/269/146 320/272/146
f 321/273/146 322/268/147 323/266/146
f 321/273/146 324/274/146 322/268/147
f 325/262/146 321/273/146 323/266/146
f 321/273/146 325/262/146 326/275/146
f 327/263/146 326/275/146 325/262/146
f 326/275/146 327/263/146 328/276/146
usemtl Meshpart2Mtl.002
f 329/277/148 330/278/148 331/279/149
f 331/279/149 330/278/148 332/280/150
f 330/278/151 333/281/152 334/282/152
f 333/281/152 330/278/151 335/277/153
f 336/283/8 337/284/8 338/285/8
f 339/286/8 337/284/8 336/283/8
f 340/287/8 341/288/8 342/289/8
f 341/288/8 340/287/8 343/290/8
f 344/291/8 345/292/8 346/293/8
f 347/294/8 346/293/8 345/292/8
f 348/295/8 344/291/8 346/293/8
f 349/296/8 347/294/8 345/292/8
f 348/295/8 350/297/8 344/291/8
f 351/298/8 347/294/8 349/296/8
f 350/297/8 348/295/8 352/299/8
f 349/296/8 353/300/8 351/298/8
f 354/301/8 350/297/8 352/299/8
f 353/300/8 355/302/8 351/298/8
f 354/301/8 352/299/8 356/303/8
f 353/300/8 357/304/8 355/302/8
f 354/301/8 356/303/8 357/304/8
f 357/304/8 353/300/8 354/301/8
f 358/305/154 359/306/154 360/307/155
f 361/308/156 359/306/154 358/305/154
f 359/306/154 361/308/156 362/309/154
f 362/309/154 361/308/156 363/310/157
f 366/311/8 365/312/158 364/313/158
f 365/312/158 366/311/8 367/314/8
f 368/315/159 367/314/8 366/311/8
f 367/314/8 368/315/159 369/316/159
f 372/317/8 371/318/160 370/319/161
f 371/318/160 372/317/8 373/320/162
f 374/321/163 373/320/162 372/317/8
f 373/320/162 374/321/163 375/322/164
f 376/323/8 377/324/8 378/325/8
f 377/324/8 376/323/8 379/326/8
f 380/327/8 381/328/8 382/329/8
f 381/328/8 380/327/8 383/330/8
f 383/330/8 384/331/8 381/328/8
f 385/332/8 384/331/8 383/330/8
f 384/331/8 385/332/8 386/333/8
f 387/334/8 386/333/8 385/332/8
f 386/333/8 387/334/8 388/335/8
f 389/336/8 390/337/8 391/338/8
f 390/337/8 389/336/8 392/339/8
f 393/340/8 394/341/8 395/342/8
f 394/341/8 396/343/8 395/342/8
f 394/341/8 393/340/8 397/344/8
f 396/343/8 394/341/8 398/345/8
f 399/346/8 396/343/8 398/345/8
f 398/345/8 400/347/8 399/346/8
f 401/348/8 397/344/8 393/340/8
f 397/344/8 401/348/8 402/349/8
f 401/348/8 403/350/8 402/349/8
f 403/350/8 401/348/8 404/351/8
f 404/351/8 405/352/8 403/350/8
f 404/351/8 406/353/8 405/352/8
f 407/354/8 405/352/8 406/353/8
f 405/352/8 407/354/8 408/355/8
f 409/346/8 408/355/8 407/354/8
f 408/355/8 409/346/8 410/347/8
f 411/356/165 412/357/166 413/358/165
f 413/358/165 412/357/166 414/359/166
f 417/360/27 415/361/167 416/362/167
f 418/363/27 417/360/27 416/362/167
f 419/364/168 417/360/27 418/363/27
f 420/365/169 419/364/168 418/363/27
f 421/366/27 422/367/27 423/368/27
f 422/367/27 421/366/27 424/369/27
f 425/370/27 426/371/27 427/372/27
f 428/373/27 427/372/27 426/371/27
f 429/374/27 430/375/27 431/376/27
f 429/374/27 431/376/27 432/377/27
f 435/378/27 433/379/170 434/380/167
f 436/381/27 435/378/27 434/380/167
f 437/382/168 435/378/27 436/381/27
f 438/383/171 437/382/168 436/381/27
f 439/384/172 440/385/173 441/386/174
f 442/387/175 441/386/174 440/385/173
f 441/386/174 442/387/175 443/388/176
f 444/389/177 443/388/176 442/387/175
f 445/390/167 446/391/178 447/392/179
f 448/393/27 447/392/179 446/391/178
f 447/392/179 448/393/27 449/394/169
f 450/395/169 449/394/169 448/393/27
f 453/359/180 451/396/181 452/397/182
f 454/357/180 451/396/181 453/359/180
f 455/398/183 456/399/184 457/356/185
f 455/398/183 457/356/185 458/358/186
f 459/400/27 460/401/27 461/402/27
f 461/402/27 460/401/27 462/403/27
f 465/387/187 464/404/188 463/405/188
f 464/404/188 465/387/187 466/393/189
f 467/406/190 466/393/189 465/387/187
f 466/393/189 467/406/190 468/407/191
f 469/408/27 470/409/164 471/410/192
f 470/409/164 469/408/27 472/411/193
f 475/411/27 474/412/194 473/413/195
f 474/412/194 475/411/27 476/408/196
f 477/414/197 478/415/196 479/416/27
f 478/415/196 477/414/197 480/417/198
f 483/416/199 482/418/164 481/419/200
f 482/418/164 483/416/199 484/415/193
f 485/420/27 486/421/27 487/422/27
f 485/420/27 487/422/27 488/423/27
f 489/424/27 490/425/27 491/426/27
f 490/425/27 489/424/27 492/427/27
f 493/428/201 494/429/202 495/430/203
f 493/428/201 495/430/203 496/431/204
f 496/431/204 495/430/203 497/432/205
f 496/431/204 497/432/205 498/433/206
f 499/434/201 500/435/207 501/436/208
f 499/434/201 501/436/208 502/437/209
f 503/438/210 504/439/211 505/440/211
f 505/440/211 506/441/212 503/438/210
f 508/442/213 509/443/214 507/444/215
f 509/443/214 508/442/213 510/445/72
f 510/445/72 511/446/216 509/443/214
f 511/446/216 510/445/72 512/447/191
f 514/448/217 515/449/218 513/450/219
f 515/449/218 514/448/217 516/451/220
f 518/452/221 519/451/222 517/453/223
f 519/451/222 518/452/221 520/449/224
f 521/441/212 522/454/225 523/438/210
f 523/438/210 522/454/225 524/455/226
f 525/456/227 526/457/228 527/458/229
f 528/459/230 527/458/229 526/457/228
f 529/460/231 528/459/232 530/461/233
f 528/459/232 529/460/231 531/458/234
f 532/462/235 533/463/235 529/460/235
f 532/462/235 529/460/235 534/461/235
f 535/464/72 536/465/72 537/466/72
f 536/465/72 535/464/72 538/467/72
f 539/468/236 540/469/72 541/470/72
f 541/470/72 542/471/236 539/468/236
f 543/472/237 544/473/238 545/474/239
f 545/474/239 546/475/237 543/472/237
f 547/476/72 548/477/72 549/478/203
f 549/478/203 548/477/72 550/479/240
f 548/477/72 547/476/72 551/480/204
f 551/480/204 547/476/72 552/481/241
f 548/477/72 551/480/204 553/482/72
f 548/477/72 553/482/72 554/483/72
f 555/484/72 556/485/72 557/486/72
f 556/485/72 555/484/72 558/487/72
f 556/485/72 559/488/72 557/486/72
f 557/486/72 559/488/72 560/489/72
f 559/488/72 556/485/72 561/490/72
f 561/490/72 556/485/72 562/491/72
f 563/492/72 564/437/72 565/493/72
f 564/437/72 563/492/72 566/436/72
f 567/494/242 568/495/242 569/449/72
f 567/494/242 569/449/72 570/445/243
f 573/445/244 572/496/245 571/497/245
f 573/445/244 574/449/72 572/496/245
f 575/498/72 576/499/72 577/500/246
f 577/500/246 576/499/72 578/501/72
f 575/498/72 577/500/246 579/502/72
f 580/503/73 581/351/73 582/353/73
f 583/354/73 580/503/73 582/353/73
f 581/351/73 580/503/73 584/504/73
f 585/348/73 581/351/73 584/504/73
f 584/504/73 586/505/73 585/348/73
f 580/503/73 583/354/73 587/506/73
f 588/346/73 587/506/73 583/354/73
f 587/506/73 588/346/73 589/507/73
f 588/346/73 590/508/73 589/507/73
f 590/508/73 588/346/73 591/343/73
f 591/343/73 592/509/73 590/508/73
f 591/343/73 593/342/73 592/509/73
f 594/340/73 592/509/73 593/342/73
f 592/509/73 594/340/73 595/510/73
f 596/348/73 595/510/73 594/340/73
f 595/510/73 596/348/73 597/505/73
f 598/508/247 599/510/248 600/507/249
f 599/510/248 598/508/247 601/509/250
f 602/505/251 600/507/249 599/510/248
f 600/507/249 602/505/251 603/504/252
f 603/504/252 604/506/253 600/507/249
f 604/506/253 603/504/252 605/503/254
f 606/511/255 607/512/255 608/513/256
f 607/512/255 606/511/255 609/514/257
f 609/514/257 606/511/255 610/515/257
f 609/514/257 610/515/257 611/516/258
f 612/330/73 613/332/73 614/331/73
f 614/331/73 613/332/73 615/333/73
f 616/334/73 615/333/73 613/332/73
f 615/333/73 616/334/73 617/335/73
f 612/330/73 614/331/73 618/328/73
f 619/327/73 612/330/73 618/328/73
f 619/327/73 618/328/73 620/329/73
f 621/336/73 622/339/73 623/337/73
f 621/336/73 623/337/73 624/338/73
f 627/314/73 626/315/259 625/316/259
f 626/315/259 627/314/73 628/311/73
f 629/312/198 628/311/73 627/314/73
f 628/311/73 629/312/198 630/313/198
f 633/320/260 632/321/194 631/322/261
f 632/321/194 633/320/260 634/317/73
f 635/318/262 634/317/73 633/320/260
f 634/317/73 635/318/262 636/319/262
f 637/325/73 638/326/73 639/324/73
f 638/326/73 637/325/73 640/323/73
f 641/304/73 642/301/73 643/303/73
f 642/301/73 644/299/73 643/303/73
f 642/301/73 641/304/73 645/300/73
f 642/301/73 646/297/73 644/299/73
f 645/300/73 641/304/73 647/302/73
f 646/297/73 648/295/73 644/299/73
f 649/298/73 645/300/73 647/302/73
f 650/291/73 648/295/73 646/297/73
f 651/296/73 645/300/73 649/298/73
f 648/295/73 650/291/73 652/293/73
f 653/294/73 651/296/73 649/298/73
f 650/291/73 654/292/73 652/293/73
f 651/296/73 653/294/73 654/292/73
f 653/294/73 652/293/73 654/292/73
f 655/286/73 656/284/73 657/283/73
f 657/283/73 656/284/73 658/285/73
f 659/288/73 660/287/73 661/290/73
f 660/287/73 659/288/73 662/289/73
f 663/278/263 664/517/264 665/518/264
f 663/278/263 665/518/264 666/277/263
f 663/278/265 667/277/265 668/281/76
f 669/282/76 663/278/265 668/281/76
f 670/519/266 671/520/266 672/521/266
f 672/521/266 671/520/266 673/522/267
f 674/523/268 675/524/268 676/525/269
f 675/524/268 677/526/270 676/525/269
f 678/527/271 679/528/272 680/529/273
f 681/530/274 678/527/271 680/529/273
f 678/527/271 681/530/274 682/531/275
f 679/528/272 678/527/271 683/532/276
f 679/528/272 683/532/276 684/533/277
f 685/534/278 684/533/277 683/532/276
f 686/535/100 687/536/100 688/537/100
f 688/537/100 687/536/100 689/538/100
f 691/539/279 690/540/280 692/541/100
f 691/539/279 692/541/100 693/542/100
f 693/542/100 692/541/100 694/543/281
f 693/542/100 694/543/281 695/544/281
f 697/545/282 698/546/283 696/547/284
f 698/546/283 697/545/282 699/548/100
f 699/548/100 700/549/285 698/546/283
f 700/549/285 699/548/100 701/550/242
f 702/551/100 703/552/280 704/553/286
f 703/552/280 702/551/100 705/554/280
f 704/553/286 706/555/281 702/551/100
f 706/555/281 704/553/286 707/556/281
f 710/548/287 709/557/288 708/558/289
f 710/548/287 711/553/290 709/557/288
f 712/559/291 711/553/290 710/548/287
f 712/559/291 713/560/292 711/553/290
f 716/561/293 715/562/294 714/563/161
f 715/562/294 716/561/293 717/564/100
f 718/565/295 717/564/100 716/561/293
f 717/564/100 718/565/295 719/566/262
f 722/567/100 721/568/262 720/569/296
f 721/568/262 722/567/100 723/570/297
f 724/571/294 723/570/297 722/567/100
f 723/570/297 724/571/294 725/572/161
f 726/573/298 727/574/299 728/575/300
f 727/574/299 726/573/298 729/576/298
f 730/577/100 731/578/100 732/579/100
f 732/579/100 731/578/100 733/580/100
f 734/581/301 735/582/302 736/583/303
f 735/582/302 734/581/301 737/584/304
f 738/585/305 740/583/306 739/586/307
f 740/583/306 738/585/305 741/581/147
f 742/587/308 743/588/302 744/589/309
f 743/588/302 742/587/308 745/590/310
f 746/591/311 747/592/312 748/593/313
f 747/592/312 746/591/311 749/594/311
f 750/595/314 751/596/315 752/597/316
f 751/596/315 750/595/314 753/598/317
f 755/599/318 756/598/319 754/600/320
f 756/598/319 755/599/318 757/596/321
f 759/601/322 760/602/146 758/603/323
f 760/602/146 759/601/322 761/604/146
f 761/604/146 762/605/324 760/602/146
f 762/605/324 761/604/146 763/606/325
f 764/607/326 765/592/327 766/608/326
f 765/592/327 764/607/326 767/593/328
f 768/609/329 769/610/330 770/611/331
f 769/610/330 768/609/329 771/612/332
f 769/610/333 772/613/334 773/614/335
f 772/613/334 769/610/333 774/612/336
f 775/615/337 776/614/337 772/613/337
f 776/614/337 775/615/337 777/616/338
f 778/617/146 779/618/146 780/619/146
f 779/618/146 778/617/146 781/620/146
f 782/621/339 784/622/146 783/623/339
f 784/622/146 782/621/339 785/624/146
f 786/625/340 787/626/341 788/627/342
f 787/626/341 786/625/340 789/628/343
f 790/629/146 791/630/146 792/631/146
f 791/630/146 790/629/146 793/632/146
f 794/633/146 790/629/146 792/631/146
f 794/633/146 792/631/146 795/634/146
f 790/629/146 794/633/146 796/635/146
f 790/629/146 796/635/146 797/636/344
f 798/637/146 799/638/146 800/639/146
f 798/637/146 800/639/146 801/640/146
f 802/641/146 799/638/146 798/637/146
f 799/638/146 802/641/146 803/642/146
f 798/637/146 804/643/146 802/641/146
f 804/643/146 798/637/146 805/644/146
f 806/645/146 807/589/146 808/587/146
f 808/587/146 809/646/146 806/645/146
f 812/596/146 811/647/345 810/648/346
f 812/596/146 813/604/146 811/647/345
f 814/649/347 813/604/146 812/596/146
f 814/649/347 815/650/348 813/604/146
f 816/651/146 817/652/146 818/653/146
f 818/653/146 817/652/146 819/654/146
f 816/651/146 818/653/146 820/655/146
f 1014/656/349 1015/657/8 1016/658/8
f 1015/657/8 1014/656/349 1017/659/349
f 1014/656/349 1018/660/350 1017/659/349
f 1018/660/350 1014/656/349 1019/661/350
f 1020/662/351 1018/660/350 1019/661/350
f 1018/660/350 1020/662/351 1021/663/352
f 1024/664/353 1023/665/354 1022/666/355
f 1023/665/354 1024/664/353 1025/667/356
f 1026/668/357 1025/667/356 1024/664/353
f 1025/667/356 1026/668/357 1027/669/357
f 1028/670/358 1029/671/359 1030/672/360
f 1031/673/361 1030/672/360 1029/671/359
f 1030/672/360 1031/673/361 1032/674/362
f 1028/670/358 1030/672/360 1033/675/358
f 1034/676/363 1035/677/364 1036/678/365
f 1035/677/364 1034/676/363 1037/679/366
f 1036/678/365 1035/677/364 1038/680/367
f 1036/678/365 1038/680/367 1039/681/368
f 1037/679/366 1040/682/369 1035/677/364
f 1040/682/369 1037/679/366 1041/683/370
f 1041/683/370 1042/684/72 1040/682/369
f 1042/684/72 1041/683/370 1043/685/72
f 1043/685/72 1044/686/72 1042/684/72
f 1044/686/72 1043/685/72 1045/687/72
f 1045/687/72 1046/688/72 1044/686/72
f 1046/688/72 1045/687/72 1047/689/72
f 1048/657/73 1049/658/73 1050/690/73
f 1050/690/73 1049/658/73 1051/691/73
f 1052/692/371 1053/693/371 1054/694/372
f 1054/694/372 1053/693/371 1055/695/371
f 1057/656/373 1058/660/374 1056/659/375
f 1058/660/374 1057/656/373 1059/661/374
f 1058/660/374 1059/661/374 1060/696/376
f 1061/697/377 1058/660/374 1060/696/376
f 1061/697/377 1060/696/376 1062/698/378
f 1063/699/379 1061/697/377 1062/698/378
f 1065/700/380 1064/701/381 1066/702/382
f 1067/703/383 1065/700/380 1066/702/382
f 1068/704/384 1069/676/385 1070/705/385
f 1071/706/386 1069/676/385 1068/704/384
f 1069/676/385 1071/706/386 1072/678/384
f 1071/706/386 1073/707/387 1072/678/384
f 1073/707/387 1071/706/386 1074/708/388
f 1073/707/387 1074/708/388 1075/709/389
f 1076/710/146 1075/709/389 1074/708/388
f 1075/709/389 1076/710/146 1077/711/146
f 1078/712/146 1077/711/146 1076/710/146
f 1077/711/146 1078/712/146 1079/713/306
f 1078/712/146 1080/714/146 1079/713/306
f 1081/715/146 1079/713/306 1080/714/146
usemtl Meshpart3Mtl.003
f 821/716/390 822/717/391 823/718/392
f 822/717/391 821/716/390 824/719/393
f 825/720/394 826/719/395 827/716/396
f 826/719/395 825/720/394 828/721/397
f 829/722/398 830/723/399 831/724/400
f 830/723/399 829/722/398 832/725/401
f 830/723/402 833/726/403 834/727/403
f 833/726/403 830/723/402 835/725/401
f 838/728/404 837/729/163 836/730/163
f 837/729/163 838/728/404 839/731/404
f 840/732/161 839/731/404 838/728/404
f 839/731/404 840/732/161 841/733/405
f 842/734/406 843/735/407 844/736/408
f 843/735/407 842/734/406 845/737/406
f 847/737/409 846/738/410 848/739/411
f 846/738/410 847/737/409 849/734/406
f 852/740/404 851/741/160 850/742/159
f 851/741/160 852/740/404 853/743/8
f 854/744/158 853/743/8 852/740/404
f 853/743/8 854/744/158 855/745/412
f 856/746/413 857/747/414 858/748/415
f 857/747/414 856/746/413 859/749/27
f 860/750/416 861/751/199 862/752/413
f 861/751/199 860/750/416 863/753/417
f 864/754/27 865/755/418 866/756/394
f 865/755/418 864/754/27 867/757/27
f 868/758/419 869/749/199 870/746/27
f 869/749/199 868/758/419 871/759/419
f 872/760/199 873/761/420 874/762/192
f 873/761/420 872/760/199 875/763/421
f 878/763/422 877/764/195 876/765/423
f 877/764/195 878/763/422 879/760/413
f 880/766/424 881/751/413 882/767/425
f 881/751/413 880/766/424 883/752/27
f 884/768/426 885/757/27 886/754/413
f 885/757/27 884/768/426 887/769/427
f 888/770/195 889/771/413 890/772/199
f 889/771/413 888/770/195 891/773/428
f 894/772/193 893/774/192 892/775/163
f 893/774/192 894/772/193 895/771/199
f 896/776/429 897/777/430 898/778/431
f 896/776/429 899/779/432 897/777/430
f 900/780/433 899/779/432 896/776/429
f 899/779/432 900/780/433 901/781/434
f 901/781/434 902/782/435 899/779/432
f 902/782/435 901/781/434 903/783/432
f 904/784/436 905/785/437 906/786/438
f 905/785/437 904/784/436 907/787/439
f 908/788/440 907/787/439 904/784/436
f 907/787/439 908/788/440 909/789/441
f 909/789/441 910/790/442 907/787/439
f 910/790/442 909/789/441 911/791/443
f 912/792/235 913/793/444 914/794/444
f 915/795/235 913/793/444 912/792/235
f 913/793/444 915/795/235 916/796/445
f 915/795/235 917/797/446 916/796/445
f 917/797/446 915/795/235 918/798/447
f 917/797/446 918/798/447 919/799/448
f 920/735/449 921/734/450 922/737/451
f 921/734/450 920/735/449 923/736/449
f 924/737/452 925/738/453 926/739/453
f 925/738/453 924/737/452 927/734/451
f 928/717/454 929/716/455 930/719/456
f 929/716/455 928/717/454 931/718/457
f 934/731/458 933/732/295 932/733/262
f 933/732/295 934/731/458 935/728/458
f 936/729/194 935/728/458 934/731/458
f 935/728/458 936/729/194 937/730/459
f 938/722/460 939/723/461 940/724/462
f 939/723/461 938/722/460 941/725/461
f 939/723/463 942/726/464 943/727/464
f 939/723/463 944/725/463 942/726/464
f 945/719/465 946/720/466 947/721/467
f 946/720/466 945/719/465 948/716/468
f 951/743/458 950/744/459 949/745/198
f 950/744/459 951/743/458 952/740/458
f 953/741/259 952/740/458 951/743/458
f 952/740/458 953/741/259 954/742/296
f 956/800/469 955/801/470 957/802/471
f 955/801/470 956/800/469 958/803/100
f 959/804/100 960/805/472 961/806/472
f 960/805/472 959/804/100 962/807/473
f 963/808/474 964/809/100 965/810/469
f 964/809/100 963/808/474 966/811/475
f 964/809/100 967/812/457 968/810/297
f 967/812/457 964/809/100 969/813/457
f 970/814/476 971/807/469 972/804/469
f 971/807/469 970/814/476 973/815/477
f 976/816/473 975/817/294 974/818/294
f 975/817/294 976/816/473 977/819/297
f 978/820/295 977/819/297 976/816/473
f 977/819/297 978/820/295 979/821/296
f 980/803/100 981/822/478 982/823/479
f 981/822/478 980/803/100 983/800/100
f 986/824/469 985/825/296 984/826/295
f 985/825/296 986/824/469 987/827/100
f 988/828/161 987/827/100 986/824/469
f 987/827/100 988/828/161 989/829/294
f 990/830/480 991/831/481 992/832/482
f 990/830/480 992/832/482 993/833/483
f 991/831/481 990/830/480 994/834/480
f 995/835/481 991/831/481 994/834/480
f 991/831/481 995/835/481 996/836/484
f 996/836/484 995/835/481 997/837/480
f 998/838/485 999/839/486 1000/840/487
f 998/838/485 1000/840/487 1001/841/488
f 999/839/486 998/838/485 1002/842/489
f 1003/843/490 999/839/486 1002/842/489
f 999/839/486 1003/843/490 1004/844/486
f 1004/844/486 1003/843/490 1005/845/490
f 1006/846/338 1007/847/491 1008/848/492
f 1007/847/491 1006/846/338 1009/849/493
f 1006/846/338 1008/848/492 1010/850/337
f 1010/850/337 1008/848/492 1011/851/337
f 1011/851/337 1008/848/492 1012/852/338
f 1011/851/337 1012/852/338 1013/853/494
