# Blender 5.2.2 LTS
# www.blender.org
mtllib Glass bolt 3.mtl
o 17661950452.001
v 0.006365 -0.008862 0.062439
v 0.005095 -0.009836 0.063639
v 0.006365 0.036659 0.062439
v 0.005095 0.037633 0.063639
v -0.003063 0.013898 0.062440
v -0.004663 0.013898 0.063640
v 0.029125 0.046086 0.062439
v 0.029125 0.047686 0.063639
v 0.061313 0.013898 0.062439
v 0.062913 0.013898 0.063639
v 0.051886 0.036659 0.062439
v 0.053156 0.037633 0.063639
v 0.051886 -0.008862 0.062439
v 0.053156 -0.009836 0.063639
v 0.029125 -0.018290 0.062439
v 0.029125 -0.019890 0.063639
v 0.009820 0.013898 -0.062440
v 0.007820 0.013898 -0.062440
v 0.015474 0.027549 -0.006177
v 0.014204 0.028523 -0.007377
v 0.015474 0.027549 -0.062440
v 0.013887 0.028766 -0.062440
v 0.009820 0.013898 -0.006177
v 0.008571 0.013898 -0.007739
v 0.029125 0.033204 -0.006177
v 0.029125 0.034804 -0.007377
v 0.015474 0.000248 -0.062440
v 0.013887 -0.000969 -0.062440
v 0.029125 0.033204 -0.062440
v 0.029125 0.035204 -0.062440
v 0.015474 0.000248 -0.006177
v 0.014204 -0.000726 -0.007377
v 0.042775 0.027549 -0.062440
v 0.044362 0.028766 -0.062440
v 0.029125 -0.005407 -0.062440
v 0.029125 -0.007407 -0.062440
v 0.042776 0.027549 -0.006177
v 0.043767 0.028309 -0.007739
v 0.029125 -0.005407 -0.006177
v 0.029125 -0.007007 -0.007377
v 0.048430 0.013898 -0.006177
v 0.050030 0.013898 -0.007377
v 0.042775 0.000248 -0.062440
v 0.044362 -0.000969 -0.062440
v 0.048430 0.013898 -0.062440
v 0.050430 0.013898 -0.062440
v 0.042776 0.000248 -0.006177
v 0.044046 -0.000726 -0.007377
v 0.029125 0.046086 -0.006177
v 0.029125 0.047686 -0.007377
v 0.051886 0.036659 -0.006177
v 0.053156 0.037633 -0.007377
v 0.061313 0.013898 -0.006177
v 0.062913 0.013898 -0.007377
v 0.006364 0.036659 -0.006177
v 0.005094 0.037633 -0.007377
v -0.003063 0.013898 -0.006177
v -0.004663 0.013898 -0.007377
v 0.051886 -0.008862 -0.006177
v 0.053156 -0.009836 -0.007377
v 0.029125 -0.018290 -0.006177
v 0.029125 -0.019890 -0.007377
v 0.006364 -0.008862 -0.006177
v 0.005094 -0.009836 -0.007377
v 0.061031 0.013898 0.063039
v 0.051755 0.036380 0.063039
v 0.029125 0.045804 0.063039
v 0.006496 0.036380 0.063039
v -0.002781 0.013898 0.063040
v 0.006496 -0.008583 0.063039
v 0.029125 -0.018008 0.063039
v 0.051755 -0.008584 0.063039
v 0.052903 0.036222 0.062039
v 0.061730 0.014822 0.062039
v 0.061730 0.014822 -0.005777
v 0.052903 0.036222 -0.005777
v 0.030049 0.046503 0.062039
v 0.051597 0.037529 0.062039
v 0.051597 0.037529 -0.005777
v 0.030049 0.046503 -0.005777
v 0.006653 0.037529 -0.005777
v 0.006654 0.037529 0.062039
v 0.028201 0.046503 0.062039
v 0.028201 0.046503 -0.005777
v 0.048847 0.014822 -0.007777
v 0.049047 0.014822 -0.061440
v 0.043951 0.027234 -0.061440
v 0.043654 0.027005 -0.007958
v 0.009203 0.014822 -0.061440
v 0.009578 0.014822 -0.007958
v 0.014457 0.027112 -0.007777
v 0.014298 0.027234 -0.061440
v 0.043793 0.000685 -0.007777
v 0.043951 0.000563 -0.061440
v 0.049047 0.012974 -0.061440
v 0.048847 0.012974 -0.007777
v 0.030049 0.033621 -0.007777
v 0.042348 0.028312 -0.007958
v 0.042645 0.028540 -0.061440
v 0.030049 0.033821 -0.061440
v -0.003480 0.014822 -0.005777
v -0.003480 0.014822 0.062040
v 0.005348 0.036222 0.062039
v 0.005347 0.036222 -0.005777
v 0.014298 0.000563 -0.061440
v 0.014457 0.000685 -0.007777
v 0.009578 0.012974 -0.007958
v 0.009203 0.012974 -0.061440
v 0.028201 -0.018707 -0.005777
v 0.028201 -0.018707 0.062039
v 0.006654 -0.009732 0.062039
v 0.006653 -0.009732 -0.005777
v 0.028201 0.033621 -0.007777
v 0.028201 0.033821 -0.061440
v 0.015604 0.028540 -0.061440
v 0.015763 0.028419 -0.007777
v 0.005347 -0.008425 -0.005777
v 0.005347 -0.008425 0.062039
v -0.003480 0.012974 0.062040
v -0.003480 0.012974 -0.005777
v 0.028201 -0.006024 -0.061440
v 0.028201 -0.005824 -0.007777
v 0.015763 -0.000622 -0.007777
v 0.015604 -0.000743 -0.061440
v 0.061730 0.012974 0.062039
v 0.052903 -0.008425 0.062039
v 0.052903 -0.008425 -0.005777
v 0.061730 0.012974 -0.005777
v 0.042645 -0.000743 -0.061440
v 0.042487 -0.000622 -0.007777
v 0.030049 -0.005824 -0.007777
v 0.030049 -0.006024 -0.061440
v 0.029125 0.045804 -0.006777
v 0.050755 0.036795 -0.006777
v 0.043037 0.029109 -0.006958
v 0.029125 0.035086 -0.006777
v 0.014074 0.028801 -0.006777
v 0.008527 0.014898 -0.006958
v -0.002366 0.014898 -0.006777
v 0.006495 0.036380 -0.006777
v 0.029125 -0.018008 -0.006777
v 0.006495 -0.008584 -0.006777
v -0.002366 0.012898 -0.006777
v 0.008527 0.012898 -0.006958
v 0.014074 -0.001004 -0.006777
v 0.029125 -0.007289 -0.006777
v 0.044176 -0.001004 -0.006777
v 0.050312 0.013898 -0.006777
v 0.044451 0.027694 -0.006958
v 0.052170 0.035380 -0.006777
v 0.061031 0.013898 -0.006777
v 0.051755 -0.008584 -0.006777
v 0.051597 -0.009732 0.062039
v 0.030049 -0.018707 0.062039
v 0.030049 -0.018707 -0.005777
v 0.051597 -0.009732 -0.005777
vn -0.8673 -0.0000 0.4978
vn -0.6339 -0.6022 0.4853
vn -0.5805 -0.6867 -0.4375
vn -0.8981 -0.0000 -0.4398
vn 0.7691 -0.0000 0.6392
vn 0.4907 0.4864 0.7229
vn -0.0000 -0.8813 0.4725
vn -0.0000 -0.8889 -0.4581
vn -0.0000 0.7642 0.6450
vn 0.6339 -0.6024 0.4850
vn 0.6764 -0.5921 -0.4381
vn -0.4907 0.4864 0.7229
vn 0.8673 -0.0000 0.4978
vn 0.8982 -0.0000 -0.4395
vn -0.7690 -0.0000 0.6392
vn 0.6340 0.6024 0.4850
vn 0.5805 0.6867 -0.4376
vn -0.4907 -0.4865 0.7229
vn -0.0000 0.8814 0.4724
vn -0.0000 0.8890 -0.4580
vn -0.0000 -0.7642 0.6450
vn -0.6337 0.6024 0.4853
vn -0.5877 0.6309 -0.5065
vn 0.6408 -0.4764 0.6020
vn 0.5706 -0.5326 -0.6251
vn 0.1322 0.7121 -0.6895
vn 0.1319 0.7119 0.6897
vn -0.8984 -0.0000 0.4392
vn 0.7690 -0.0000 -0.6392
vn 0.4718 -0.4364 0.7661
vn -0.4930 -0.5424 0.6802
vn 0.6448 0.5249 -0.5556
vn 0.7202 0.1278 -0.6819
vn -0.4157 0.5231 -0.7440
vn -0.4157 0.5231 0.7440
vn 0.7202 0.1278 0.6819
vn -0.0000 -0.8889 0.4581
vn -0.0000 0.7642 -0.6450
vn 0.3465 0.5484 0.7611
vn 0.4157 0.5231 -0.7440
vn 0.6529 -0.5833 0.4831
vn -0.6008 0.5780 -0.5522
vn -0.7202 0.1278 -0.6819
vn -0.7202 0.1278 0.6819
vn -0.4269 0.5602 -0.7099
vn -0.1245 0.6940 0.7091
vn -0.8861 -0.0000 0.4635
vn -0.5450 0.0121 0.8383
vn 0.9000 -0.0024 -0.4359
vn 0.9014 -0.0000 0.4330
vn 0.2401 -0.6451 0.7254
vn -0.6992 -0.5704 0.4309
vn 0.7357 0.5186 0.4357
vn -0.0805 -0.7554 -0.6503
vn -0.4520 -0.4403 0.7757
vn 0.4950 0.3766 -0.7830
vn 0.1325 0.6677 0.7325
vn 0.4620 0.5162 -0.7212
vn 0.5724 -0.0000 0.8200
vn 0.8900 -0.0000 0.4560
vn -0.9041 -0.0000 0.4272
vn -0.6533 -0.0000 -0.7571
vn 0.0382 -0.7628 -0.6455
vn 0.3239 -0.4778 0.8166
vn -0.6772 0.5396 -0.5003
vn -0.2612 -0.6649 0.6997
vn 0.6977 -0.5668 0.4382
vn -0.7341 0.5158 0.4416
vn 0.0805 0.6123 -0.7865
vn 0.2613 0.6649 0.6998
vn -0.6976 0.5669 0.4382
vn -0.3598 0.4873 0.7957
vn 0.6353 -0.5815 -0.5082
vn 0.7341 -0.5158 0.4416
vn -0.1245 -0.6940 0.7091
vn -0.3910 -0.5812 -0.7136
vn 0.5696 -0.4227 -0.7049
vn -0.7554 0.0119 -0.6552
vn 0.0125 -0.5389 0.8423
vn -0.0023 0.8895 -0.4569
vn -0.6374 0.3407 0.6911
vn 0.7064 -0.1240 0.6969
vn -0.0000 -0.8938 0.4484
vn -0.0000 0.9087 0.4175
vn -0.1319 0.7119 0.6897
vn -0.1320 0.7119 -0.6897
vn 0.7240 -0.0000 0.6898
vn -0.8044 -0.0000 -0.5941
vn -0.4718 -0.4364 -0.7661
vn -0.4718 -0.4364 0.7661
vn -0.3143 0.5255 0.7906
vn 0.0382 0.7628 -0.6455
vn 0.4315 0.4523 0.7805
vn 0.6976 0.5668 0.4382
vn -0.7342 -0.5158 0.4415
vn -0.6772 -0.5396 -0.5003
vn 0.4620 -0.5162 -0.7212
vn 0.1325 -0.6677 0.7325
vn -0.7202 -0.1278 0.6819
vn -0.7202 -0.1278 -0.6819
vn -0.0000 0.8890 0.4578
vn -0.0000 -0.7642 -0.6450
vn 0.4156 -0.5231 -0.7440
vn 0.4157 -0.5231 0.7440
vn 0.5930 0.6879 0.4185
vn -0.5051 -0.4715 -0.7229
vn -0.5920 -0.3870 -0.7070
vn -0.7064 -0.1240 0.6969
vn 0.6495 0.3763 0.6607
vn 0.7518 0.1210 -0.6482
vn -0.4995 0.3808 0.7781
vn -0.4719 0.4361 -0.7662
vn -0.1321 -0.7120 -0.6897
vn -0.1319 -0.7119 0.6897
vn -0.7064 0.1240 0.6969
vn -0.5920 0.3870 -0.7070
vn -0.0000 0.5593 0.8290
vn -0.0000 0.8938 0.4484
vn -0.0000 -0.9087 0.4175
vn -0.0000 -0.8949 -0.4463
vn 0.7518 -0.1210 -0.6482
vn 0.6495 -0.3763 0.6607
vn 0.1319 -0.7119 -0.6897
vn 0.4719 0.4364 -0.7661
vn 0.4718 0.4364 0.7661
vn -0.6030 0.6133 0.5101
vn 0.6417 -0.4836 -0.5954
vn 0.1319 -0.7119 0.6897
vn -0.4949 -0.3967 0.7731
vn -0.7518 -0.1210 -0.6482
vn 0.5920 0.3870 -0.7070
vn 0.7064 0.1240 0.6969
vn -0.0000 -0.8813 -0.4726
vn -0.8588 -0.2501 -0.4471
vn -0.1154 0.9633 0.2425
vn 0.0088 0.9529 0.3032
vn -0.6615 0.6792 0.3179
vn -0.5976 0.7471 0.2910
vn 0.7923 0.4160 -0.4462
vn 0.6340 -0.6025 -0.4849
vn -0.0000 0.8814 -0.4725
vn 0.6337 0.6025 -0.4851
vn 0.7923 -0.4159 -0.4464
vn -0.5976 -0.7471 0.2910
vn -0.6615 -0.6792 0.3179
vn -0.0000 -0.9459 0.3246
vn 0.6489 -0.6795 0.3422
vn 0.9428 0.0082 0.3332
vn 0.9433 -0.1075 0.3139
vn -0.2728 -0.8670 -0.4171
vn -0.8672 -0.0001 -0.4980
vn -0.6337 0.6024 -0.4853
vn -0.4967 -0.6199 -0.6074
vn 0.7205 -0.1280 -0.6815
vn 0.7202 -0.1278 0.6819
vn -0.4157 -0.5231 0.7440
vt 0.000000 0.000000
s 1
f 65/1/1 66/1/2 11/1/3 9/1/4
f 66/1/2 65/1/1 10/1/5 12/1/6
f 66/1/2 67/1/7 7/1/8 11/1/3
f 67/1/7 66/1/2 12/1/6 8/1/9
f 67/1/7 68/1/10 3/1/11 7/1/8
f 68/1/10 67/1/7 8/1/9 4/1/12
f 68/1/10 69/1/13 5/1/14 3/1/11
f 69/1/13 68/1/10 4/1/12 6/1/15
f 69/1/13 70/1/16 1/1/17 5/1/14
f 70/1/16 69/1/13 6/1/15 2/1/18
f 70/1/16 71/1/19 15/1/20 1/1/17
f 71/1/19 70/1/16 2/1/18 16/1/21
f 71/1/19 72/1/22 13/1/23 15/1/20
f 72/1/22 71/1/19 16/1/21 14/1/24
f 72/1/22 65/1/1 9/1/4 13/1/23
f 65/1/1 72/1/22 14/1/24 10/1/5
f 73/1/25 74/1/26 9/1/4 11/1/3
f 74/1/26 73/1/25 12/1/6 10/1/5
f 74/1/26 75/1/27 53/1/28 9/1/4
f 75/1/27 74/1/26 10/1/5 54/1/29
f 75/1/27 76/1/30 51/1/31 53/1/28
f 76/1/30 75/1/27 54/1/29 52/1/32
f 76/1/30 73/1/25 11/1/3 51/1/31
f 73/1/25 76/1/30 52/1/32 12/1/6
f 77/1/33 78/1/34 11/1/3 7/1/8
f 78/1/34 77/1/33 8/1/9 12/1/6
f 78/1/34 79/1/35 51/1/31 11/1/3
f 79/1/35 78/1/34 12/1/6 52/1/32
f 79/1/35 80/1/36 49/1/37 51/1/31
f 80/1/36 79/1/35 52/1/32 50/1/38
f 80/1/36 77/1/33 7/1/8 49/1/37
f 77/1/33 80/1/36 50/1/38 8/1/9
f 81/1/39 82/1/40 3/1/11 55/1/41
f 82/1/40 81/1/39 56/1/42 4/1/12
f 82/1/40 83/1/43 7/1/8 3/1/11
f 83/1/43 82/1/40 4/1/12 8/1/9
f 83/1/43 84/1/44 49/1/37 7/1/8
f 84/1/44 83/1/43 8/1/9 50/1/38
f 84/1/44 81/1/39 55/1/41 49/1/37
f 81/1/39 84/1/44 50/1/38 56/1/42
f 85/1/45 86/1/46 45/1/47 41/1/48
f 86/1/46 85/1/45 42/1/49 46/1/50
f 86/1/46 87/1/51 33/1/52 45/1/47
f 87/1/51 86/1/46 46/1/50 34/1/53
f 87/1/51 88/1/54 37/1/55 33/1/52
f 88/1/54 87/1/51 34/1/53 38/1/56
f 88/1/54 85/1/45 41/1/48 37/1/55
f 85/1/45 88/1/54 38/1/56 42/1/49
f 89/1/57 90/1/58 23/1/59 17/1/60
f 90/1/58 89/1/57 18/1/61 24/1/62
f 90/1/58 91/1/63 19/1/64 23/1/59
f 91/1/63 90/1/58 24/1/62 20/1/65
f 91/1/63 92/1/66 21/1/67 19/1/64
f 92/1/66 91/1/63 20/1/65 22/1/68
f 92/1/66 89/1/57 17/1/60 21/1/67
f 89/1/57 92/1/66 22/1/68 18/1/61
f 93/1/69 94/1/70 43/1/71 47/1/72
f 94/1/70 93/1/69 48/1/73 44/1/74
f 94/1/70 95/1/75 45/1/47 43/1/71
f 95/1/75 94/1/70 44/1/74 46/1/50
f 95/1/75 96/1/76 41/1/48 45/1/47
f 96/1/76 95/1/75 46/1/50 42/1/49
f 96/1/76 93/1/69 47/1/72 41/1/48
f 93/1/69 96/1/76 42/1/49 48/1/73
f 97/1/77 98/1/78 37/1/55 25/1/79
f 98/1/78 97/1/77 26/1/80 38/1/56
f 98/1/78 99/1/81 33/1/52 37/1/55
f 99/1/81 98/1/78 38/1/56 34/1/53
f 99/1/81 100/1/82 29/1/83 33/1/52
f 100/1/82 99/1/81 34/1/53 30/1/84
f 100/1/82 97/1/77 25/1/79 29/1/83
f 97/1/77 100/1/82 30/1/84 26/1/80
f 101/1/85 102/1/86 5/1/14 57/1/87
f 102/1/86 101/1/85 58/1/88 6/1/15
f 102/1/86 103/1/89 3/1/11 5/1/14
f 103/1/89 102/1/86 6/1/15 4/1/12
f 103/1/89 104/1/90 55/1/41 3/1/11
f 104/1/90 103/1/89 4/1/12 56/1/42
f 104/1/90 101/1/85 57/1/87 55/1/41
f 101/1/85 104/1/90 56/1/42 58/1/88
f 105/1/91 106/1/92 31/1/93 27/1/94
f 106/1/92 105/1/91 28/1/95 32/1/96
f 106/1/92 107/1/97 23/1/59 31/1/93
f 107/1/97 106/1/92 32/1/96 24/1/62
f 107/1/97 108/1/98 17/1/60 23/1/59
f 108/1/98 107/1/97 24/1/62 18/1/61
f 108/1/98 105/1/91 27/1/94 17/1/60
f 105/1/91 108/1/98 18/1/61 28/1/95
f 109/1/99 110/1/100 15/1/20 61/1/101
f 110/1/100 109/1/99 62/1/102 16/1/21
f 110/1/100 111/1/103 1/1/17 15/1/20
f 111/1/103 110/1/100 16/1/21 2/1/18
f 111/1/103 112/1/104 63/1/105 1/1/17
f 112/1/104 111/1/103 2/1/18 64/1/106
f 112/1/104 109/1/99 61/1/101 63/1/105
f 109/1/99 112/1/104 64/1/106 62/1/102
f 113/1/107 114/1/108 29/1/83 25/1/79
f 114/1/108 113/1/107 26/1/80 30/1/84
f 114/1/108 115/1/109 21/1/67 29/1/83
f 115/1/109 114/1/108 30/1/84 22/1/68
f 115/1/109 116/1/110 19/1/64 21/1/67
f 116/1/110 115/1/109 22/1/68 20/1/65
f 116/1/110 113/1/107 25/1/79 19/1/64
f 113/1/107 116/1/110 20/1/65 26/1/80
f 117/1/111 118/1/112 1/1/17 63/1/105
f 118/1/112 117/1/111 64/1/106 2/1/18
f 118/1/112 119/1/113 5/1/14 1/1/17
f 119/1/113 118/1/112 2/1/18 6/1/15
f 119/1/113 120/1/114 57/1/87 5/1/14
f 120/1/114 119/1/113 6/1/15 58/1/88
f 120/1/114 117/1/111 63/1/105 57/1/87
f 117/1/111 120/1/114 58/1/88 64/1/106
f 121/1/115 122/1/116 39/1/117 35/1/118
f 122/1/116 121/1/115 36/1/119 40/1/120
f 122/1/116 123/1/121 31/1/93 39/1/117
f 123/1/121 122/1/116 40/1/120 32/1/96
f 123/1/121 124/1/122 27/1/94 31/1/93
f 124/1/122 123/1/121 32/1/96 28/1/95
f 124/1/122 121/1/115 35/1/118 27/1/94
f 121/1/115 124/1/122 28/1/95 36/1/119
f 125/1/123 126/1/124 13/1/23 9/1/4
f 126/1/124 125/1/123 10/1/5 14/1/24
f 126/1/124 127/1/125 59/1/126 13/1/23
f 127/1/125 126/1/124 14/1/24 60/1/127
f 127/1/125 128/1/128 53/1/28 59/1/126
f 128/1/128 127/1/125 60/1/127 54/1/29
f 128/1/128 125/1/123 9/1/4 53/1/28
f 125/1/123 128/1/128 54/1/29 10/1/5
f 129/1/129 130/1/130 47/1/72 43/1/71
f 130/1/130 129/1/129 44/1/74 48/1/73
f 130/1/130 131/1/131 39/1/117 47/1/72
f 131/1/131 130/1/130 48/1/73 40/1/120
f 131/1/131 132/1/132 35/1/118 39/1/117
f 132/1/132 131/1/131 40/1/120 36/1/119
f 132/1/132 129/1/129 43/1/71 35/1/118
f 129/1/129 132/1/132 36/1/119 44/1/74
f 133/1/133 134/1/134 51/1/31 49/1/37
f 134/1/134 133/1/133 50/1/38 52/1/32
f 134/1/134 135/1/135 37/1/55 51/1/31
f 135/1/135 134/1/134 52/1/32 38/1/56
f 135/1/135 136/1/136 25/1/79 37/1/55
f 136/1/136 135/1/135 38/1/56 26/1/80
f 136/1/136 137/1/137 19/1/64 25/1/79
f 137/1/137 136/1/136 26/1/80 20/1/65
f 137/1/137 138/1/138 23/1/59 19/1/64
f 138/1/138 137/1/137 20/1/65 24/1/62
f 138/1/138 139/1/139 57/1/87 23/1/59
f 139/1/139 138/1/138 24/1/62 58/1/88
f 139/1/139 140/1/140 55/1/41 57/1/87
f 140/1/140 139/1/139 58/1/88 56/1/42
f 140/1/140 133/1/133 49/1/37 55/1/41
f 133/1/133 140/1/140 56/1/42 50/1/38
f 141/1/141 142/1/142 63/1/105 61/1/101
f 142/1/142 141/1/141 62/1/102 64/1/106
f 142/1/142 143/1/143 57/1/87 63/1/105
f 143/1/143 142/1/142 64/1/106 58/1/88
f 143/1/143 144/1/144 23/1/59 57/1/87
f 144/1/144 143/1/143 58/1/88 24/1/62
f 144/1/144 145/1/145 31/1/93 23/1/59
f 145/1/145 144/1/144 24/1/62 32/1/96
f 145/1/145 146/1/146 39/1/117 31/1/93
f 146/1/146 145/1/145 32/1/96 40/1/120
f 146/1/146 147/1/147 47/1/72 39/1/117
f 147/1/147 146/1/146 40/1/120 48/1/73
f 147/1/147 148/1/148 41/1/48 47/1/72
f 148/1/148 147/1/147 48/1/73 42/1/49
f 148/1/148 149/1/149 37/1/55 41/1/48
f 149/1/149 148/1/148 42/1/49 38/1/56
f 149/1/149 150/1/150 51/1/31 37/1/55
f 150/1/150 149/1/149 38/1/56 52/1/32
f 150/1/150 151/1/151 53/1/28 51/1/31
f 151/1/151 150/1/150 52/1/32 54/1/29
f 151/1/151 152/1/152 59/1/126 53/1/28
f 152/1/152 151/1/151 54/1/29 60/1/127
f 152/1/152 141/1/141 61/1/101 59/1/126
f 141/1/141 152/1/152 60/1/127 62/1/102
f 153/1/153 154/1/154 15/1/20 13/1/23
f 154/1/154 153/1/153 14/1/24 16/1/21
f 154/1/154 155/1/155 61/1/101 15/1/20
f 155/1/155 154/1/154 16/1/21 62/1/102
f 155/1/155 156/1/156 59/1/126 61/1/101
f 156/1/156 155/1/155 62/1/102 60/1/127
f 156/1/156 153/1/153 13/1/23 59/1/126
f 153/1/153 156/1/156 60/1/127 14/1/24
