# Blender 5.2.2 LTS
# www.blender.org
mtllib Glass ak47 mag.mtl
o 17662005301
v -0.122986 0.330262 -0.085462
v -0.124058 0.331480 -0.086631
v 0.133576 0.330262 0.085462
v 0.134792 0.331362 0.086607
v 0.133576 0.330262 -0.085462
v 0.134792 0.331362 -0.086607
v -0.122986 0.330262 0.085462
v -0.124058 0.331480 0.086631
v -0.409264 -0.141633 -0.102555
v -0.410903 -0.141543 -0.103698
v -0.218511 -0.330262 -0.102555
v -0.218600 -0.331883 -0.103723
v -0.218511 -0.330262 0.102555
v -0.218600 -0.331883 0.103723
v -0.409264 -0.141633 0.102555
v -0.410903 -0.141543 0.103698
v -0.188871 -0.306765 -0.102555
v -0.187541 -0.307407 -0.103904
v -0.188871 -0.306765 0.102555
v -0.187541 -0.307407 0.103904
v 0.122069 0.215670 0.085462
v 0.123497 0.215400 0.086836
v 0.122069 0.215670 -0.085462
v 0.123497 0.215400 -0.086836
v 0.095676 0.121070 0.085462
v 0.097038 0.120599 0.086848
v 0.095676 0.121070 -0.085462
v 0.097038 0.120599 -0.086848
v 0.031145 -0.034808 0.085462
v 0.032428 -0.035505 0.086829
v 0.031145 -0.034808 -0.085462
v 0.032428 -0.035505 -0.086829
v -0.057196 -0.165909 0.085462
v -0.056092 -0.166877 0.086821
v -0.057196 -0.165909 -0.085462
v -0.056092 -0.166877 -0.086821
v -0.175556 -0.274858 0.085462
v -0.174056 -0.275270 0.086719
v -0.175556 -0.274858 -0.085462
v -0.174056 -0.275270 -0.086719
v -0.379624 -0.118135 -0.102555
v -0.380047 -0.116759 -0.103943
v -0.379624 -0.118135 0.102555
v -0.380047 -0.116759 0.103943
v -0.133627 0.246980 -0.085462
v -0.135047 0.247282 -0.086838
v -0.133627 0.246980 0.085462
v -0.135047 0.247282 0.086838
v -0.154079 0.178578 -0.085462
v -0.155433 0.179066 -0.086851
v -0.154079 0.178578 0.085462
v -0.155433 0.179066 0.086851
v -0.210539 0.045637 -0.085462
v -0.211811 0.046365 -0.086823
v -0.210539 0.045637 0.085462
v -0.211811 0.046365 0.086823
v -0.282155 -0.053587 -0.085462
v -0.283211 -0.052555 -0.086812
v -0.282155 -0.053587 0.085462
v -0.283211 -0.052555 0.086812
v -0.354615 -0.111757 -0.085462
v -0.354978 -0.110285 -0.086766
v -0.354615 -0.111757 0.085462
v -0.354978 -0.110285 0.086766
v 0.134084 0.329817 -0.085034
v 0.134084 0.329817 0.085034
v 0.122883 0.216530 0.085149
v 0.122883 0.216530 -0.085149
v -0.210784 0.046921 -0.085143
v -0.210784 0.046921 0.085143
v -0.155147 0.177902 0.085156
v -0.155147 0.177902 -0.085156
v -0.174070 -0.274387 0.085091
v -0.174070 -0.274387 -0.085091
v -0.057380 -0.167070 -0.085141
v -0.057380 -0.167070 0.085141
v 0.096626 0.121798 0.085155
v 0.096626 0.121798 -0.085155
v 0.122514 0.214572 -0.085149
v 0.122514 0.214572 0.085149
v -0.219266 -0.330369 0.102139
v -0.409373 -0.142291 0.102126
v -0.409373 -0.142291 -0.102126
v -0.219266 -0.330369 -0.102139
v -0.154470 0.179780 -0.085156
v -0.154470 0.179780 0.085156
v -0.134623 0.246173 0.085150
v -0.134623 0.246173 -0.085150
v -0.282098 -0.052260 -0.085137
v -0.282098 -0.052260 0.085137
v -0.211760 0.045190 0.085143
v -0.211760 0.045190 -0.085143
v -0.056085 -0.165563 0.085141
v -0.056085 -0.165563 -0.085141
v 0.031228 -0.035986 -0.085145
v 0.031228 -0.035986 0.085145
v -0.354874 -0.112011 0.086735
v -0.378153 -0.117997 0.102638
v -0.188594 -0.305461 0.102759
v -0.175944 -0.275226 0.086555
v -0.379908 -0.118781 0.103249
v -0.408578 -0.141671 0.103126
v -0.218482 -0.329738 0.103139
v -0.189712 -0.307003 0.103229
v 0.121797 0.215721 -0.086149
v 0.095410 0.121161 -0.086155
v 0.030901 -0.034681 -0.086145
v -0.057408 -0.165737 -0.086141
v -0.174810 -0.273708 -0.086091
v -0.353259 -0.111069 -0.086114
v -0.281951 -0.053766 -0.086137
v -0.210298 0.045507 -0.086143
v -0.153814 0.178482 -0.086156
v -0.133355 0.246923 -0.086150
v -0.122642 0.329871 -0.086046
v 0.133079 0.329812 -0.086034
v -0.188990 -0.307707 -0.102229
v -0.188990 -0.307707 0.102229
v -0.217772 -0.330451 0.102139
v -0.217772 -0.330451 -0.102139
v -0.122522 0.330871 -0.085046
v -0.122522 0.330871 0.085046
v 0.133184 0.330812 0.085034
v 0.133184 0.330812 -0.085034
v -0.354017 -0.110395 -0.085114
v -0.354017 -0.110395 0.085114
v -0.283463 -0.053697 0.085137
v -0.283463 -0.053697 -0.085137
v 0.032169 -0.034232 0.085145
v 0.032169 -0.034232 -0.085145
v 0.095975 0.119910 -0.085155
v 0.095975 0.119910 0.085155
v -0.379908 -0.118781 -0.103249
v -0.189712 -0.307003 -0.103229
v -0.218482 -0.329738 -0.103139
v -0.408578 -0.141671 -0.103126
v -0.354874 -0.112011 -0.086735
v -0.175944 -0.275226 -0.086555
v -0.188594 -0.305461 -0.102759
v -0.378153 -0.117997 -0.102638
v -0.378866 -0.117200 -0.101387
v -0.378866 -0.117200 0.101387
v -0.355766 -0.111268 0.085577
v -0.355766 -0.111268 -0.085577
v -0.187821 -0.306163 0.101620
v -0.187821 -0.306163 -0.101619
v -0.175191 -0.275987 -0.085469
v -0.175191 -0.275987 0.085469
v -0.210298 0.045507 0.086143
v -0.281951 -0.053766 0.086137
v -0.353259 -0.111069 0.086114
v -0.174810 -0.273708 0.086091
v -0.057408 -0.165737 0.086141
v 0.030901 -0.034681 0.086145
v 0.095410 0.121161 0.086155
v 0.121797 0.215720 0.086149
v 0.133079 0.329812 0.086034
v -0.122642 0.329871 0.086046
v -0.133355 0.246923 0.086150
v -0.153814 0.178482 0.086156
v -0.134210 0.248123 -0.085150
v -0.134210 0.248123 0.085150
v -0.123649 0.329879 0.085046
v -0.123649 0.329879 -0.085046
v -0.409300 -0.140967 -0.102126
v -0.409300 -0.140967 0.102126
v -0.380619 -0.118068 0.102249
v -0.380619 -0.118068 -0.102249
vn 0.4351 -0.6402 0.6331
vn 0.4351 -0.6402 -0.6331
vn -0.5948 -0.5457 -0.5903
vn -0.5948 -0.5457 0.5903
vn 0.6105 0.5636 -0.5565
vn 0.6105 0.5636 0.5565
vn 0.3901 0.5860 -0.7103
vn -0.8912 0.1685 -0.4211
vn 0.6716 -0.1238 0.7305
vn 0.3904 0.5861 0.7100
vn -0.8914 0.1679 0.4210
vn 0.6708 -0.1244 -0.7311
vn -0.0543 0.6777 0.7333
vn -0.0530 0.6779 -0.7332
vn 0.7984 -0.4513 -0.3985
vn 0.8017 -0.4530 0.3900
vn -0.5512 0.3051 -0.7766
vn -0.5502 0.3165 0.7727
vn -0.5426 -0.4183 -0.7284
vn 0.8651 -0.3119 -0.3927
vn -0.6074 0.2190 0.7636
vn -0.5426 -0.4183 0.7284
vn 0.8651 -0.3119 0.3927
vn -0.6074 0.2190 -0.7636
vn 0.5681 0.3324 -0.7528
vn 0.5706 0.3397 0.7477
vn -0.7317 0.0908 0.6756
vn -0.7205 0.1283 -0.6814
vn 0.7597 -0.2640 0.5943
vn 0.7488 -0.2151 -0.6269
vn -0.2075 -0.6612 0.7209
vn -0.6910 0.5991 0.4044
vn 0.5328 -0.4495 -0.7170
vn -0.2075 -0.6612 -0.7209
vn -0.6897 0.5934 -0.4150
vn 0.5226 -0.4612 0.7171
vn 0.5084 0.4694 -0.7219
vn 0.5085 0.4696 0.7218
vn -0.8681 0.2996 0.3957
vn -0.8679 0.3000 -0.3959
vn 0.6402 -0.2209 0.7357
vn 0.6395 -0.2207 -0.7364
vn 0.1958 -0.6672 0.7187
vn 0.1957 -0.6669 -0.7190
vn -0.7687 0.1163 -0.6290
vn 0.1034 -0.7784 -0.6192
vn 0.8020 -0.0376 -0.5962
vn 0.0488 0.8288 -0.5574
vn -0.0515 -0.8059 0.5898
vn -0.8290 0.0367 0.5580
vn 0.1034 -0.7785 0.6190
vn 0.8020 -0.0376 0.5962
vn -0.8290 0.0367 -0.5580
vn -0.7687 0.1163 0.6290
vn 0.0488 0.8288 0.5574
vn -0.0515 -0.8059 -0.5898
vn -0.1528 0.6685 0.7278
vn -0.1524 0.6683 -0.7281
vn -0.4877 -0.4809 -0.7286
vn 0.8913 -0.1902 -0.4116
vn -0.6267 0.1321 0.7680
vn -0.4877 -0.4809 0.7286
vn 0.8917 -0.1890 0.4113
vn -0.6254 0.1327 -0.7690
vn 0.1105 0.6620 0.7413
vn 0.1139 0.6617 -0.7411
vn 0.6597 -0.6294 -0.4107
vn 0.6675 -0.6241 0.4061
vn -0.4628 0.4400 -0.7695
vn -0.4507 0.4452 0.7737
vn -0.6059 -0.3068 -0.7340
vn -0.6059 -0.3068 0.7340
vn 0.6327 0.2792 -0.7223
vn 0.6320 0.2814 0.7221
vn -0.0281 -0.6919 0.7214
vn -0.8091 0.4314 0.3991
vn 0.6060 -0.3300 -0.7238
vn -0.0281 -0.6919 -0.7215
vn -0.8065 0.4335 -0.4020
vn 0.6060 -0.3300 0.7238
vn -0.1694 -0.8395 0.5163
vn 0.9846 -0.1457 0.0966
vn 0.1099 -0.7689 -0.6298
vn -0.0659 -0.8919 -0.4474
vn -0.2682 0.6487 0.7122
vn -0.2332 0.6675 0.7071
vn -0.1659 0.9821 0.0892
vn -0.7027 0.2527 -0.6651
vn 0.6485 -0.3511 0.6755
vn -0.8330 0.1129 0.5416
vn 0.0015 -0.9240 0.3824
vn 0.8654 -0.0751 0.4955
vn 0.0234 0.8791 0.4760
vn -0.8987 0.1141 0.4234
vn -0.9083 0.1733 -0.3806
vn -0.8653 0.2986 -0.4027
vn -0.8029 0.4311 -0.4117
vn -0.6936 0.5950 -0.4061
vn -0.1785 0.9702 -0.1641
vn 0.9819 -0.1876 -0.0251
vn 0.1718 -0.8552 0.4890
vn 0.0052 0.7929 -0.6093
vn 0.6747 -0.6388 -0.3698
vn 0.8067 -0.4544 -0.3780
vn 0.8687 -0.3132 -0.3837
vn 0.9125 -0.1950 -0.3597
vn 0.5981 -0.6365 -0.4869
vn 0.5478 -0.6276 0.5531
vn -0.5284 0.6130 -0.5874
vn -0.6593 -0.5573 -0.5047
vn -0.2067 -0.6951 0.6886
vn -0.2067 -0.6951 -0.6886
vn -0.7027 0.2526 0.6651
vn 0.6485 -0.3511 -0.6755
vn 0.7669 -0.0007 -0.6418
vn 0.7669 -0.0007 0.6418
vn 0.6274 0.4573 0.6303
vn 0.6274 0.4573 -0.6303
vn 0.5478 -0.6276 -0.5531
vn -0.5284 0.6130 0.5874
vn -0.6203 0.4794 -0.6208
vn -0.6205 0.4792 0.6208
vn 0.3302 0.5140 0.7917
vn 0.3491 0.5043 -0.7898
vn -0.6574 -0.1532 -0.7378
vn -0.6574 -0.1532 0.7378
vn 0.5662 0.4017 -0.7198
vn 0.5658 0.4024 0.7197
vn 0.1094 -0.6830 0.7222
vn 0.1094 -0.6829 -0.7222
vn 0.0014 -0.9240 -0.3823
vn -0.8988 0.1140 -0.4233
vn 0.1099 -0.7689 0.6298
vn -0.2332 0.6675 -0.7071
vn 0.0234 0.8791 -0.4760
vn 0.8654 -0.0751 -0.4955
vn 0.2503 -0.7095 -0.6588
vn -0.8330 0.1129 -0.5416
vn -0.1659 0.9821 -0.0892
vn 0.9846 -0.1457 -0.0966
vn 0.2369 0.4536 0.8592
vn 0.2370 0.4537 -0.8591
vn -0.8274 -0.0491 -0.5594
vn -0.8274 -0.0491 0.5594
vn 0.5075 0.2241 -0.8320
vn 0.5074 0.2245 0.8320
vn -0.0440 -0.8155 0.5771
vn -0.0440 -0.8155 -0.5771
vn 0.8067 -0.4544 0.3780
vn 0.6747 -0.6388 0.3698
vn 0.9819 -0.1876 0.0251
vn -0.1785 0.9701 0.1642
vn -0.6936 0.5950 0.4061
vn -0.8029 0.4311 0.4117
vn -0.8652 0.2986 0.4027
vn -0.9083 0.1733 0.3807
vn -0.6593 -0.5573 0.5047
vn 0.5981 -0.6365 0.4869
vn 0.9125 -0.1950 0.3597
vn 0.8687 -0.3132 0.3837
vn -0.2121 0.6560 0.7243
vn -0.2118 0.6562 -0.7243
vn -0.5509 -0.5263 -0.6477
vn -0.5509 -0.5263 0.6477
vn 0.1596 0.7636 0.6256
vn 0.1596 0.7636 -0.6256
vn -0.7181 -0.0596 -0.6934
vn -0.7181 -0.0596 0.6934
vt 0.000000 0.000000
s 1
f 65/1/1 66/1/2 3/1/3 5/1/4
f 66/1/2 65/1/1 6/1/5 4/1/6
f 66/1/2 67/1/7 21/1/8 3/1/3
f 67/1/7 66/1/2 4/1/6 22/1/9
f 67/1/7 68/1/10 23/1/11 21/1/8
f 68/1/10 67/1/7 22/1/9 24/1/12
f 68/1/10 65/1/1 5/1/4 23/1/11
f 65/1/1 68/1/10 24/1/12 6/1/5
f 69/1/13 70/1/14 55/1/15 53/1/16
f 70/1/14 69/1/13 54/1/17 56/1/18
f 70/1/14 71/1/19 51/1/20 55/1/15
f 71/1/19 70/1/14 56/1/18 52/1/21
f 71/1/19 72/1/22 49/1/23 51/1/20
f 72/1/22 71/1/19 52/1/21 50/1/24
f 72/1/22 69/1/13 53/1/16 49/1/23
f 69/1/13 72/1/22 50/1/24 54/1/17
f 73/1/25 74/1/26 39/1/27 37/1/28
f 74/1/26 73/1/25 38/1/29 40/1/30
f 74/1/26 75/1/31 35/1/32 39/1/27
f 75/1/31 74/1/26 40/1/30 36/1/33
f 75/1/31 76/1/34 33/1/35 35/1/32
f 76/1/34 75/1/31 36/1/33 34/1/36
f 76/1/34 73/1/25 37/1/28 33/1/35
f 73/1/25 76/1/34 34/1/36 38/1/29
f 77/1/37 78/1/38 27/1/39 25/1/40
f 78/1/38 77/1/37 26/1/41 28/1/42
f 78/1/38 79/1/43 23/1/11 27/1/39
f 79/1/43 78/1/38 28/1/42 24/1/12
f 79/1/43 80/1/44 21/1/8 23/1/11
f 80/1/44 79/1/43 24/1/12 22/1/9
f 80/1/44 77/1/37 25/1/40 21/1/8
f 77/1/37 80/1/44 22/1/9 26/1/41
f 81/1/45 82/1/46 15/1/47 13/1/48
f 82/1/46 81/1/45 14/1/49 16/1/50
f 82/1/46 83/1/51 9/1/52 15/1/47
f 83/1/51 82/1/46 16/1/50 10/1/53
f 83/1/51 84/1/54 11/1/55 9/1/52
f 84/1/54 83/1/51 10/1/53 12/1/56
f 84/1/54 81/1/45 13/1/48 11/1/55
f 81/1/45 84/1/54 12/1/56 14/1/49
f 85/1/57 86/1/58 51/1/20 49/1/23
f 86/1/58 85/1/57 50/1/24 52/1/21
f 86/1/58 87/1/59 47/1/60 51/1/20
f 87/1/59 86/1/58 52/1/21 48/1/61
f 87/1/59 88/1/62 45/1/63 47/1/60
f 88/1/62 87/1/59 48/1/61 46/1/64
f 88/1/62 85/1/57 49/1/23 45/1/63
f 85/1/57 88/1/62 46/1/64 50/1/24
f 89/1/65 90/1/66 59/1/67 57/1/68
f 90/1/66 89/1/65 58/1/69 60/1/70
f 90/1/66 91/1/71 55/1/15 59/1/67
f 91/1/71 90/1/66 60/1/70 56/1/18
f 91/1/71 92/1/72 53/1/16 55/1/15
f 92/1/72 91/1/71 56/1/18 54/1/17
f 92/1/72 89/1/65 57/1/68 53/1/16
f 89/1/65 92/1/72 54/1/17 58/1/69
f 93/1/73 94/1/74 35/1/32 33/1/35
f 94/1/74 93/1/73 34/1/36 36/1/33
f 94/1/74 95/1/75 31/1/76 35/1/32
f 95/1/75 94/1/74 36/1/33 32/1/77
f 95/1/75 96/1/78 29/1/79 31/1/76
f 96/1/78 95/1/75 32/1/77 30/1/80
f 96/1/78 93/1/73 33/1/35 29/1/79
f 93/1/73 96/1/78 30/1/80 34/1/36
f 97/1/81 98/1/82 43/1/83 63/1/84
f 98/1/82 97/1/81 64/1/85 44/1/86
f 98/1/82 99/1/87 19/1/88 43/1/83
f 99/1/87 98/1/82 44/1/86 20/1/89
f 99/1/87 100/1/90 37/1/28 19/1/88
f 100/1/90 99/1/87 20/1/89 38/1/29
f 100/1/90 97/1/81 63/1/84 37/1/28
f 97/1/81 100/1/90 38/1/29 64/1/85
f 101/1/91 102/1/92 15/1/47 43/1/83
f 102/1/92 101/1/91 44/1/86 16/1/50
f 102/1/92 103/1/93 13/1/48 15/1/47
f 103/1/93 102/1/92 16/1/50 14/1/49
f 103/1/93 104/1/94 19/1/88 13/1/48
f 104/1/94 103/1/93 14/1/49 20/1/89
f 104/1/94 101/1/91 43/1/83 19/1/88
f 101/1/91 104/1/94 20/1/89 44/1/86
f 105/1/95 106/1/96 27/1/39 23/1/11
f 106/1/96 105/1/95 24/1/12 28/1/42
f 106/1/96 107/1/97 31/1/76 27/1/39
f 107/1/97 106/1/96 28/1/42 32/1/77
f 107/1/97 108/1/98 35/1/32 31/1/76
f 108/1/98 107/1/97 32/1/77 36/1/33
f 108/1/98 109/1/99 39/1/27 35/1/32
f 109/1/99 108/1/98 36/1/33 40/1/30
f 109/1/99 110/1/100 61/1/101 39/1/27
f 110/1/100 109/1/99 40/1/30 62/1/102
f 110/1/100 111/1/103 57/1/68 61/1/101
f 111/1/103 110/1/100 62/1/102 58/1/69
f 111/1/103 112/1/104 53/1/16 57/1/68
f 112/1/104 111/1/103 58/1/69 54/1/17
f 112/1/104 113/1/105 49/1/23 53/1/16
f 113/1/105 112/1/104 54/1/17 50/1/24
f 113/1/105 114/1/106 45/1/63 49/1/23
f 114/1/106 113/1/105 50/1/24 46/1/64
f 114/1/106 115/1/107 1/1/108 45/1/63
f 115/1/107 114/1/106 46/1/64 2/1/109
f 115/1/107 116/1/110 5/1/4 1/1/108
f 116/1/110 115/1/107 2/1/109 6/1/5
f 116/1/110 105/1/95 23/1/11 5/1/4
f 105/1/95 116/1/110 6/1/5 24/1/12
f 117/1/111 118/1/112 19/1/88 17/1/113
f 118/1/112 117/1/111 18/1/114 20/1/89
f 118/1/112 119/1/115 13/1/48 19/1/88
f 119/1/115 118/1/112 20/1/89 14/1/49
f 119/1/115 120/1/116 11/1/55 13/1/48
f 120/1/116 119/1/115 14/1/49 12/1/56
f 120/1/116 117/1/111 17/1/113 11/1/55
f 117/1/111 120/1/116 12/1/56 18/1/114
f 121/1/117 122/1/118 7/1/119 1/1/108
f 122/1/118 121/1/117 2/1/109 8/1/120
f 122/1/118 123/1/121 3/1/3 7/1/119
f 123/1/121 122/1/118 8/1/120 4/1/6
f 123/1/121 124/1/122 5/1/4 3/1/3
f 124/1/122 123/1/121 4/1/6 6/1/5
f 124/1/122 121/1/117 1/1/108 5/1/4
f 121/1/117 124/1/122 6/1/5 2/1/109
f 125/1/123 126/1/124 63/1/84 61/1/101
f 126/1/124 125/1/123 62/1/102 64/1/85
f 126/1/124 127/1/125 59/1/67 63/1/84
f 127/1/125 126/1/124 64/1/85 60/1/70
f 127/1/125 128/1/126 57/1/68 59/1/67
f 128/1/126 127/1/125 60/1/70 58/1/69
f 128/1/126 125/1/123 61/1/101 57/1/68
f 125/1/123 128/1/126 58/1/69 62/1/102
f 129/1/127 130/1/128 31/1/76 29/1/79
f 130/1/128 129/1/127 30/1/80 32/1/77
f 130/1/128 131/1/129 27/1/39 31/1/76
f 131/1/129 130/1/128 32/1/77 28/1/42
f 131/1/129 132/1/130 25/1/40 27/1/39
f 132/1/130 131/1/129 28/1/42 26/1/41
f 132/1/130 129/1/127 29/1/79 25/1/40
f 129/1/127 132/1/130 26/1/41 30/1/80
f 133/1/131 134/1/132 17/1/113 41/1/133
f 134/1/132 133/1/131 42/1/134 18/1/114
f 134/1/132 135/1/135 11/1/55 17/1/113
f 135/1/135 134/1/132 18/1/114 12/1/56
f 135/1/135 136/1/136 9/1/52 11/1/55
f 136/1/136 135/1/135 12/1/56 10/1/53
f 136/1/136 133/1/131 41/1/133 9/1/52
f 133/1/131 136/1/136 10/1/53 42/1/134
f 137/1/137 138/1/138 39/1/27 61/1/101
f 138/1/138 137/1/137 62/1/102 40/1/30
f 138/1/138 139/1/139 17/1/113 39/1/27
f 139/1/139 138/1/138 40/1/30 18/1/114
f 139/1/139 140/1/140 41/1/133 17/1/113
f 140/1/140 139/1/139 18/1/114 42/1/134
f 140/1/140 137/1/137 61/1/101 41/1/133
f 137/1/137 140/1/140 42/1/134 62/1/102
f 141/1/141 142/1/142 43/1/83 41/1/133
f 142/1/142 141/1/141 42/1/134 44/1/86
f 142/1/142 143/1/143 63/1/84 43/1/83
f 143/1/143 142/1/142 44/1/86 64/1/85
f 143/1/143 144/1/144 61/1/101 63/1/84
f 144/1/144 143/1/143 64/1/85 62/1/102
f 144/1/144 141/1/141 41/1/133 61/1/101
f 141/1/141 144/1/144 62/1/102 42/1/134
f 145/1/145 146/1/146 17/1/113 19/1/88
f 146/1/146 145/1/145 20/1/89 18/1/114
f 146/1/146 147/1/147 39/1/27 17/1/113
f 147/1/147 146/1/146 18/1/114 40/1/30
f 147/1/147 148/1/148 37/1/28 39/1/27
f 148/1/148 147/1/147 40/1/30 38/1/29
f 148/1/148 145/1/145 19/1/88 37/1/28
f 145/1/145 148/1/148 38/1/29 20/1/89
f 149/1/149 150/1/150 59/1/67 55/1/15
f 150/1/150 149/1/149 56/1/18 60/1/70
f 150/1/150 151/1/151 63/1/84 59/1/67
f 151/1/151 150/1/150 60/1/70 64/1/85
f 151/1/151 152/1/152 37/1/28 63/1/84
f 152/1/152 151/1/151 64/1/85 38/1/29
f 152/1/152 153/1/153 33/1/35 37/1/28
f 153/1/153 152/1/152 38/1/29 34/1/36
f 153/1/153 154/1/154 29/1/79 33/1/35
f 154/1/154 153/1/153 34/1/36 30/1/80
f 154/1/154 155/1/155 25/1/40 29/1/79
f 155/1/155 154/1/154 30/1/80 26/1/41
f 155/1/155 156/1/156 21/1/8 25/1/40
f 156/1/156 155/1/155 26/1/41 22/1/9
f 156/1/156 157/1/157 3/1/3 21/1/8
f 157/1/157 156/1/156 22/1/9 4/1/6
f 157/1/157 158/1/158 7/1/119 3/1/3
f 158/1/158 157/1/157 4/1/6 8/1/120
f 158/1/158 159/1/159 47/1/60 7/1/119
f 159/1/159 158/1/158 8/1/120 48/1/61
f 159/1/159 160/1/160 51/1/20 47/1/60
f 160/1/160 159/1/159 48/1/61 52/1/21
f 160/1/160 149/1/149 55/1/15 51/1/20
f 149/1/149 160/1/160 52/1/21 56/1/18
f 161/1/161 162/1/162 47/1/60 45/1/63
f 162/1/162 161/1/161 46/1/64 48/1/61
f 162/1/162 163/1/163 7/1/119 47/1/60
f 163/1/163 162/1/162 48/1/61 8/1/120
f 163/1/163 164/1/164 1/1/108 7/1/119
f 164/1/164 163/1/163 8/1/120 2/1/109
f 164/1/164 161/1/161 45/1/63 1/1/108
f 161/1/161 164/1/164 2/1/109 46/1/64
f 165/1/165 166/1/166 15/1/47 9/1/52
f 166/1/166 165/1/165 10/1/53 16/1/50
f 166/1/166 167/1/167 43/1/83 15/1/47
f 167/1/167 166/1/166 16/1/50 44/1/86
f 167/1/167 168/1/168 41/1/133 43/1/83
f 168/1/168 167/1/167 44/1/86 42/1/134
f 168/1/168 165/1/165 9/1/52 41/1/133
f 165/1/165 168/1/168 42/1/134 10/1/53
o 17662005453
v -0.289915 -0.152645 -0.102359
v -0.289918 -0.154279 -0.103512
v -0.289915 -0.152645 0.102359
v -0.289918 -0.154279 0.103512
v -0.306805 -0.135425 -0.102359
v -0.308438 -0.135412 -0.103514
v -0.306805 -0.135425 0.102359
v -0.308438 -0.135412 0.103514
v -0.244181 -0.191123 -0.102359
v -0.244209 -0.192755 -0.103515
v -0.244181 -0.191123 0.102359
v -0.244209 -0.192755 0.103515
v -0.261069 -0.173904 -0.102359
v -0.262704 -0.173865 -0.103511
v -0.261069 -0.173904 0.102359
v -0.262704 -0.173865 0.103511
v -0.185197 -0.237748 -0.102359
v -0.185178 -0.239384 -0.103509
v -0.185197 -0.237748 0.102359
v -0.185178 -0.239384 0.103509
v -0.202087 -0.220528 -0.102359
v -0.203717 -0.220542 -0.103518
v -0.202087 -0.220528 0.102359
v -0.203717 -0.220542 0.103518
v -0.023606 0.294470 -0.102359
v -0.024716 0.295660 -0.103521
v -0.023606 0.294470 0.102359
v -0.024716 0.295660 0.103521
v 0.000512 0.294470 -0.102359
v 0.001710 0.295587 -0.103507
v 0.000512 0.294470 0.102359
v 0.001710 0.295587 0.103507
v 0.056750 0.293878 -0.102359
v 0.055640 0.295069 -0.103521
v 0.056750 0.293878 0.102359
v 0.055640 0.295069 0.103521
v 0.080869 0.293878 -0.102359
v 0.082067 0.294995 -0.103507
v 0.080869 0.293878 0.102359
v 0.082067 0.294995 0.103506
v -0.095711 0.293878 -0.102359
v -0.096814 0.295074 -0.103522
v -0.095711 0.293878 0.102359
v -0.096814 0.295074 0.103522
v -0.071593 0.293878 -0.102359
v -0.070389 0.294990 -0.103506
v -0.071593 0.293878 0.102359
v -0.070389 0.294990 0.103506
v -0.028865 0.219245 0.102359
v -0.030307 0.219524 0.103716
v -0.004962 0.216023 0.102359
v -0.003520 0.215746 0.103717
v -0.030532 0.134801 0.102359
v -0.029185 0.134296 0.103748
v -0.054125 0.139814 0.102359
v -0.055471 0.140323 0.103748
v -0.091734 -0.005068 0.102359
v -0.090459 -0.005764 0.103734
v -0.114587 0.002646 0.102359
v -0.115860 0.003347 0.103734
v -0.162782 -0.113580 0.102359
v -0.161664 -0.114529 0.103719
v -0.184391 -0.102866 0.102359
v -0.185501 -0.101904 0.103716
v -0.004962 0.216023 -0.102359
v -0.003520 0.215747 -0.103717
v -0.028865 0.219245 -0.102359
v -0.030307 0.219524 -0.103716
v -0.030532 0.134801 -0.102359
v -0.029185 0.134295 -0.103748
v -0.054125 0.139814 -0.102359
v -0.055471 0.140323 -0.103748
v -0.091734 -0.005068 -0.102359
v -0.090459 -0.005763 -0.103734
v -0.114587 0.002646 -0.102359
v -0.115860 0.003347 -0.103734
v -0.162782 -0.113580 -0.102359
v -0.161664 -0.114529 -0.103719
v -0.184391 -0.102866 -0.102359
v -0.185501 -0.101904 -0.103716
v 0.050694 0.208256 0.102359
v 0.049251 0.208547 0.103713
v 0.074676 0.205681 0.102359
v 0.076119 0.205394 0.103714
v 0.045798 0.117737 0.102359
v 0.047138 0.117210 0.103747
v 0.022206 0.122754 0.102359
v 0.020868 0.123286 0.103747
v -0.020955 -0.027686 0.102359
v -0.019690 -0.028392 0.103738
v -0.043731 -0.019748 0.102359
v -0.044994 -0.019037 0.103737
v -0.097699 -0.144264 0.102359
v -0.096562 -0.145169 0.103733
v -0.119005 -0.132960 0.102359
v -0.120137 -0.132048 0.103733
v 0.074676 0.205681 -0.102359
v 0.076119 0.205394 -0.103714
v 0.050694 0.208256 -0.102359
v 0.049251 0.208547 -0.103713
v 0.045798 0.117737 -0.102359
v 0.047138 0.117210 -0.103747
v 0.022206 0.122754 -0.102359
v 0.020868 0.123286 -0.103747
v -0.020955 -0.027686 -0.102359
v -0.019690 -0.028392 -0.103738
v -0.043731 -0.019748 -0.102359
v -0.044994 -0.019037 -0.103737
v -0.097699 -0.144264 -0.102359
v -0.096562 -0.145169 -0.103733
v -0.119005 -0.132960 -0.102359
v -0.120137 -0.132049 -0.103733
v -0.100971 0.228346 0.102359
v -0.102403 0.228581 0.103735
v -0.077067 0.225124 0.102359
v -0.075634 0.224891 0.103735
v -0.095570 0.150383 0.102359
v -0.094197 0.149884 0.103725
v -0.119091 0.155724 0.102359
v -0.120463 0.156227 0.103724
v -0.159183 0.017889 0.102359
v -0.157921 0.017200 0.103750
v -0.181877 0.026056 0.102359
v -0.183136 0.026750 0.103749
v -0.220890 -0.082739 0.102359
v -0.219743 -0.083653 0.103719
v -0.242315 -0.071662 0.102359
v -0.243455 -0.070736 0.103717
v -0.077067 0.225124 -0.102359
v -0.075635 0.224890 -0.103735
v -0.100971 0.228346 -0.102359
v -0.102403 0.228581 -0.103735
v -0.095570 0.150383 -0.102359
v -0.094197 0.149884 -0.103725
v -0.119091 0.155724 -0.102359
v -0.120463 0.156227 -0.103724
v -0.159183 0.017889 -0.102359
v -0.157921 0.017200 -0.103750
v -0.181877 0.026056 -0.102359
v -0.183136 0.026749 -0.103749
v -0.220890 -0.082739 -0.102359
v -0.219743 -0.083654 -0.103719
v -0.242315 -0.071662 -0.102359
v -0.243455 -0.070736 -0.103717
v -0.184394 -0.101551 -0.102038
v -0.184394 -0.101551 0.102038
v -0.115775 0.002162 0.102046
v -0.115775 0.002162 -0.102046
v -0.119535 0.156946 -0.102042
v -0.119535 0.156946 0.102042
v -0.101929 0.227493 0.102047
v -0.101929 0.227493 -0.102047
v -0.095316 0.149232 0.102042
v -0.158119 0.018446 0.102054
v -0.158119 0.018446 -0.102054
v -0.095316 0.149232 -0.102042
v -0.054495 0.141021 -0.102054
v -0.054495 0.141021 0.102054
v -0.029889 0.218432 0.102038
v -0.029889 0.218432 -0.102038
v -0.244895 -0.191225 0.101937
v -0.261186 -0.174598 0.101935
v -0.261186 -0.174598 -0.101935
v -0.244895 -0.191225 -0.101937
v -0.162947 -0.114744 0.102039
v -0.243471 -0.191249 0.101937
v -0.243471 -0.191249 -0.101937
v -0.162947 -0.114744 -0.102039
v -0.244171 -0.190535 -0.102937
v -0.260452 -0.173919 -0.102935
v -0.184178 -0.103037 -0.103038
v -0.114343 0.002515 -0.103046
v -0.053861 0.139714 -0.103054
v -0.028597 0.219195 -0.103038
v -0.023229 0.294065 -0.102940
v 0.000039 0.294029 -0.102933
v -0.005230 0.216072 -0.103038
v -0.030796 0.134900 -0.103054
v -0.091979 -0.004938 -0.103047
v -0.162996 -0.113410 -0.103039
v -0.184178 -0.103037 0.103038
v -0.260452 -0.173919 0.102935
v -0.244171 -0.190535 0.102937
v -0.162996 -0.113410 0.103039
v -0.091979 -0.004938 0.103047
v -0.030796 0.134900 0.103054
v -0.005230 0.216072 0.103038
v 0.000039 0.294029 0.102933
v -0.023229 0.294065 0.102940
v -0.028597 0.219195 0.103038
v -0.053861 0.139714 0.103054
v -0.114343 0.002515 0.103046
v -0.118832 0.155633 0.103042
v -0.181629 0.025921 0.103054
v -0.242097 -0.071827 0.103038
v -0.306210 -0.135430 0.102937
v -0.289914 -0.152036 0.102936
v -0.221109 -0.082575 0.103039
v -0.159431 0.018024 0.103054
v -0.095829 0.150474 0.103042
v -0.077341 0.225169 0.103047
v -0.072074 0.293434 0.102932
v -0.095340 0.293476 0.102941
v -0.100697 0.228302 0.103047
v 0.050961 0.208205 0.103036
v 0.022468 0.122651 0.103053
v -0.043487 -0.019882 0.103048
v -0.118786 -0.133130 0.103046
v -0.201513 -0.220523 0.102938
v -0.185204 -0.237121 0.102934
v -0.097919 -0.144095 0.103046
v -0.021200 -0.027553 0.103048
v 0.045536 0.117839 0.103053
v 0.074409 0.205732 0.103037
v 0.080395 0.293437 0.102933
v 0.057127 0.293473 0.102940
v 0.050961 0.208205 -0.103036
v 0.057127 0.293473 -0.102940
v 0.080395 0.293437 -0.102933
v 0.074409 0.205732 -0.103037
v 0.045536 0.117839 -0.103053
v -0.021200 -0.027553 -0.103048
v -0.097919 -0.144095 -0.103046
v -0.185204 -0.237121 -0.102934
v -0.201513 -0.220523 -0.102938
v -0.118786 -0.133130 -0.103046
v -0.043487 -0.019882 -0.103048
v 0.022468 0.122651 -0.103053
v -0.289914 -0.152036 -0.102936
v -0.306210 -0.135430 -0.102937
v -0.242097 -0.071827 -0.103038
v -0.181629 0.025921 -0.103054
v -0.118832 0.155633 -0.103042
v -0.100697 0.228302 -0.103047
v -0.095340 0.293476 -0.102941
v -0.072074 0.293434 -0.102932
v -0.077341 0.225168 -0.103047
v -0.095829 0.150474 -0.103042
v -0.159431 0.018024 -0.103054
v -0.221109 -0.082575 -0.103039
v -0.159075 0.016692 0.102054
v -0.219794 -0.082344 0.102039
v -0.219794 -0.082344 -0.102039
v -0.159075 0.016692 -0.102054
v -0.091644 -0.006252 0.102047
v -0.161675 -0.113218 0.102039
v -0.161675 -0.113218 -0.102039
v -0.091644 -0.006252 -0.102047
v 0.081398 0.293439 0.101933
v 0.075467 0.206535 0.102037
v 0.075467 0.206535 -0.102037
v 0.081398 0.293439 -0.101933
v -0.071070 0.293437 0.101932
v -0.076271 0.226004 0.102047
v -0.076271 0.226004 -0.102047
v -0.071070 0.293437 -0.101932
v -0.030259 0.133632 0.102054
v -0.090696 -0.004500 0.102047
v -0.090696 -0.004500 -0.102047
v -0.030259 0.133632 -0.102054
v -0.242359 -0.070349 -0.102038
v -0.242359 -0.070349 0.102038
v -0.183033 0.025552 0.102054
v -0.183033 0.025552 -0.102054
v -0.097814 -0.145446 0.102046
v -0.184504 -0.237836 0.101934
v -0.184504 -0.237836 -0.101934
v -0.097814 -0.145446 -0.102046
v 0.057195 0.294473 0.101940
v 0.080468 0.294437 0.101933
v 0.080468 0.294437 -0.101933
v 0.057195 0.294473 -0.101940
v -0.004541 0.214931 0.102038
v -0.029558 0.135502 0.102054
v -0.029558 0.135502 -0.102054
v -0.004541 0.214931 -0.102038
v -0.101607 0.229461 0.102047
v -0.096343 0.293479 0.101941
v -0.096343 0.293479 -0.101941
v -0.101607 0.229461 -0.102047
v 0.001041 0.294031 0.101933
v -0.004171 0.216882 0.102038
v -0.004171 0.216882 -0.102038
v 0.001041 0.294031 -0.101933
v -0.306910 -0.134716 -0.101937
v -0.306910 -0.134716 0.101937
v -0.243596 -0.071902 0.102038
v -0.243596 -0.071902 -0.102038
v -0.120213 0.155075 -0.102042
v -0.182071 0.027303 -0.102054
v -0.182071 0.027303 0.102054
v -0.120213 0.155075 0.102042
v -0.020872 -0.028874 0.102048
v -0.096581 -0.143881 0.102046
v -0.096581 -0.143881 -0.102046
v -0.020872 -0.028874 -0.102048
v -0.095263 0.294476 0.101941
v -0.071991 0.294434 0.101932
v -0.071991 0.294434 -0.101932
v -0.095263 0.294476 -0.101941
v -0.261153 -0.173205 -0.101935
v -0.261153 -0.173205 0.101935
v -0.185680 -0.103065 0.102038
v -0.185680 -0.103065 -0.102038
v -0.023161 0.295065 0.101940
v 0.000111 0.295029 0.101933
v 0.000111 0.295029 -0.101933
v -0.023161 0.295065 -0.101940
v 0.021117 0.122112 -0.102053
v -0.043942 -0.018485 -0.102048
v -0.043942 -0.018485 0.102048
v 0.021117 0.122112 0.102053
v -0.290617 -0.152748 0.101936
v -0.306921 -0.136133 0.101937
v -0.306921 -0.136133 -0.101937
v -0.290617 -0.152748 -0.101935
v -0.055201 0.139153 -0.102054
v -0.114820 0.003911 -0.102046
v -0.114820 0.003911 0.102046
v -0.055201 0.139153 0.102054
v -0.029516 0.220382 0.102038
v -0.024231 0.294068 0.101940
v -0.024231 0.294068 -0.101940
v -0.029516 0.220382 -0.102038
v 0.021853 0.123969 -0.102053
v 0.021853 0.123969 0.102053
v 0.049656 0.207453 0.102036
v 0.049656 0.207453 -0.102036
v -0.185888 -0.237852 0.101934
v -0.202202 -0.221249 0.101938
v -0.202202 -0.221249 -0.101938
v -0.185888 -0.237852 -0.101934
v 0.046051 0.116565 0.102053
v -0.019905 -0.027130 0.102048
v -0.019905 -0.027130 -0.102048
v 0.046051 0.116565 -0.102053
v 0.075085 0.204588 0.102037
v 0.046780 0.118424 0.102053
v 0.046780 0.118423 -0.102053
v 0.075085 0.204588 -0.102037
v 0.050043 0.209399 0.102036
v 0.056125 0.293476 0.101940
v 0.056125 0.293476 -0.101940
v 0.050043 0.209399 -0.102036
v -0.221019 -0.083908 0.102039
v -0.289214 -0.152751 0.101936
v -0.289214 -0.152751 -0.101935
v -0.221019 -0.083908 -0.102039
v -0.076591 0.224037 0.102047
v -0.094643 0.151104 0.102042
v -0.094643 0.151104 -0.102042
v -0.076591 0.224036 -0.102047
v -0.119017 -0.131672 -0.102046
v -0.119017 -0.131671 0.102046
v -0.044916 -0.020225 0.102048
v -0.044916 -0.020225 -0.102048
v -0.202214 -0.219809 -0.101938
v -0.202214 -0.219809 0.101938
v -0.120259 -0.133230 0.102046
v -0.120259 -0.133230 -0.102046
vn 0.0752 0.6714 0.7373
vn 0.0774 0.6713 -0.7371
vn 0.6895 -0.5863 -0.4252
vn 0.6949 -0.5823 0.4220
vn -0.4864 0.4137 -0.7696
vn -0.4780 0.4176 0.7728
vn -0.6012 -0.3219 -0.7314
vn 0.8054 -0.4432 -0.3936
vn -0.5627 0.3043 0.7686
vn -0.6012 -0.3219 0.7314
vn 0.8081 -0.4394 0.3924
vn -0.5581 0.3050 -0.7717
vn -0.1628 0.6622 0.7314
vn -0.1621 0.6624 -0.7314
vn 0.8628 -0.3132 -0.3968
vn 0.8646 -0.3138 0.3923
vn -0.5952 0.2127 -0.7749
vn -0.5956 0.2188 0.7729
vn -0.4628 -0.5044 -0.7289
vn 0.8989 -0.1484 -0.4123
vn -0.6320 0.1040 0.7679
vn -0.4628 -0.5044 0.7289
vn 0.8990 -0.1480 0.4121
vn -0.6317 0.1040 -0.7682
vn 0.0760 -0.6953 -0.7147
vn 0.5805 0.3741 -0.7232
vn -0.8065 0.4403 -0.3946
vn -0.8626 0.3083 -0.4011
vn 0.6465 -0.2357 0.7255
vn 0.5932 -0.3224 0.7377
vn 0.5804 0.3741 0.7233
vn -0.8072 0.4392 0.3943
vn 0.5921 -0.3227 -0.7385
vn 0.0771 -0.6909 0.7188
vn -0.8631 0.3082 0.4000
vn 0.6478 -0.2358 -0.7244
vn -0.1394 0.6705 0.7287
vn -0.1394 0.6705 -0.7287
vn 0.8605 -0.3253 -0.3922
vn 0.8605 -0.3253 0.3922
vn -0.6048 0.2286 -0.7629
vn -0.6048 0.2286 0.7629
vn -0.4843 -0.4823 -0.7300
vn 0.8929 -0.1736 -0.4154
vn -0.6210 0.1167 0.7751
vn -0.4842 -0.4823 0.7300
vn 0.8939 -0.1705 0.4145
vn -0.6181 0.1181 -0.7772
vn -0.7723 0.1187 -0.6241
vn 0.0998 -0.7761 -0.6227
vn 0.8161 -0.0148 -0.5777
vn 0.0182 0.8210 -0.5707
vn -0.0222 -0.8197 0.5724
vn -0.8238 0.0116 0.5667
vn 0.0998 -0.7761 0.6227
vn 0.8161 -0.0148 0.5777
vn -0.8238 0.0116 -0.5667
vn -0.7723 0.1187 0.6241
vn 0.0182 0.8210 0.5707
vn -0.0222 -0.8197 -0.5724
vn -0.2244 -0.6735 -0.7043
vn 0.7652 0.0561 -0.6413
vn -0.6995 0.5768 -0.4220
vn 0.5245 -0.4511 0.7221
vn 0.7652 0.0561 0.6413
vn -0.2182 -0.6634 0.7158
vn -0.7009 0.5771 0.4191
vn 0.5278 -0.4525 -0.7188
vn -0.0143 0.8684 -0.4957
vn 0.8652 -0.0498 -0.4990
vn 0.7163 -0.6036 -0.3500
vn 0.8118 -0.4431 -0.3804
vn 0.8635 -0.3265 -0.3845
vn 0.9184 -0.1782 -0.3534
vn 0.6138 -0.6173 -0.4921
vn 0.5612 -0.6078 0.5618
vn -0.5498 0.6018 -0.5793
vn -0.6520 -0.5684 -0.5018
vn -0.5901 -0.5569 0.5845
vn 0.6000 0.5700 -0.5614
vn -0.9043 0.1746 -0.3896
vn -0.8899 0.1680 0.4241
vn 0.6805 -0.1281 -0.7215
vn -0.8573 0.3216 -0.4020
vn -0.8602 0.3224 0.3952
vn 0.6324 -0.2373 -0.7374
vn -0.8030 0.4345 -0.4079
vn -0.8057 0.4388 0.3979
vn 0.5990 -0.3246 -0.7320
vn -0.7079 0.5868 -0.3931
vn 0.7163 -0.6036 0.3500
vn 0.8652 -0.0498 0.4990
vn -0.0143 0.8684 0.4957
vn -0.7079 0.5868 0.3931
vn -0.8030 0.4345 0.4079
vn -0.8077 0.4352 -0.3979
vn 0.5990 -0.3246 0.7320
vn -0.8573 0.3216 0.4020
vn -0.8603 0.3225 -0.3949
vn 0.6324 -0.2371 0.7375
vn -0.9043 0.1746 0.3895
vn -0.8906 0.1674 -0.4229
vn 0.6787 -0.1261 0.7235
vn -0.6519 -0.5682 0.5022
vn -0.5901 -0.5569 -0.5845
vn 0.6000 0.5700 0.5614
vn 0.6138 -0.6173 0.4921
vn 0.5612 -0.6078 -0.5618
vn -0.5498 0.6018 0.5793
vn 0.9184 -0.1782 0.3534
vn 0.8635 -0.3265 0.3845
vn 0.8118 -0.4431 0.3804
vn 0.8705 -0.3154 0.3778
vn 0.8089 -0.4444 0.3850
vn 0.8066 -0.4424 -0.3920
vn -0.5666 0.3113 0.7629
vn 0.7348 -0.5808 0.3504
vn 0.7148 -0.5607 -0.4180
vn -0.4874 0.3886 0.7820
vn 0.8672 -0.0352 0.4968
vn 0.8201 -0.0020 -0.5723
vn -0.8210 -0.0018 0.5710
vn -0.0277 0.8667 0.4981
vn 0.0056 0.8178 -0.5755
vn -0.0096 -0.8226 0.5685
vn -0.7262 0.5657 0.3907
vn -0.7171 0.5556 -0.4207
vn 0.5380 -0.4249 0.7280
vn -0.8043 0.4381 0.4014
vn -0.8576 0.3085 0.4114
vn -0.9120 0.1501 0.3817
vn -0.8960 0.1455 -0.4196
vn 0.6739 -0.1073 0.7310
vn -0.6557 -0.5644 0.5016
vn -0.5910 -0.5535 -0.5869
vn 0.6025 0.5680 0.5606
vn 0.6120 -0.6207 0.4900
vn 0.5585 -0.6114 -0.5606
vn -0.5451 0.6042 0.5812
vn 0.9206 -0.1525 0.3596
vn 0.9173 -0.1850 0.3525
vn 0.8583 -0.3404 0.3839
vn 0.8553 -0.3385 -0.3923
vn 0.8927 -0.1785 -0.4138
vn -0.6182 0.1200 0.7768
vn -0.5998 0.2378 0.7640
vn 0.8071 -0.4514 0.3804
vn 0.8030 -0.4474 -0.3938
vn -0.5565 0.3115 0.7702
vn 0.7320 -0.5807 0.3563
vn 0.7139 -0.5644 -0.4145
vn -0.4966 0.3960 0.7724
vn 0.8696 -0.0223 0.4933
vn 0.8232 0.0113 -0.5676
vn -0.8175 -0.0156 0.5756
vn -0.0404 0.8656 0.4992
vn -0.0044 0.8142 -0.5805
vn 0.0013 -0.8248 0.5654
vn -0.7268 0.5701 0.3831
vn -0.7150 0.5598 -0.4188
vn 0.5330 -0.4223 0.7332
vn -0.7996 0.4434 0.4051
vn -0.8032 0.4436 -0.3976
vn 0.5937 -0.3294 0.7342
vn -0.8522 0.3345 0.4024
vn -0.8553 0.3350 -0.3952
vn 0.6291 -0.2467 0.7371
vn -0.9023 0.1803 0.3916
vn -0.8893 0.1729 -0.4234
vn 0.6794 -0.1308 0.7220
vn -0.6518 -0.5682 0.5023
vn -0.5903 -0.5567 -0.5845
vn 0.6003 0.5701 0.5609
vn 0.6134 -0.6177 0.4922
vn 0.5613 -0.6079 -0.5616
vn -0.5496 0.6020 0.5792
vn 0.9173 -0.1850 -0.3525
vn 0.6134 -0.6178 -0.4921
vn 0.5613 -0.6079 0.5616
vn 0.8927 -0.1785 0.4138
vn -0.6172 0.1249 -0.7768
vn -0.5496 0.6019 -0.5793
vn -0.6519 -0.5682 -0.5023
vn -0.5903 -0.5567 0.5845
vn 0.6003 0.5700 -0.5610
vn -0.9023 0.1803 -0.3915
vn -0.8885 0.1736 0.4247
vn 0.6814 -0.1332 -0.7197
vn -0.8522 0.3345 -0.4024
vn -0.8550 0.3351 0.3958
vn 0.6295 -0.2476 -0.7365
vn -0.7996 0.4434 -0.4051
vn -0.8015 0.4467 0.3976
vn 0.5937 -0.3294 -0.7342
vn -0.7268 0.5701 -0.3831
vn -0.7112 0.5647 0.4188
vn 0.5330 -0.4223 -0.7332
vn -0.0404 0.8656 -0.4992
vn -0.0044 0.8142 0.5805
vn 0.0013 -0.8248 -0.5654
vn 0.8696 -0.0223 -0.4933
vn 0.8232 0.0113 0.5676
vn -0.8175 -0.0156 -0.5757
vn 0.7320 -0.5807 -0.3563
vn 0.7118 -0.5651 0.4171
vn -0.4983 0.4027 -0.7678
vn 0.8071 -0.4514 -0.3804
vn 0.8019 -0.4480 0.3953
vn -0.5580 0.3149 -0.7678
vn 0.8583 -0.3402 -0.3842
vn 0.8550 -0.3388 0.3928
vn -0.6004 0.2389 -0.7632
vn -0.0277 0.8667 -0.4981
vn 0.8673 -0.0355 -0.4966
vn 0.8201 -0.0019 0.5722
vn 0.0057 0.8178 0.5755
vn -0.0096 -0.8227 -0.5684
vn -0.8209 -0.0018 -0.5710
vn 0.7348 -0.5808 -0.3504
vn 0.7109 -0.5618 0.4232
vn -0.4908 0.4016 -0.7732
vn 0.8089 -0.4444 -0.3850
vn 0.8060 -0.4435 0.3920
vn -0.5667 0.3115 -0.7628
vn 0.8705 -0.3154 -0.3778
vn 0.9206 -0.1525 -0.3596
vn 0.6120 -0.6207 -0.4900
vn 0.5585 -0.6114 0.5606
vn -0.5451 0.6042 -0.5812
vn -0.6557 -0.5643 -0.5016
vn -0.5910 -0.5535 0.5869
vn 0.6025 0.5680 -0.5607
vn -0.9120 0.1501 -0.3818
vn -0.8959 0.1451 0.4199
vn 0.6740 -0.1077 -0.7308
vn -0.8576 0.3085 -0.4114
vn -0.8043 0.4381 -0.4014
vn -0.7262 0.5657 -0.3907
vn -0.7136 0.5566 0.4254
vn 0.5405 -0.4356 -0.7198
vn -0.0013 -0.6915 -0.7223
vn 0.6219 0.3067 -0.7205
vn 0.6219 0.3067 0.7205
vn -0.0008 -0.6903 0.7236
vn -0.0213 -0.6957 -0.7180
vn 0.6291 0.2892 -0.7215
vn 0.6290 0.2892 0.7216
vn -0.0196 -0.6915 0.7221
vn 0.4505 -0.6264 -0.6361
vn 0.3789 0.5965 -0.7076
vn 0.3788 0.5965 0.7076
vn 0.4506 -0.6264 0.6361
vn 0.4474 -0.6305 -0.6343
vn 0.3785 0.5933 -0.7105
vn 0.3780 0.5929 0.7110
vn 0.4472 -0.6305 0.6344
vn 0.0969 -0.6852 -0.7219
vn 0.5725 0.3915 -0.7204
vn 0.5725 0.3915 0.7204
vn 0.0963 -0.6848 0.7223
vn 0.0524 0.6749 0.7360
vn 0.0544 0.6749 -0.7359
vn -0.5995 -0.3296 -0.7293
vn -0.5996 -0.3297 0.7292
vn -0.1864 -0.6806 -0.7086
vn 0.7651 0.0960 -0.6367
vn 0.7651 0.0960 0.6367
vn -0.1834 -0.6750 0.7146
vn 0.6270 0.4629 -0.6266
vn -0.6215 0.4766 -0.6217
vn -0.6215 0.4767 0.6217
vn 0.6270 0.4629 0.6266
vn 0.1764 -0.6779 -0.7137
vn 0.5216 0.4535 -0.7227
vn 0.5211 0.4535 0.7231
vn 0.1767 -0.6750 0.7163
vn -0.2414 0.6482 -0.7222
vn -0.5294 -0.5514 -0.6448
vn -0.5294 -0.5514 0.6448
vn -0.2413 0.6474 0.7230
vn 0.4510 -0.6263 -0.6359
vn 0.3777 0.5966 -0.7081
vn 0.3778 0.5966 0.7081
vn 0.4508 -0.6263 0.6361
vn 0.0787 0.7635 0.6410
vn 0.0787 0.7635 -0.6410
vn -0.6394 -0.2488 -0.7275
vn -0.6394 -0.2488 0.7275
vn -0.5547 -0.4067 0.7259
vn -0.0438 0.6830 0.7291
vn -0.0438 0.6829 -0.7292
vn -0.5517 -0.4026 -0.7304
vn -0.0214 -0.6952 -0.7185
vn 0.6288 0.2895 -0.7217
vn 0.6288 0.2895 0.7217
vn -0.0200 -0.6918 0.7218
vn 0.6271 0.4620 -0.6271
vn -0.6215 0.4772 -0.6213
vn -0.6215 0.4772 0.6213
vn 0.6272 0.4621 0.6270
vn 0.1017 0.7627 0.6387
vn 0.1018 0.7626 -0.6388
vn -0.6467 -0.2300 -0.7273
vn -0.6466 -0.2300 0.7273
vn 0.6268 0.4632 -0.6266
vn -0.6218 0.4763 -0.6217
vn -0.6218 0.4763 0.6217
vn 0.6268 0.4632 0.6266
vn -0.5575 -0.4002 0.7273
vn -0.0476 0.6819 0.7299
vn -0.0476 0.6819 -0.7299
vn -0.5566 -0.3992 -0.7286
vn -0.7735 0.1156 -0.6231
vn 0.1025 -0.7749 -0.6238
vn 0.1025 -0.7748 0.6238
vn -0.7735 0.1156 0.6232
vn -0.5501 -0.4093 0.7279
vn -0.0566 0.6806 0.7305
vn -0.0566 0.6806 -0.7305
vn -0.5500 -0.4093 -0.7280
vn -0.2318 0.6531 -0.7209
vn -0.5231 -0.5574 -0.6448
vn -0.5227 -0.5573 0.6451
vn -0.2312 0.6497 0.7242
vn -0.1286 0.6717 0.7296
vn -0.1283 0.6716 -0.7297
vn -0.4886 -0.4774 -0.7303
vn -0.4886 -0.4774 0.7303
vn -0.7745 0.1129 -0.6224
vn 0.1052 -0.7735 -0.6250
vn 0.1052 -0.7735 0.6250
vn -0.7745 0.1129 0.6224
vn 0.0843 -0.6876 -0.7212
vn 0.5785 0.3816 -0.7209
vn 0.5785 0.3816 0.7209
vn 0.0844 -0.6864 0.7223
vn 0.1685 -0.6805 -0.7131
vn 0.5265 0.4471 -0.7231
vn 0.5264 0.4470 0.7233
vn 0.1688 -0.6774 0.7160
vn -0.2285 0.6544 -0.7208
vn -0.5230 -0.5570 -0.6452
vn -0.5230 -0.5570 0.6452
vn -0.2278 0.6506 0.7244
vn -0.2045 -0.6802 -0.7039
vn 0.7650 0.0779 -0.6393
vn 0.7650 0.0778 0.6393
vn -0.1990 -0.6704 0.7148
vn 0.2128 -0.6610 -0.7196
vn 0.4991 0.4835 -0.7191
vn 0.4991 0.4835 0.7191
vn 0.2124 -0.6605 0.7201
vn 0.0619 0.6782 0.7323
vn 0.0629 0.6781 -0.7323
vn -0.6055 -0.3165 -0.7302
vn -0.6055 -0.3164 0.7302
vn 0.0541 0.7650 0.6418
vn 0.0541 0.7649 -0.6418
vn -0.6394 -0.2558 -0.7251
vn -0.6394 -0.2558 0.7251
vt 0.000000 0.000000
s 1
f 313/2/169 314/2/170 231/2/171 247/2/172
f 314/2/170 313/2/169 248/2/173 232/2/174
f 314/2/170 315/2/175 227/2/176 231/2/171
f 315/2/175 314/2/170 232/2/174 228/2/177
f 315/2/175 316/2/178 243/2/179 227/2/176
f 316/2/178 315/2/175 228/2/177 244/2/180
f 316/2/178 313/2/169 247/2/172 243/2/179
f 313/2/169 316/2/178 244/2/180 248/2/173
f 317/2/181 318/2/182 287/2/183 303/2/184
f 318/2/182 317/2/181 304/2/185 288/2/186
f 318/2/182 319/2/187 281/2/188 287/2/183
f 319/2/187 318/2/182 288/2/186 282/2/189
f 319/2/187 320/2/190 299/2/191 281/2/188
f 320/2/190 319/2/187 282/2/189 300/2/192
f 320/2/190 317/2/181 303/2/184 299/2/191
f 317/2/181 320/2/190 300/2/192 304/2/185
f 321/2/193 322/2/194 289/2/195 285/2/196
f 322/2/194 321/2/193 286/2/197 290/2/198
f 322/2/194 323/2/199 305/2/200 289/2/195
f 323/2/199 322/2/194 290/2/198 306/2/201
f 323/2/199 324/2/202 301/2/203 305/2/200
f 324/2/202 323/2/199 306/2/201 302/2/204
f 324/2/202 321/2/193 285/2/196 301/2/203
f 321/2/193 324/2/202 302/2/204 286/2/197
f 325/2/205 326/2/206 223/2/207 239/2/208
f 326/2/206 325/2/205 240/2/209 224/2/210
f 326/2/206 327/2/211 217/2/212 223/2/207
f 327/2/211 326/2/206 224/2/210 218/2/213
f 327/2/211 328/2/214 235/2/215 217/2/212
f 328/2/214 327/2/211 218/2/213 236/2/216
f 328/2/214 325/2/205 239/2/208 235/2/215
f 325/2/205 328/2/214 236/2/216 240/2/209
f 329/2/217 330/2/218 183/2/219 179/2/220
f 330/2/218 329/2/217 180/2/221 184/2/222
f 330/2/218 331/2/223 181/2/224 183/2/219
f 331/2/223 330/2/218 184/2/222 182/2/225
f 331/2/223 332/2/226 177/2/227 181/2/224
f 332/2/226 331/2/223 182/2/225 178/2/228
f 332/2/226 329/2/217 179/2/220 177/2/227
f 329/2/217 332/2/226 178/2/228 180/2/221
f 333/2/229 334/2/230 179/2/220 229/2/231
f 334/2/230 333/2/229 230/2/232 180/2/221
f 334/2/230 335/2/233 177/2/227 179/2/220
f 335/2/233 334/2/230 180/2/221 178/2/228
f 335/2/233 336/2/234 245/2/235 177/2/227
f 336/2/234 335/2/233 178/2/228 246/2/236
f 336/2/234 333/2/229 229/2/231 245/2/235
f 333/2/229 336/2/234 246/2/236 230/2/232
f 337/2/237 338/2/238 181/2/224 177/2/227
f 338/2/238 337/2/237 178/2/228 182/2/225
f 338/2/238 339/2/239 247/2/172 181/2/224
f 339/2/239 338/2/238 182/2/225 248/2/173
f 339/2/239 340/2/240 243/2/179 247/2/172
f 340/2/240 339/2/239 248/2/173 244/2/180
f 340/2/240 341/2/241 239/2/208 243/2/179
f 341/2/241 340/2/240 244/2/180 240/2/209
f 341/2/241 342/2/242 235/2/215 239/2/208
f 342/2/242 341/2/241 240/2/209 236/2/216
f 342/2/242 343/2/243 193/2/244 235/2/215
f 343/2/243 342/2/242 236/2/216 194/2/245
f 343/2/243 344/2/246 197/2/247 193/2/244
f 344/2/246 343/2/243 194/2/245 198/2/248
f 344/2/246 345/2/249 233/2/250 197/2/247
f 345/2/249 344/2/246 198/2/248 234/2/251
f 345/2/249 346/2/252 237/2/253 233/2/250
f 346/2/252 345/2/249 234/2/251 238/2/254
f 346/2/252 347/2/255 241/2/256 237/2/253
f 347/2/255 346/2/252 238/2/254 242/2/257
f 347/2/255 348/2/258 245/2/235 241/2/256
f 348/2/258 347/2/255 242/2/257 246/2/236
f 348/2/258 337/2/237 177/2/227 245/2/235
f 337/2/237 348/2/258 246/2/236 178/2/228
f 349/2/259 350/2/260 183/2/219 231/2/171
f 350/2/260 349/2/259 232/2/174 184/2/222
f 350/2/260 351/2/261 179/2/220 183/2/219
f 351/2/261 350/2/260 184/2/222 180/2/221
f 351/2/261 352/2/262 229/2/231 179/2/220
f 352/2/262 351/2/261 180/2/221 230/2/232
f 352/2/262 353/2/263 225/2/264 229/2/231
f 353/2/263 352/2/262 230/2/232 226/2/265
f 353/2/263 354/2/266 221/2/267 225/2/264
f 354/2/266 353/2/263 226/2/265 222/2/268
f 354/2/266 355/2/269 219/2/270 221/2/267
f 355/2/269 354/2/266 222/2/268 220/2/271
f 355/2/269 356/2/272 199/2/273 219/2/270
f 356/2/272 355/2/269 220/2/271 200/2/274
f 356/2/272 357/2/275 195/2/276 199/2/273
f 357/2/275 356/2/272 200/2/274 196/2/277
f 357/2/275 358/2/278 217/2/212 195/2/276
f 358/2/278 357/2/275 196/2/277 218/2/213
f 358/2/278 359/2/279 223/2/207 217/2/212
f 359/2/279 358/2/278 218/2/213 224/2/210
f 359/2/279 360/2/280 227/2/176 223/2/207
f 360/2/280 359/2/279 224/2/210 228/2/177
f 360/2/280 349/2/259 231/2/171 227/2/176
f 349/2/259 360/2/280 228/2/177 232/2/174
f 361/2/281 362/2/282 291/2/283 287/2/183
f 362/2/282 361/2/281 288/2/186 292/2/284
f 362/2/282 363/2/285 295/2/286 291/2/283
f 363/2/285 362/2/282 292/2/284 296/2/287
f 363/2/285 364/2/288 175/2/289 295/2/286
f 364/2/288 363/2/285 296/2/287 176/2/290
f 364/2/288 365/2/291 171/2/292 175/2/289
f 365/2/291 364/2/288 176/2/290 172/2/293
f 365/2/291 366/2/294 293/2/295 171/2/292
f 366/2/294 365/2/291 172/2/293 294/2/296
f 366/2/294 367/2/297 289/2/195 293/2/295
f 367/2/297 366/2/294 294/2/296 290/2/198
f 367/2/297 368/2/298 285/2/196 289/2/195
f 368/2/298 367/2/297 290/2/198 286/2/197
f 368/2/298 369/2/299 283/2/300 285/2/196
f 369/2/299 368/2/298 286/2/197 284/2/301
f 369/2/299 370/2/302 215/2/303 283/2/300
f 370/2/302 369/2/299 284/2/301 216/2/304
f 370/2/302 371/2/305 211/2/306 215/2/303
f 371/2/305 370/2/302 216/2/304 212/2/307
f 371/2/305 372/2/308 281/2/188 211/2/306
f 372/2/308 371/2/305 212/2/307 282/2/189
f 372/2/308 361/2/281 287/2/183 281/2/188
f 361/2/281 372/2/308 282/2/189 288/2/186
f 373/2/309 374/2/310 255/2/311 249/2/312
f 374/2/310 373/2/309 250/2/313 256/2/314
f 374/2/310 375/2/315 259/2/316 255/2/311
f 375/2/315 374/2/310 256/2/314 260/2/317
f 375/2/315 376/2/318 263/2/319 259/2/316
f 376/2/318 375/2/315 260/2/317 264/2/320
f 376/2/318 377/2/321 191/2/322 263/2/319
f 377/2/321 376/2/318 264/2/320 192/2/323
f 377/2/321 378/2/324 187/2/325 191/2/322
f 378/2/324 377/2/321 192/2/323 188/2/326
f 378/2/324 379/2/327 261/2/328 187/2/325
f 379/2/327 378/2/324 188/2/326 262/2/329
f 379/2/327 380/2/330 257/2/331 261/2/328
f 380/2/330 379/2/327 262/2/329 258/2/332
f 380/2/330 381/2/333 253/2/334 257/2/331
f 381/2/333 380/2/330 258/2/332 254/2/335
f 381/2/333 382/2/336 251/2/337 253/2/334
f 382/2/336 381/2/333 254/2/335 252/2/338
f 382/2/336 383/2/339 207/2/340 251/2/337
f 383/2/339 382/2/336 252/2/338 208/2/341
f 383/2/339 384/2/342 203/2/343 207/2/340
f 384/2/342 383/2/339 208/2/341 204/2/344
f 384/2/342 373/2/309 249/2/312 203/2/343
f 373/2/309 384/2/342 204/2/344 250/2/313
f 385/2/345 386/2/346 201/2/347 267/2/348
f 386/2/346 385/2/345 268/2/349 202/2/350
f 386/2/346 387/2/351 205/2/352 201/2/347
f 387/2/351 386/2/346 202/2/350 206/2/353
f 387/2/351 388/2/354 265/2/355 205/2/352
f 388/2/354 387/2/351 206/2/353 266/2/356
f 388/2/354 389/2/357 269/2/358 265/2/355
f 389/2/357 388/2/354 266/2/356 270/2/359
f 389/2/357 390/2/360 273/2/361 269/2/358
f 390/2/360 389/2/357 270/2/359 274/2/362
f 390/2/360 391/2/363 277/2/364 273/2/361
f 391/2/363 390/2/360 274/2/362 278/2/365
f 391/2/363 392/2/366 185/2/367 277/2/364
f 392/2/366 391/2/363 278/2/365 186/2/368
f 392/2/366 393/2/369 189/2/370 185/2/367
f 393/2/369 392/2/366 186/2/368 190/2/371
f 393/2/369 394/2/372 279/2/373 189/2/370
f 394/2/372 393/2/369 190/2/371 280/2/374
f 394/2/372 395/2/375 275/2/376 279/2/373
f 395/2/375 394/2/372 280/2/374 276/2/377
f 395/2/375 396/2/378 271/2/379 275/2/376
f 396/2/378 395/2/375 276/2/377 272/2/380
f 396/2/378 385/2/345 267/2/348 271/2/379
f 385/2/345 396/2/378 272/2/380 268/2/349
f 397/2/381 398/2/382 173/2/383 169/2/384
f 398/2/382 397/2/381 170/2/385 174/2/386
f 398/2/382 399/2/387 311/2/388 173/2/383
f 399/2/387 398/2/382 174/2/386 312/2/389
f 399/2/387 400/2/390 307/2/391 311/2/388
f 400/2/390 399/2/387 312/2/389 308/2/392
f 400/2/390 401/2/393 303/2/184 307/2/391
f 401/2/393 400/2/390 308/2/392 304/2/185
f 401/2/393 402/2/394 299/2/191 303/2/184
f 402/2/394 401/2/393 304/2/185 300/2/192
f 402/2/394 403/2/395 209/2/396 299/2/191
f 403/2/395 402/2/394 300/2/192 210/2/397
f 403/2/395 404/2/398 213/2/399 209/2/396
f 404/2/398 403/2/395 210/2/397 214/2/400
f 404/2/398 405/2/401 297/2/402 213/2/399
f 405/2/401 404/2/398 214/2/400 298/2/403
f 405/2/401 406/2/404 301/2/203 297/2/402
f 406/2/404 405/2/401 298/2/403 302/2/204
f 406/2/404 407/2/405 305/2/200 301/2/203
f 407/2/405 406/2/404 302/2/204 306/2/201
f 407/2/405 408/2/406 309/2/407 305/2/200
f 408/2/406 407/2/405 306/2/201 310/2/408
f 408/2/406 397/2/381 169/2/384 309/2/407
f 397/2/381 408/2/406 310/2/408 170/2/385
f 409/2/409 410/2/410 293/2/295 289/2/195
f 410/2/410 409/2/409 290/2/198 294/2/296
f 410/2/410 411/2/411 309/2/407 293/2/295
f 411/2/411 410/2/410 294/2/296 310/2/408
f 411/2/411 412/2/412 305/2/200 309/2/407
f 412/2/412 411/2/411 310/2/408 306/2/201
f 412/2/412 409/2/409 289/2/195 305/2/200
f 409/2/409 412/2/412 306/2/201 290/2/198
f 413/2/413 414/2/414 229/2/231 225/2/264
f 414/2/414 413/2/413 226/2/265 230/2/232
f 414/2/414 415/2/415 245/2/235 229/2/231
f 415/2/415 414/2/414 230/2/232 246/2/236
f 415/2/415 416/2/416 241/2/256 245/2/235
f 416/2/416 415/2/415 246/2/236 242/2/257
f 416/2/416 413/2/413 225/2/264 241/2/256
f 413/2/413 416/2/416 242/2/257 226/2/265
f 417/2/417 418/2/418 251/2/337 207/2/340
f 418/2/418 417/2/417 208/2/341 252/2/338
f 418/2/418 419/2/419 265/2/355 251/2/337
f 419/2/419 418/2/418 252/2/338 266/2/356
f 419/2/419 420/2/420 205/2/352 265/2/355
f 420/2/420 419/2/419 266/2/356 206/2/353
f 420/2/420 417/2/417 207/2/340 205/2/352
f 417/2/417 420/2/420 206/2/353 208/2/341
f 421/2/421 422/2/422 283/2/300 215/2/303
f 422/2/422 421/2/421 216/2/304 284/2/301
f 422/2/422 423/2/423 297/2/402 283/2/300
f 423/2/423 422/2/422 284/2/301 298/2/403
f 423/2/423 424/2/424 213/2/399 297/2/402
f 424/2/424 423/2/423 298/2/403 214/2/400
f 424/2/424 421/2/421 215/2/303 213/2/399
f 421/2/421 424/2/424 214/2/400 216/2/304
f 425/2/425 426/2/426 225/2/264 221/2/267
f 426/2/426 425/2/425 222/2/268 226/2/265
f 426/2/426 427/2/427 241/2/256 225/2/264
f 427/2/427 426/2/426 226/2/265 242/2/257
f 427/2/427 428/2/428 237/2/253 241/2/256
f 428/2/428 427/2/427 242/2/257 238/2/254
f 428/2/428 425/2/425 221/2/267 237/2/253
f 425/2/425 428/2/428 238/2/254 222/2/268
f 429/2/429 430/2/430 295/2/286 311/2/388
f 430/2/430 429/2/429 312/2/389 296/2/287
f 430/2/430 431/2/431 291/2/283 295/2/286
f 431/2/431 430/2/430 296/2/287 292/2/284
f 431/2/431 432/2/432 307/2/391 291/2/283
f 432/2/432 431/2/431 292/2/284 308/2/392
f 432/2/432 429/2/429 311/2/388 307/2/391
f 429/2/429 432/2/432 308/2/392 312/2/389
f 433/2/433 434/2/434 187/2/325 261/2/328
f 434/2/434 433/2/433 262/2/329 188/2/326
f 434/2/434 435/2/435 185/2/367 187/2/325
f 435/2/435 434/2/434 188/2/326 186/2/368
f 435/2/435 436/2/436 277/2/364 185/2/367
f 436/2/436 435/2/435 186/2/368 278/2/365
f 436/2/436 433/2/433 261/2/328 277/2/364
f 433/2/433 436/2/436 278/2/365 262/2/329
f 437/2/437 438/2/438 207/2/340 203/2/343
f 438/2/438 437/2/437 204/2/344 208/2/341
f 438/2/438 439/2/439 205/2/352 207/2/340
f 439/2/439 438/2/438 208/2/341 206/2/353
f 439/2/439 440/2/440 201/2/347 205/2/352
f 440/2/440 439/2/439 206/2/353 202/2/350
f 440/2/440 437/2/437 203/2/343 201/2/347
f 437/2/437 440/2/440 202/2/350 204/2/344
f 441/2/441 442/2/442 221/2/267 219/2/270
f 442/2/442 441/2/441 220/2/271 222/2/268
f 442/2/442 443/2/443 237/2/253 221/2/267
f 443/2/443 442/2/442 222/2/268 238/2/254
f 443/2/443 444/2/444 233/2/250 237/2/253
f 444/2/444 443/2/443 238/2/254 234/2/251
f 444/2/444 441/2/441 219/2/270 233/2/250
f 441/2/441 444/2/444 234/2/251 220/2/271
f 445/2/445 446/2/446 211/2/306 281/2/188
f 446/2/446 445/2/445 282/2/189 212/2/307
f 446/2/446 447/2/447 209/2/396 211/2/306
f 447/2/447 446/2/446 212/2/307 210/2/397
f 447/2/447 448/2/448 299/2/191 209/2/396
f 448/2/448 447/2/447 210/2/397 300/2/192
f 448/2/448 445/2/445 281/2/188 299/2/191
f 445/2/445 448/2/448 300/2/192 282/2/189
f 449/2/449 450/2/450 219/2/270 199/2/273
f 450/2/450 449/2/449 200/2/274 220/2/271
f 450/2/450 451/2/451 233/2/250 219/2/270
f 451/2/451 450/2/450 220/2/271 234/2/251
f 451/2/451 452/2/452 197/2/247 233/2/250
f 452/2/452 451/2/451 234/2/251 198/2/248
f 452/2/452 449/2/449 199/2/273 197/2/247
f 449/2/449 452/2/452 198/2/248 200/2/274
f 453/2/453 454/2/454 175/2/289 173/2/383
f 454/2/454 453/2/453 174/2/386 176/2/290
f 454/2/454 455/2/455 295/2/286 175/2/289
f 455/2/455 454/2/454 176/2/290 296/2/287
f 455/2/455 456/2/456 311/2/388 295/2/286
f 456/2/456 455/2/455 296/2/287 312/2/389
f 456/2/456 453/2/453 173/2/383 311/2/388
f 453/2/453 456/2/456 312/2/389 174/2/386
f 457/2/457 458/2/458 307/2/391 303/2/184
f 458/2/458 457/2/457 304/2/185 308/2/392
f 458/2/458 459/2/459 291/2/283 307/2/391
f 459/2/459 458/2/458 308/2/392 292/2/284
f 459/2/459 460/2/460 287/2/183 291/2/283
f 460/2/460 459/2/459 292/2/284 288/2/186
f 460/2/460 457/2/457 303/2/184 287/2/183
f 457/2/457 460/2/460 288/2/186 304/2/185
f 461/2/461 462/2/462 261/2/328 257/2/331
f 462/2/462 461/2/461 258/2/332 262/2/329
f 462/2/462 463/2/463 277/2/364 261/2/328
f 463/2/463 462/2/462 262/2/329 278/2/365
f 463/2/463 464/2/464 273/2/361 277/2/364
f 464/2/464 463/2/463 278/2/365 274/2/362
f 464/2/464 461/2/461 257/2/331 273/2/361
f 461/2/461 464/2/464 274/2/362 258/2/332
f 465/2/465 466/2/466 215/2/303 211/2/306
f 466/2/466 465/2/465 212/2/307 216/2/304
f 466/2/466 467/2/467 213/2/399 215/2/303
f 467/2/467 466/2/466 216/2/304 214/2/400
f 467/2/467 468/2/468 209/2/396 213/2/399
f 468/2/468 467/2/467 214/2/400 210/2/397
f 468/2/468 465/2/465 211/2/306 209/2/396
f 465/2/465 468/2/468 210/2/397 212/2/307
f 469/2/469 470/2/470 183/2/219 181/2/224
f 470/2/470 469/2/469 182/2/225 184/2/222
f 470/2/470 471/2/471 231/2/171 183/2/219
f 471/2/471 470/2/470 184/2/222 232/2/174
f 471/2/471 472/2/472 247/2/172 231/2/171
f 472/2/472 471/2/471 232/2/174 248/2/173
f 472/2/472 469/2/469 181/2/224 247/2/172
f 469/2/469 472/2/472 248/2/173 182/2/225
f 473/2/473 474/2/474 199/2/273 195/2/276
f 474/2/474 473/2/473 196/2/277 200/2/274
f 474/2/474 475/2/475 197/2/247 199/2/273
f 475/2/475 474/2/474 200/2/274 198/2/248
f 475/2/475 476/2/476 193/2/244 197/2/247
f 476/2/476 475/2/475 198/2/248 194/2/245
f 476/2/476 473/2/473 195/2/276 193/2/244
f 473/2/473 476/2/476 194/2/245 196/2/277
f 477/2/477 478/2/478 275/2/376 271/2/379
f 478/2/478 477/2/477 272/2/380 276/2/377
f 478/2/478 479/2/479 259/2/316 275/2/376
f 479/2/479 478/2/478 276/2/377 260/2/317
f 479/2/479 480/2/480 255/2/311 259/2/316
f 480/2/480 479/2/479 260/2/317 256/2/314
f 480/2/480 477/2/477 271/2/379 255/2/311
f 477/2/477 480/2/480 256/2/314 272/2/380
f 481/2/481 482/2/482 175/2/289 171/2/292
f 482/2/482 481/2/481 172/2/293 176/2/290
f 482/2/482 483/2/483 173/2/383 175/2/289
f 483/2/483 482/2/482 176/2/290 174/2/386
f 483/2/483 484/2/484 169/2/384 173/2/383
f 484/2/484 483/2/483 174/2/386 170/2/385
f 484/2/484 481/2/481 171/2/292 169/2/384
f 481/2/481 484/2/484 170/2/385 172/2/293
f 485/2/485 486/2/486 243/2/179 239/2/208
f 486/2/486 485/2/485 240/2/209 244/2/180
f 486/2/486 487/2/487 227/2/176 243/2/179
f 487/2/487 486/2/486 244/2/180 228/2/177
f 487/2/487 488/2/488 223/2/207 227/2/176
f 488/2/488 487/2/487 228/2/177 224/2/210
f 488/2/488 485/2/485 239/2/208 223/2/207
f 485/2/485 488/2/488 224/2/210 240/2/209
f 489/2/489 490/2/490 195/2/276 217/2/212
f 490/2/490 489/2/489 218/2/213 196/2/277
f 490/2/490 491/2/491 193/2/244 195/2/276
f 491/2/491 490/2/490 196/2/277 194/2/245
f 491/2/491 492/2/492 235/2/215 193/2/244
f 492/2/492 491/2/491 194/2/245 236/2/216
f 492/2/492 489/2/489 217/2/212 235/2/215
f 489/2/489 492/2/492 236/2/216 218/2/213
f 493/2/493 494/2/494 255/2/311 271/2/379
f 494/2/494 493/2/493 272/2/380 256/2/314
f 494/2/494 495/2/495 249/2/312 255/2/311
f 495/2/495 494/2/494 256/2/314 250/2/313
f 495/2/495 496/2/496 267/2/348 249/2/312
f 496/2/496 495/2/495 250/2/313 268/2/349
f 496/2/496 493/2/493 271/2/379 267/2/348
f 493/2/493 496/2/496 268/2/349 272/2/380
f 497/2/497 498/2/498 191/2/322 187/2/325
f 498/2/498 497/2/497 188/2/326 192/2/323
f 498/2/498 499/2/499 189/2/370 191/2/322
f 499/2/499 498/2/498 192/2/323 190/2/371
f 499/2/499 500/2/500 185/2/367 189/2/370
f 500/2/500 499/2/499 190/2/371 186/2/368
f 500/2/500 497/2/497 187/2/325 185/2/367
f 497/2/497 500/2/500 186/2/368 188/2/326
f 501/2/501 502/2/502 257/2/331 253/2/334
f 502/2/502 501/2/501 254/2/335 258/2/332
f 502/2/502 503/2/503 273/2/361 257/2/331
f 503/2/503 502/2/502 258/2/332 274/2/362
f 503/2/503 504/2/504 269/2/358 273/2/361
f 504/2/504 503/2/503 274/2/362 270/2/359
f 504/2/504 501/2/501 253/2/334 269/2/358
f 501/2/501 504/2/504 270/2/359 254/2/335
f 505/2/505 506/2/506 253/2/334 251/2/337
f 506/2/506 505/2/505 252/2/338 254/2/335
f 506/2/506 507/2/507 269/2/358 253/2/334
f 507/2/507 506/2/506 254/2/335 270/2/359
f 507/2/507 508/2/508 265/2/355 269/2/358
f 508/2/508 507/2/507 270/2/359 266/2/356
f 508/2/508 505/2/505 251/2/337 265/2/355
f 505/2/505 508/2/508 266/2/356 252/2/338
f 509/2/509 510/2/510 203/2/343 249/2/312
f 510/2/510 509/2/509 250/2/313 204/2/344
f 510/2/510 511/2/511 201/2/347 203/2/343
f 511/2/511 510/2/510 204/2/344 202/2/350
f 511/2/511 512/2/512 267/2/348 201/2/347
f 512/2/512 511/2/511 202/2/350 268/2/349
f 512/2/512 509/2/509 249/2/312 267/2/348
f 509/2/509 512/2/512 268/2/349 250/2/313
f 513/2/513 514/2/514 171/2/292 293/2/295
f 514/2/514 513/2/513 294/2/296 172/2/293
f 514/2/514 515/2/515 169/2/384 171/2/292
f 515/2/515 514/2/514 172/2/293 170/2/385
f 515/2/515 516/2/516 309/2/407 169/2/384
f 516/2/516 515/2/515 170/2/385 310/2/408
f 516/2/516 513/2/513 293/2/295 309/2/407
f 513/2/513 516/2/516 310/2/408 294/2/296
f 517/2/517 518/2/518 285/2/196 283/2/300
f 518/2/518 517/2/517 284/2/301 286/2/197
f 518/2/518 519/2/519 301/2/203 285/2/196
f 519/2/519 518/2/518 286/2/197 302/2/204
f 519/2/519 520/2/520 297/2/402 301/2/203
f 520/2/520 519/2/519 302/2/204 298/2/403
f 520/2/520 517/2/517 283/2/300 297/2/402
f 517/2/517 520/2/520 298/2/403 284/2/301
f 521/2/521 522/2/522 263/2/319 279/2/373
f 522/2/522 521/2/521 280/2/374 264/2/320
f 522/2/522 523/2/523 259/2/316 263/2/319
f 523/2/523 522/2/522 264/2/320 260/2/317
f 523/2/523 524/2/524 275/2/376 259/2/316
f 524/2/524 523/2/523 260/2/317 276/2/377
f 524/2/524 521/2/521 279/2/373 275/2/376
f 521/2/521 524/2/524 276/2/377 280/2/374
f 525/2/525 526/2/526 191/2/322 189/2/370
f 526/2/526 525/2/525 190/2/371 192/2/323
f 526/2/526 527/2/527 263/2/319 191/2/322
f 527/2/527 526/2/526 192/2/323 264/2/320
f 527/2/527 528/2/528 279/2/373 263/2/319
f 528/2/528 527/2/527 264/2/320 280/2/374
f 528/2/528 525/2/525 189/2/370 279/2/373
f 525/2/525 528/2/528 280/2/374 190/2/371
